<svg viewBox="0 0 16 16" xmlns="http://www.w3.org/2000/svg"><path d="m1.7778 4a.76016.76016 0 0 0 -.3904.1081.80441.80441 0 0 0 -.3874.6919v6.4a.80441.80441 0 0 0 .3874.6919.75908.75908 0 0 0 .7763.0027l5.4444-3.2a.8115.8115 0 0 0 0-1.3892l-5.4444-3.2a.76069.76069 0 0 0 -.3859-.1054zm7 0a.76016.76016 0 0 0 -.3904.1081.80441.80441 0 0 0 -.3874.6919v6.4a.80441.80441 0 0 0 .3874.6919.75908.75908 0 0 0 .7763.0027l5.4444-3.2a.8115.8115 0 0 0 0-1.3892l-5.4444-3.2a.76069.76069 0 0 0 -.3859-.1054z"/></svg>