<!-- Generator: Adobe Illustrator 21.1.0, SVG Export Plug-In . SVG Version: 6.00 Build 0)  -->
<svg version="1.1" id="Layer_1" xmlns="http://www.w3.org/2000/svg" xmlns:xlink="http://www.w3.org/1999/xlink" x="0px" y="0px"
	 viewBox="0 0 16 16" style="enable-background:new 0 0 16 16;" xml:space="preserve">
<path d="M9,6.9V3C7.6,3.6,6.1,4,4.5,4C2.9,4,1.4,3.6,0,3v8.9C0,12.6,4.3,13,4.3,13l0-6.1L9,6.9z"/>
<path d="M4.5,0C7,0,9,0.7,9,1.5S7,3,4.5,3S0,2.3,0,1.5S2,0,4.5,0z"/>
<g>
	<path d="M12.2,10.6l-1.7,2.3l-1.1-1.1l-2,2.3H14L12.2,10.6z"/>
	<circle cx="8.3" cy="10.6" r="0.9"/>
	<path d="M5.4,8v8H16V8H5.4z M14.7,14.7h-8V9.3h8V14.7z"/>
</g>
</svg>
