<!-- Generator: Adobe Illustrator 23.0.1, SVG Export Plug-In . SVG Version: 6.00 Build 0)  -->
<svg version="1.1" id="Layer_1" xmlns="http://www.w3.org/2000/svg" xmlns:xlink="http://www.w3.org/1999/xlink" x="0px" y="0px"
	 viewBox="0 0 16 16" style="enable-background:new 0 0 16 16;" xml:space="preserve">
<path d="M8,1.5c3.5899,0.0001,6.5,2.9102,6.4999,6.5001s-2.9102,6.5-6.5001,6.4999C4.41,14.4999,1.5,11.5898,1.5,8
	C1.504,4.4118,4.4118,1.504,8,1.5 M8.0001,0C3.5818,0,0,3.5817,0,8s3.5817,8,8,8s8-3.5817,8-8l0,0
	C15.9871,3.5871,12.413,0.0129,8.0001,0z"/>
<path d="M6.651,11.9937L3.0001,8.5938l1.3959-1.3l2.3625,2.2l4.8322-4.5l1.3959,1.2999L6.651,11.9937z"/>
</svg>
