
<!-- Generator: Adobe Illustrator 22.0.0, SVG Export Plug-In . SVG Version: 6.00 Build 0)  -->
<svg version="1.1" id="Layer_1" xmlns="http://www.w3.org/2000/svg" xmlns:xlink="http://www.w3.org/1999/xlink" x="0px" y="0px"
	 viewBox="0 0 16 16" style="enable-background:new 0 0 16 16;" xml:space="preserve">
<path d="M15.3,5.0163h-4.5l-1.3-2.9c-0.1-0.3-0.5-0.2-0.6,0L8.5712,2.9932C8.5124,3.1499,8.5188,3.3237,8.5889,3.4757L9.3,5.0163
	H6.9l1.8-4C8.8025,0.808,8.8309,0.6698,8.6438,0.4827C8.3955,0.2344,8,0.0449,8,0.0449c-0.3-0.1-0.5-0.0286-0.6,0.1714l-2.1,4.8H0.8
	c-0.5,0-0.8,0.4-0.8,0.8v0.2c0,0.5,0.4,0.8,0.8,0.8H1l1.3,6.7c0,0.3,0.3,0.5,0.6,0.5h10.2c0.3,0,0.6-0.2,0.6-0.5l1.3-6.7h0.2
	c0.5,0,0.8-0.4,0.8-0.8v-0.2C16,5.3957,15.7,5.0163,15.3,5.0163 M5.4,11.7163c0,0.3-0.2,0.5-0.5,0.5s-0.5-0.2-0.5-0.5v-3.1
	c0-0.3,0.2-0.5,0.5-0.5s0.5,0.2,0.5,0.5V11.7163 M8.6,11.7163c0,0.3-0.2,0.5-0.5,0.5s-0.5-0.2-0.5-0.5v-3.1c0-0.3,0.2-0.5,0.5-0.5
	s0.5,0.2,0.5,0.5V11.7163 M11.8,11.7163c0,0.3-0.2,0.5-0.5,0.5s-0.5-0.2-0.5-0.5v-3.1c0-0.3,0.2-0.5,0.5-0.5s0.5,0.2,0.5,0.5
	V11.7163"/>
</svg>
