
<!-- Generator: Adobe Illustrator 23.0.1, SVG Export Plug-In . SVG Version: 6.00 Build 0)  -->
<svg version="1.1" id="Layer_1" xmlns="http://www.w3.org/2000/svg" xmlns:xlink="http://www.w3.org/1999/xlink" x="0px" y="0px"
	 viewBox="0 0 16 16" style="enable-background:new 0 0 16 16;" xml:space="preserve">
<g>
	<path d="M13.4193,6.5002v-0.01c-0.11-0.2-0.3-0.3-0.5299-0.31H9.6798l1.5598-5.4393c0.08-0.28-0.06-0.5699-0.31-0.6799
		c-0.24-0.12-0.5299-0.06-0.7199,0.15L2.6607,8.8499c-0.16,0.18-0.19,0.4399-0.08,0.6599c0.11,0.2,0.31,0.32,0.5299,0.32h3.2096
		l-1.5698,5.4293c-0.07,0.28,0.07,0.5699,0.35,0.6899c0.07,0.04,0.15,0.05,0.2,0.05h0.03c0.17,0.01,0.34-0.07,0.4599-0.21
		l7.5491-8.6389C13.4993,6.9701,13.5293,6.7102,13.4193,6.5002z"/>
</g>
</svg>
