
<!-- Generator: Adobe Illustrator 21.1.0, SVG Export Plug-In . SVG Version: 6.00 Build 0)  -->
<svg version="1.1" id="Layer_1" xmlns="http://www.w3.org/2000/svg" xmlns:xlink="http://www.w3.org/1999/xlink" x="0px" y="0px"
	 viewBox="0 0 16 16" style="enable-background:new 0 0 16 16;" xml:space="preserve">
<path d="M14,3v6.2l-3-3c-0.1-0.1-0.3-0.1-0.5,0c0,0.1-0.1,0.1-0.1,0.2V12H1c-0.5,0-1-0.5-1-1V1c0-0.5,0.5-1,1-1h4c0.5,0,1,0.5,1,1v1
	h7C13.5,2,14,2.5,14,3z"/>
<path d="M11.3,14c0.1,0,0.1,0,0.2,0l1.5-0.6l1,2.3c0,0.1,0.1,0.1,0.2,0.1h0.1l0.8-0.3c0.1,0,0.2-0.2,0.1-0.3l-1-2.3l1.5-0.6
	c0.1,0,0.2-0.2,0.1-0.3c0,0,0-0.1-0.1-0.1l-4.2-4.2c-0.1-0.1-0.2-0.1-0.3,0c0,0-0.1,0.1-0.1,0.1v5.8C11.2,13.9,11.2,14,11.3,14z"/>
</svg>
