<svg id="Calque_1" data-name="Calque 1" xmlns="http://www.w3.org/2000/svg" viewBox="0 0 16 16"><path d="M8.40576,14.61358a6.63731,6.63731,0,0,1-6.186-9.0332A6.59624,6.59624,0,0,1,8.74463,1.348l.86279.0459-.46972.72461a5.38987,5.38987,0,0,0-.49366.98144,5.64558,5.64558,0,0,0,3.22608,7.293,5.71013,5.71013,0,0,0,1.75.376l.85058.04687-.45507.71973A6.63832,6.63832,0,0,1,8.40576,14.61358Zm-.53613-12.251a5.63918,5.63918,0,1,0,4.813,9.29687,6.64487,6.64487,0,0,1-4.97119-8.9209C7.76123,2.61066,7.814,2.48468,7.86963,2.36261Z"/></svg>