<svg id="Calque_1" data-name="Calque 1" xmlns="http://www.w3.org/2000/svg" viewBox="0 0 16 16"><path d="M8.06317,4.89865A3.122,3.122,0,1,1,4.941,8.02086,3.12554,3.12554,0,0,1,8.06317,4.89865m0-1A4.122,4.122,0,1,0,12.185,8.02086,4.12664,4.12664,0,0,0,8.06317,3.89865Z"/><path d="M8.063,3.00169h0a.51911.51911,0,0,0,.51754-.51755V.51754A.51911.51911,0,0,0,8.063,0h0a.5191.5191,0,0,0-.51754.51754v1.9666A.519.519,0,0,0,8.063,3.00169Z"/><path d="M4.51019,4.42113h0a.51907.51907,0,0,0,0-.73194L3.11956,2.29867a.519.519,0,0,0-.73193,0h0a.519.519,0,0,0,0,.73193L3.77825,4.42123A.51916.51916,0,0,0,4.51019,4.42113Z"/><path d="M3.00169,7.937h0a.51911.51911,0,0,0-.51755-.51754H.51754A.51911.51911,0,0,0,0,7.937H0a.51911.51911,0,0,0,.51754.51755h1.9666A.519.519,0,0,0,3.00169,7.937Z"/><path d="M4.42113,11.48981h0a.51907.51907,0,0,0-.73194,0L2.29867,12.88044a.519.519,0,0,0,0,.73193h0a.519.519,0,0,0,.73193,0l1.39063-1.39062A.51916.51916,0,0,0,4.42113,11.48981Z"/><path d="M7.937,12.99831h0a.51911.51911,0,0,0-.51754.51754v1.96661A.51911.51911,0,0,0,7.937,16h0a.51911.51911,0,0,0,.51755-.51754V13.51585A.519.519,0,0,0,7.937,12.99831Z"/><path d="M11.48981,11.57887h0a.51907.51907,0,0,0,0,.73194l1.39063,1.39062a.519.519,0,0,0,.73193,0h0a.519.519,0,0,0,0-.73193l-1.39062-1.39063A.51907.51907,0,0,0,11.48981,11.57887Z"/><path d="M12.99831,8.063h0a.51911.51911,0,0,0,.51754.51754h1.96661A.51911.51911,0,0,0,16,8.063h0a.5191.5191,0,0,0-.51754-.51754H13.51585A.519.519,0,0,0,12.99831,8.063Z"/><path d="M11.57887,4.51019h0a.51907.51907,0,0,0,.73194,0l1.39062-1.39063a.519.519,0,0,0,0-.73193h0a.519.519,0,0,0-.73193,0L11.57887,3.77825A.51907.51907,0,0,0,11.57887,4.51019Z"/></svg>