<svg id="Calque_1" data-name="Calque 1" xmlns="http://www.w3.org/2000/svg" viewBox="0 0 16 16"><path d="M13.98587,8.2494A3.56359,3.56359,0,0,0,10.29647,4.56,3.94578,3.94578,0,0,0,9.073,4.73883,2.74961,2.74961,0,0,0,6.21174,2.13175,2.49172,2.49172,0,0,0,3.8306,3.51531a1.571,1.571,0,0,0-.58353-.11294,1.64015,1.64015,0,0,0-1.6659,1.42119A2.23788,2.23788,0,0,0,0,7.01646,2.34985,2.34985,0,0,0,2.34352,9.36h.25414a2.91837,2.91837,0,0,0-.42354,1.54348,2.97039,2.97039,0,0,0,2.96467,2.96473h7.89648A2.9704,2.9704,0,0,0,16,10.90352,2.64959,2.64959,0,0,0,13.98587,8.2494Zm-.9506,4.67767H5.13879a2.02644,2.02644,0,0,1-2.0235-2.02355A1.88978,1.88978,0,0,1,4.8,8.95528l.41412-.05647V8.2494A1.08114,1.08114,0,0,1,6.35294,7.18592a1.25522,1.25522,0,0,1,.76235.31055l.48.35765.2353-.5459A3.09874,3.09874,0,0,1,8.87529,5.84941a2.40376,2.40376,0,0,1,1.15763-.33881,2.37782,2.37782,0,0,1,.26355-.00942,2.66324,2.66324,0,0,1,2.74822,2.90826v.67762l.433.03768a1.693,1.693,0,0,1,1.58117,1.77878A2.02648,2.02648,0,0,1,13.03527,12.92707Z"/></svg>