<svg id="Calque_1" data-name="Calque 1" xmlns="http://www.w3.org/2000/svg" viewBox="0 0 16 16"><path d="M15.24,9.18a3.65805,3.65805,0,0,1-1.17-.25,3.75353,3.75353,0,0,1-2.14-4.84,3.5891,3.5891,0,0,1,.33-.65l.47-.73-.87-.04A4.69444,4.69444,0,0,0,7.2,5.69a4.49223,4.49223,0,0,0-.3,1.33,3.03,3.03,0,0,0-2.03,1.7,1.73848,1.73848,0,0,0-.79-.18,2.00691,2.00691,0,0,0-2.05,1.81A2.76341,2.76341,0,0,0,0,13.09,2.90633,2.90633,0,0,0,2.91,16h7.63a2.90633,2.90633,0,0,0,2.91-2.91,2.688,2.688,0,0,0-.27-1.21,4.60767,4.60767,0,0,0,2.45-1.93l.46-.72Zm-2.79,3.91A1.90978,1.90978,0,0,1,10.54,15H2.91A1.90979,1.90979,0,0,1,1,13.09a1.79227,1.79227,0,0,1,1.59-1.84l.43-.06v-.67a.99578.99578,0,0,1,1.06-.98,1.17176,1.17176,0,0,1,.71.29l.51.38.25-.58A2.45033,2.45033,0,0,1,6.92,8.06a2.70839,2.70839,0,0,1,.97-.15h.03a2.54472,2.54472,0,0,1,2.59,2.77v.7l.46.03a1.52221,1.52221,0,0,1,1.2.7A1.76226,1.76226,0,0,1,12.45,13.09Zm.1-2.06A2.46592,2.46592,0,0,0,11.5,10.48,3.4764,3.4764,0,0,0,7.92,6.91a3.27434,3.27434,0,0,1,.21-.86A3.7462,3.7462,0,0,1,11,3.71v.02a4.749,4.749,0,0,0,2.71,6.14q.285.105.57.18A3.70591,3.70591,0,0,1,12.55,11.03Z"/></svg>