<svg viewBox="0 0 16 16" xmlns="http://www.w3.org/2000/svg"><path d="m4.4117 5h2.1765a.41184.41184 0 0 1 .4118.4118v.1764a.41184.41184 0 0 1 -.4118.4118h-2.1765a.41175.41175 0 0 1 -.4117-.4118v-.1764a.41175.41175 0 0 1 .4117-.4118zm3.6508-3a1.00113 1.00113 0 0 1 1 1v5.0625a1.00113 1.00113 0 0 1 -1 1h-5.0625a1.00113 1.00113 0 0 1 -1-1v-5.0625a1.00113 1.00113 0 0 1 1-1zm0-1h-5.0625a2 2 0 0 0 -2 2v5.0625a2 2 0 0 0 2 2h5.0625a2 2 0 0 0 2-2v-5.0625a2 2 0 0 0 -2-2zm3 3.00629v1.00634a.99465.99465 0 0 1 .9375.98737v5a1.00115 1.00115 0 0 1 -1 1h-5a.99465.99465 0 0 1 -.98737-.9375h-1.00634a1.99654 1.99654 0 0 0 1.99371 1.9375h5a2 2 0 0 0 2-2v-5a1.99654 1.99654 0 0 0 -1.9375-1.99371zm2.9375 2.99371v1a1.00115 1.00115 0 0 1 1 1v5a1.00115 1.00115 0 0 1 -1 1h-5a1.00115 1.00115 0 0 1 -1-1h-1a2 2 0 0 0 2 2h5a2 2 0 0 0 2-2v-5a2 2 0 0 0 -2-2z" fill-rule="evenodd"/></svg>