<svg viewBox="0 0 16 16" xmlns="http://www.w3.org/2000/svg"><path d="m11 1-11 4v5l5 5 11-4v-5zm4 9.3-9.7432 3.543-4.2568-4.2572v-3.8858l9.743-3.5427 4.257 4.2569zm-5.88655-5.11792 1.17855-1.43027.77147.63571-1.17855 1.43027zm-5.9998.9997 1.17858-1.43027.77147.63571-1.17858 1.43027zm4.9997 3.0001 1.17858-1.43027.77147.63571-1.17858 1.43027zm-1.61335-2.18188a.5.5 0 1 1 -.5.5.5.5 0 0 1 .5-.5zm7 1a.5.5 0 1 1 -.5.5.5.5 0 0 1 .5-.5zm-6 3a.5.5 0 1 1 -.5.5.5.5 0 0 1 .5-.5z"/><path d="m.343 5.053v4.846l4.9509 4.7895v-4.6846z" opacity=".66"/></svg>