<svg viewBox="0 0 16 16" xmlns="http://www.w3.org/2000/svg"><path d="m14.65 3.57-6.63-1.33-6.63 1.33-1.39-.39v3.38l.92.26v3.54l7.1-1.42 7.1 1.42v-3.55l.88-.25v-3.38zm-7.11 4.5-5.68 1.14v-2.36l5.68-1.14zm6.63 1.14-5.68-1.14v-2.36l5.68 1.14z"/><path d="m11.79552 14.54477a7.95238 7.95238 0 0 1 -4.03129-1.13236c-3.23348-1.86859-7.04418-.00552-7.0837.01379a.47044.47044 0 1 1 -.42-.84192c.17371-.0864 4.30886-2.1048 7.97526.01378a6.66816 6.66816 0 0 0 7.02442.02114.47058.47058 0 0 1 .53953.77115 7.43519 7.43519 0 0 1 -4.00422 1.15442z"/></svg>