<svg xmlns="http://www.w3.org/2000/svg" viewBox="0 0 16 16"><path d="M8,0C5,0,1.39.56,1,1.33V5c.05.2.38.39.89.58A1.63,1.63,0,0,0,1,6.1V9.71c.05.2.4.41.93.6a1.71,1.71,0,0,0-.93.56v3.62C1.2,15.24,5.64,16,8,16s6.8-.76,7-1.52V10.87c-.06-.17-.46-.36-1-.54.58-.2,1-.4,1-.62V6.1c-.06-.17-.45-.34-1-.52.57-.19,1-.4,1-.62V1.33C14.8.76,11,0,8,0ZM2,1.44l.1,0A12.46,12.46,0,0,0,3.84,2a24.16,24.16,0,0,0,4.24.46A24.17,24.17,0,0,0,12.32,2a12.12,12.12,0,0,0,1.77-.48l.28.12v.58a12.85,12.85,0,0,1-1.89.5,24.68,24.68,0,0,1-4.39.48,24.68,24.68,0,0,1-4.39-.48,13.16,13.16,0,0,1-1.91-.5l-.14-.06V1.6S1.73,1.54,2,1.44Zm0,4.75.12.06a12.72,12.72,0,0,0,1.79.46,24.31,24.31,0,0,0,4.24.48,24.32,24.32,0,0,0,4.24-.48,12.36,12.36,0,0,0,1.77-.46l.28.12v.58a12.86,12.86,0,0,1-1.89.5,24.68,24.68,0,0,1-4.39.48,24.68,24.68,0,0,1-4.39-.48,13.18,13.18,0,0,1-1.91-.5l-.14-.06V6.35S1.75,6.29,1.93,6.19ZM2,11l.1,0a12.45,12.45,0,0,0,1.79.48,24.16,24.16,0,0,0,4.24.46,24.17,24.17,0,0,0,4.24-.46A12.11,12.11,0,0,0,14.09,11l.28.12v.58a12.68,12.68,0,0,1-1.89.52,24.68,24.68,0,0,1-4.39.48,24.68,24.68,0,0,1-4.39-.48,13,13,0,0,1-1.91-.52l-.14-.06v-.52S1.75,11.06,2,11Z"/></svg>