<svg xmlns="http://www.w3.org/2000/svg" viewBox="0 0 16 16"><path d="m16 4.771v9.229a2.00591 2.00591 0 0 1 -2 2h-12a2.00591 2.00591 0 0 1 -2 -2v-12a2.00587 2.00587 0 0 1 2 -2h9.229l-1.5 1.5h-7.729a.50665 .50665 0 0 0 -.5 .5v12a.50669 .50669 0 0 0 .5 .5h12a.50669 .50669 0 0 0 .5 -.5v-7.729m-8.234 6.819l-4.266.909.909-4.266 5.175-5.176 4.546-4.546s.979-.21 2.238 1.119c1.329 1.259 1.119 2.238 1.119 2.238l-4.546 4.546m-5.455 4.686l.42-.49a2.64688 2.64688 0 0 0 -.90926 -1.67846 2.647 2.647 0 0 0 -1.67852 -.90926l-.42.42-.28 1.469a3.28774 3.28774 0 0 1 .83925 .62946 2.20089 2.20089 0 0 1 .62947 .83928" fill="#231f20"/></svg>