
<!-- Generator: Adobe Illustrator 23.0.1, SVG Export Plug-In . SVG Version: 6.00 Build 0)  -->
<svg version="1.1" id="Calque_1" xmlns="http://www.w3.org/2000/svg" xmlns:xlink="http://www.w3.org/1999/xlink" x="0px" y="0px"
	 viewBox="0 0 16 16" style="enable-background:new 0 0 16 16;" xml:space="preserve">
<path d="M16,6.85c0,0.3-0.075,0.525-0.3,0.75l-1.35,1.35l-3.225-3.375l1.35-1.275C12.7,4.075,12.925,4,13.225,4
	c0.3,0,0.525,0.075,0.75,0.3l1.875,1.875C15.925,6.325,16,6.625,16,6.85z M10.6,6.1l3.3,3.3L7.3,16H4v-3.3L10.6,6.1z M7.6,14.2
	l-1.875-1.875l-0.75,0.75V13.9h1.05v1.05H6.85L7.6,14.2z M10.75,7.525L6.475,11.8c0,0-0.075,0.075-0.075,0.15
	c0,0.15,0.075,0.15,0.15,0.15s0.075,0,0.15-0.075l4.275-4.275c0,0,0.075-0.075,0.075-0.15c0-0.15-0.075-0.15-0.15-0.15
	C10.825,7.45,10.825,7.45,10.75,7.525z M2,10V8H0V0h8v2h2v3.7l-1,1V3H8H7H3v4v1v1h3.7l-1,1H2z M2,7V2h5V1H1v6H2z"/>
</svg>
