<svg viewBox="0 0 16 16" xmlns="http://www.w3.org/2000/svg"><path d="m7 5.4118v.1764a.41183.41183 0 0 1 -.4118.4118h-.5882v.5882a.41183.41183 0 0 1 -.4118.4118h-.1764a.41183.41183 0 0 1 -.4118-.4118v-.5882h-.58832a.41176.41176 0 0 1 -.41168-.4118v-.1764a.41176.41176 0 0 1 .41168-.4118h.58832v-.58832a.41172.41172 0 0 1 .4118-.41168h.1764a.41172.41172 0 0 1 .4118.41168v.58832h.5882a.41183.41183 0 0 1 .4118.4118zm7 1.5882v1a1.00115 1.00115 0 0 1 1 1v5a1.00115 1.00115 0 0 1 -1 1h-5a1.00115 1.00115 0 0 1 -1-1h-1a2 2 0 0 0 2 2h5a2 2 0 0 0 2-2v-5a2 2 0 0 0 -2-2zm-1 4v-5a1.99654 1.99654 0 0 0 -1.9375-1.99371v1.00634a.99465.99465 0 0 1 .9375.98737v5a1.00115 1.00115 0 0 1 -1 1h-5a.99465.99465 0 0 1 -.98737-.9375h-1.00634a1.99654 1.99654 0 0 0 1.99371 1.9375h5a2 2 0 0 0 2-2zm-4.9375-.9375h-5.0625a2 2 0 0 1 -2-2v-5.0625a2 2 0 0 1 2-2h5.0625a2 2 0 0 1 2 2v5.0625a2 2 0 0 1 -2 2zm-5.0625-1h5.0625a1.00115 1.00115 0 0 0 1-1v-5.0625a1.00115 1.00115 0 0 0 -1-1h-5.0625a1.00115 1.00115 0 0 0 -1 1v5.0625a1.00115 1.00115 0 0 0 1 1z" fill-rule="evenodd"/></svg>