<svg viewBox="0 0 16 16" xmlns="http://www.w3.org/2000/svg"><path d="m8 0a8 8 0 1 0 8 8 8 8 0 0 0 -8-8zm.5129 11.2519a.7775.7775 0 1 1 -1.555 0v-.3038a.7775.7775 0 0 1 1.555 0zm-.0829-1.9319a.10993.10993 0 0 1 -.0995.1195l-.0105.0005h-1a.1.1 0 0 1 -.11-.0889.093.093 0 0 1 0-.0211c0-1.8908 1.57-2.1183 1.57-3.1a1.33872 1.33872 0 0 0 -.1801-.7.66984.66984 0 0 0 -.6399-.35.69011.69011 0 0 0 -.63.45 2.13314 2.13314 0 0 0 -.11.83h-1.22c0-3.5205 4-3.1346 4-.31 0 1.5088-1.57 1.5402-1.57 3.17z" fill="#2b9be3"/></svg>