<svg xmlns="http://www.w3.org/2000/svg" viewBox="0 0 16 16"><path d="M8,0a8,8,0,1,0,8,8A8,8,0,0,0,8,0ZM8,14.7A6.7,6.7,0,1,1,14.7,8,6.7,6.7,0,0,1,8,14.7Z" fill="#2b9be3"/><path d="M9.39,4.54A2.06,2.06,0,0,0,7.86,4a1.78,1.78,0,0,0-1.18.38A2.57,2.57,0,0,0,6,6.47H7.2a1.8,1.8,0,0,1,.11-.83.69.69,0,0,1,.63-.45.67.67,0,0,1,.64.35,1.25,1.25,0,0,1,.18.7,1.21,1.21,0,0,1-.2.61,1.20005,1.20005,0,0,1-.24.3,3.50009,3.50009,0,0,0-.88.93A2.99993,2.99993,0,0,0,7.2,9.33a.1.1,0,0,0,.11.11h1a.11.11,0,0,0,.11045-.10954L8.42,9.32a4.00052,4.00052,0,0,1,.05-.57,1.1,1.1,0,0,1,.31-.53l.32-.28a3.92,3.92,0,0,0,.63-.69,2.13,2.13,0,0,0,.3-1.1A2.09,2.09,0,0,0,9.39,4.54ZM7.78,10.21a.79893.79893,0,0,0-.75.88.8.8,0,0,0,.66628.91437L7.74,12.01a.78169.78169,0,0,0,.76-.86.81.81,0,0,0-.665-.93271Q7.80762,10.2127,7.78,10.21Z" fill="#2b9be3"/></svg>