<svg xmlns="http://www.w3.org/2000/svg" viewBox="0 0 16 16"><path d="M10.82056,4.09265A10.67206,10.67206,0,0,1,8,7.16272,10.67176,10.67176,0,0,1,5.1792,4.09265Zm-.6659,3.82861c1.37329,1.1836,2.84522,2.85315,2.84522,4.5702V14H14v2H2V14h.99988V12.49146c0-1.71705,1.47168-3.3866,2.84521-4.5702C4.476,6.67444,2.99988,4.93335,2.99988,3.224V2H2V0H14V2H12.99988V3.224C12.99988,4.93335,11.52368,6.67432,10.15466,7.92126Zm-1.87854.02967c.88037-.681,3.56995-2.91114,3.56995-4.72693V2.01807H4.15369V3.224c0,1.81579,2.68994,4.04578,3.57006,4.72693-.88012.63513-3.57006,2.72461-3.57006,4.54053v.86828L8.00256,10.3418,11.846,13.359h.00012v-.86755C11.84607,10.67542,9.15637,8.58606,8.27612,7.95093Z"/></svg>