
<!-- Generator: Adobe Illustrator 22.0.0, SVG Export Plug-In . SVG Version: 6.00 Build 0)  -->
<svg version="1.1" id="Layer_1" xmlns="http://www.w3.org/2000/svg" xmlns:xlink="http://www.w3.org/1999/xlink" x="0px" y="0px"
	 viewBox="0 0 16 16" style="enable-background:new 0 0 16 16;" xml:space="preserve">
<path d="M15.11,2H10v1h5v8H1V3h5V2H1C0,2,0,2.96,0,3v9c0.01,0.51,0.49,1.01,1,1h6v2c-0.6,0.09-1.7,1-1,1h4c0.7,0-0.41-0.91-1-1v-2h6
	c0.54,0.01,0.99-0.41,1-0.96V3C16.03,2.48,15.63,2.03,15.11,2z"/>
<path d="M11,6H9V0H6.9994v6H5l3,4L11,6z"/>
</svg>
