<svg style="width: 1.0009765625em; height: 1em;vertical-align: middle;fill: currentColor;overflow: hidden;" viewBox="0 0 1025 1024" version="1.1" xmlns="http://www.w3.org/2000/svg" p-id="3589"><path d="M983.4 554c-22.4 0-40.6-18.2-40.6-40.6 0-58.4-11.4-115-34-168.2-21.8-51.5-52.9-97.7-92.6-137.4-39.7-39.7-85.9-70.9-137.4-92.6-53.3-22.5-109.9-34-168.2-34C488.2 81.2 470 63 470 40.6 470 18.2 488.2 0 510.6 0c69.3 0 136.5 13.6 199.9 40.4 61.1 25.9 116 62.9 163.2 110 47.1 47.1 84.1 102 110 163.2 26.8 63.3 40.4 130.6 40.4 199.9C1024 535.8 1005.8 554 983.4 554z" p-id="3590"></path></svg>