<svg xmlns="http://www.w3.org/2000/svg" viewBox="0 0 16 16"><path d="M11.5,4h-.55A3.481,3.481,0,0,0,8,1.05V.5a.5.5,0,0,0-1,0v.55A3.481,3.481,0,0,0,4.05,4H3.5a.5.5,0,0,0,0,1h.55A3.4811,3.4811,0,0,0,7,7.95V8.5a.5.5,0,0,0,1,0V7.95A3.4811,3.4811,0,0,0,10.95,5h.55a.5.5,0,0,0,0-1ZM9.9494,4H8V2.0506A2.5068,2.5068,0,0,1,9.9494,4ZM7,2.0506V4H5.0506A2.5068,2.5068,0,0,1,7,2.0506ZM5.0506,5H7V6.9494A2.5069,2.5069,0,0,1,5.0506,5ZM8,6.9494V5H9.9494A2.5069,2.5069,0,0,1,8,6.9494Z"/><path d="M14.6667,10H.3334A.3328.3328,0,0,0,0,10.3335v5.3331A.3326.3326,0,0,0,.3334,16l14.3333,0A.3327.3327,0,0,0,15,15.6663V10.3333A.3324.3324,0,0,0,14.6667,10ZM2,13H1V11H2Zm2,1H3V11H4Zm2-1H5V11H6Zm2,1H7V11H8Zm2-1H9V11h1Zm2,1H11V11h1Zm2-1H13V11h1Z"/></svg>