<svg xmlns="http://www.w3.org/2000/svg" viewBox="0 0 16 16"><path d="M14.6667,10H.3334A.3328.3328,0,0,0,0,10.3335v5.3331A.3326.3326,0,0,0,.3334,16l14.3333,0A.3327.3327,0,0,0,15,15.6663V10.3333A.3324.3324,0,0,0,14.6667,10ZM2,13H1V11H2Zm2,1H3V11H4Zm2-1H5V11H6Zm2,1H7V11H8Zm2-1H9V11h1Zm2,1H11V11h1Zm2-1H13V11h1Z"/><path d="M12.5 2a2.5005 2.5005 0 0 0 -2.45 2H4.95a2.5 2.5 0 1 0 0 1H10.05A2.5 2.5 0 1 0 12.5 2M2.5 6A1.5 1.5 0 1 1 4 4.5 1.5017 1.5017 0 0 1 2.5 6m10 0A1.5 1.5 0 1 1 14 4.5 1.5017 1.5017 0 0 1 12.5 6"/></svg>