<svg xmlns="http://www.w3.org/2000/svg" viewBox="0 0 16 16"><path d="M14.6667,10H.3334A.3328.3328,0,0,0,0,10.3335v5.3331A.3326.3326,0,0,0,.3334,16l14.3333,0A.3327.3327,0,0,0,15,15.6663V10.3333A.3324.3324,0,0,0,14.6667,10ZM2,13H1V11H2Zm2,1H3V11H4Zm2-1H5V11H6Zm2,1H7V11H8Zm2-1H9V11h1Zm2,1H11V11h1Zm2-1H13V11h1Z"/><path d="m14.769 3h-1.231l-1.846-2-5.538-1-6.154 2v3.907l12.634 2.632 3.366-2.805v-2.234m-1.94.81l-2.461-.41.907-.544.594.644h1.363m-1.439 1.233l-2.891-.413.056-.075.763-.458 2.649.451m-5.467-1.973l-.658 1.317-1.074-1.433.679-.535m-1.016.184l-1.479-.739.838-.272 1.173.585m.916-.1l.529-.417 1.437.259-1.086.723m.159.705l.355.236 1.502.751-.518.311-.287.377-1.726-.345m3.307-2.449l.975 1.056-1.243.746-1.76-.878-.313-.208 1.313-.876m-3.934-.736l1.167.211-.364.292-.925-.463m-3.871 1.258l1.678-.545 1.726.863-.229.183-1.855.464-.452-.611m-2.099 2.413v-2.187l1.462.594 1.657 2.243m-.246-2.02l1.708-.427.43-.339 1.18 1.573-1.226 1.226-.983-.533m1.548.838l-.106-.058 1.18-1.179 1.666.333-.949 1.246.008.006-.294.06m2.328-.473l-1.312.266.749-.999 2.721.399-.389.333m2.87-.734l-2.634 2.195-2.061-.429.157-.032h2.039l2.5-2.143"/></svg>