<svg id="Calque_1" data-name="Calque 1" xmlns="http://www.w3.org/2000/svg" viewBox="0 0 16 16"><rect x="0.15429" y="6.50688" width="15.69142" height="1.98625" transform="translate(-2.96016 7.85355) rotate(-45)"/><path d="M15.9,11.25l-4.44-4.4L6.84,11.47l4.46,4.38a.45405.45405,0,0,0,.5,0l4.1-4.1A.45424.45424,0,0,0,15.9,11.25ZM11,10.05l.9-1,.7.7-.9,1Zm1.1,3-.7-.6,1.9-1.9.7.7Zm-3.46-9L4.7.15a.45405.45405,0,0,0-.5,0L.1,4.25a.63757.63757,0,0,0,0,.6L4,8.69Zm-5.04.6L3,3.95l1.9-1.9.6.7Zm2.7-1.2.7.7-1,1-.6-.8Z"/></svg>