
<!-- Generator: Adobe Illustrator 23.1.0, SVG Export Plug-In . SVG Version: 6.00 Build 0)  -->
<svg version="1.1" id="Calque_1" xmlns="http://www.w3.org/2000/svg" xmlns:xlink="http://www.w3.org/1999/xlink" x="0px" y="0px"
	 viewBox="0 0 16 16" style="enable-background:new 0 0 16 16;" xml:space="preserve">
<g>
	<g>
		<path d="M0.33,9C0.15,9,0,9.15,0,9.33v5.34C0,14.85,0.15,15,0.33,15H6.6c-0.44-0.46-0.8199-0.99-1.11-1.57l-0.22-0.44l0.22-0.44
			c0.09-0.19,0.19-0.37,0.3-0.55H5v-2h1v1.68c0.29-0.42,0.63-0.8,1-1.13V10h0.73c0.88-0.58,1.91-0.93,3-1H0.33z M2,12H1v-2h1V12z
			 M4,13H3v-3h1V13z"/>
		<path d="M0,0v7h15V3L0,0z M14,6H1V1.22l13,2.6V6z"/>
	</g>
	<path d="M11.194,9.981c-2.0426,0-3.9049,1.1414-4.8061,3.0038c1.3217,2.6433,4.5057,3.7848,7.149,2.4631
		c1.0814-0.5407,1.9224-1.3817,2.4631-2.4631C15.099,11.1224,13.2366,9.981,11.194,9.981 M13.537,11.543
		c0.6008,0.3605,1.0814,0.8411,1.4418,1.4418c-0.3605,0.5407-0.8411,1.0213-1.3817,1.3817
		c-0.6608,0.4806-1.5019,0.7209-2.343,0.7209c-0.8411,0-1.6821-0.2403-2.343-0.7209c-0.6008-0.3605-1.1414-0.781-1.5019-1.3817
		c0.3605-0.6008,0.8411-1.0814,1.4418-1.4418c0.0601,0,0.0601-0.0601,0.1202-0.0601C8.851,11.7232,8.791,12.0236,8.791,12.324
		c0,1.3217,1.0814,2.403,2.403,2.403s2.403-1.0814,2.403-2.403C13.5971,12.0236,13.537,11.7833,13.537,11.543 M11.194,12.0236
		c0,0.4806-0.4205,0.9011-0.9011,0.9011s-0.9011-0.4205-0.9011-0.9011s0.4205-0.9011,0.9011-0.9011
		C10.7735,11.1224,11.194,11.4829,11.194,12.0236"/>
</g>
</svg>
