<svg id="Calque_1" data-name="Calque 1" xmlns="http://www.w3.org/2000/svg" viewBox="0 0 16 16"><path d="M13.679,4.26A4.14275,4.14275,0,0,0,9.38893,0a3.67035,3.67035,0,0,0-3.59,2.16,2.14655,2.14655,0,0,0-.95-.21A2.37321,2.37321,0,0,0,2.419,4.1,3.29174,3.29174,0,0,0-.00109,7.36a3.472,3.472,0,0,0,2.19,3.22V9.23a2.24853,2.24853,0,0,1-1-1.87,2.12487,2.12487,0,0,1,1.89-2.19l.51-.07V4.3a1.19211,1.19211,0,0,1,1.26-1.16,1.39,1.39,0,0,1,.85.34l.6.45.3-.69c.57-1.33,1.18-2.05,2.79-2.05a3.028,3.028,0,0,1,3.11,3.3v.83l.55.04a1.88625,1.88625,0,0,1,1.76,2,2.25677,2.25677,0,0,1-.72,1.65v1.44a3.4643,3.4643,0,0,0,1.91-3.09A3.09907,3.09907,0,0,0,13.679,4.26Z"/><path d="M10.2544,11.10645a2.75968,2.75968,0,0,1-1.34472-.31934,1.78177,1.78177,0,0,0-.91406-.22168,1.766,1.766,0,0,0-.91016.22168,2.76639,2.76639,0,0,1-1.34375.31934A2.76635,2.76635,0,0,1,4.398,10.78711a1.766,1.766,0,0,0-.91016-.22168.5.5,0,0,1,0-1,2.76621,2.76621,0,0,1,1.34375.31934,1.766,1.766,0,0,0,.91016.22168,1.766,1.766,0,0,0,.91016-.22168,2.76621,2.76621,0,0,1,1.34375-.31934,2.77207,2.77207,0,0,1,1.3457.31934,1.77779,1.77779,0,0,0,.91308.22168,1.7778,1.7778,0,0,0,.91309-.22168,2.75973,2.75973,0,0,1,1.34473-.31934.5.5,0,0,1,0,1,1.77783,1.77783,0,0,0-.91309.22168A2.75969,2.75969,0,0,1,10.2544,11.10645Z"/><path d="M10.2544,13.60059a2.758,2.758,0,0,1-1.34472-.32032,1.78177,1.78177,0,0,0-.91406-.22168,1.76863,1.76863,0,0,0-.91016.22168,2.75353,2.75353,0,0,1-1.34375.32032A2.7535,2.7535,0,0,1,4.398,13.28027a1.76863,1.76863,0,0,0-.91016-.22168.5.5,0,0,1,0-1,2.75346,2.75346,0,0,1,1.34375.32032,1.76866,1.76866,0,0,0,.91016.22168,1.76866,1.76866,0,0,0,.91016-.22168,2.75346,2.75346,0,0,1,1.34375-.32032,2.767,2.767,0,0,1,1.34668.32032,1.77381,1.77381,0,0,0,.9121.22168,1.77382,1.77382,0,0,0,.91211-.22168,2.76253,2.76253,0,0,1,1.34571-.32032.5.5,0,0,1,0,1,1.77382,1.77382,0,0,0-.91211.22168A2.76246,2.76246,0,0,1,10.2544,13.60059Z"/><path d="M10.2544,16a2.758,2.758,0,0,1-1.34472-.32031,1.78167,1.78167,0,0,0-.91406-.22168,1.76853,1.76853,0,0,0-.91016.22168A2.75355,2.75355,0,0,1,5.74171,16,2.75351,2.75351,0,0,1,4.398,15.67969,1.76853,1.76853,0,0,0,3.4878,15.458a.5.5,0,0,1,0-1,2.75348,2.75348,0,0,1,1.34375.32031A1.76866,1.76866,0,0,0,5.74171,15a1.76866,1.76866,0,0,0,.91016-.22168A2.75348,2.75348,0,0,1,7.99562,14.458a2.767,2.767,0,0,1,1.34668.32031A1.77381,1.77381,0,0,0,10.2544,15a1.77382,1.77382,0,0,0,.91211-.22168,2.76254,2.76254,0,0,1,1.34571-.32031.5.5,0,0,1,0,1,1.77372,1.77372,0,0,0-.91211.22168A2.76248,2.76248,0,0,1,10.2544,16Z"/></svg>