<svg xmlns="http://www.w3.org/2000/svg" viewBox="0 0 16 16" enable-background="new 0 0 16 16"><path d="m7.5 0c-4.1 0-7.5 3.4-7.5 7.5s3.4 7.5 7.5 7.5 7.5-3.4 7.5-7.5-3.4-7.5-7.5-7.5m-6.5 8h2c0 1 .2 2 .5 3h-1.5c-.6-.9-.9-1.9-1-3m7-5v-1.9c.9.4 1.6 1 2 1.9m.4 1c.4 1 .6 2 .6 3h-3v-3m-1-2.9v1.9h-2c.4-.9 1.1-1.6 2-1.9m0 2.9v3h-3c0-1 .2-2 .6-3m-1.6 3h-2c.1-1.1.4-2.1 1-3h1.5c-.3 1-.5 2-.5 3m1 1h3v3h-2.4c-.4-1-.6-2-.6-3m3 4v1.9c-.9-.4-1.6-1-2-1.9m3 1.9v-1.9h2c-.4.9-1.1 1.6-2 1.9m0-2.9v-3h3c0 1-.2 2-.6 3m1.6-3h2c-.1 1.1-.4 2.1-1 3h-1.5c.3-1 .5-2 .5-3m0-1c0-1-.2-2-.5-3h1.5c.6.9.9 1.9 1 3m-1.8-4h-1.1c-.2-.5-.5-.9-.8-1.4.7.4 1.3.8 1.9 1.4m-7.5-1.4c-.3.5-.6.9-.8 1.4h-1.1c.6-.6 1.2-1 1.9-1.4m-1.9 10.4h1.1c.2.5.5.9.8 1.4-.7-.4-1.3-.8-1.9-1.4m7.5 1.4c.3-.4.6-.9.8-1.4h1.1c-.6.6-1.2 1-1.9 1.4"/></svg>