
<!-- Generator: Adobe Illustrator 23.0.0, SVG Export Plug-In . SVG Version: 6.00 Build 0)  -->
<svg version="1.1" id="Layer_1" xmlns="http://www.w3.org/2000/svg" xmlns:xlink="http://www.w3.org/1999/xlink" x="0px" y="0px"
	 viewBox="0 0 16 16" style="enable-background:new 0 0 16 16;" xml:space="preserve">
<g>
	<path d="M8,5.47998L3.14001,7.53003v6.13995L8.02002,16l4.82996-2.46997v-6L8,5.47998z M7.75,15.09003l-3.85999-1.91003V8.25
		L7.75,9.89001V15.09003z M4.26001,7.85999L8,6.29999l3.78003,1.59003l-0.05005,0.01996l-3.70996,1.56L4.26001,7.85999z
		 M12.09998,13.08002l-3.81995,2.01001v-5.19l3.81995-1.61005V13.08002z"/>
	<polygon points="16,1 16,13 13.84998,12.56 13.84998,11.53998 14.98999,11.78003 14.98999,2.21997 11.98999,2.82001 
		11.98999,6.08002 10.98999,5.65997 10.98999,3 4.98999,3 5,5.65997 4,6.08002 3.98999,2.82001 0.98999,2.21997 0.98999,11.78003 
		2.14001,11.53998 2.14001,12.56 0,13 0,1 4.98999,2 10.98999,2 	"/>
</g>
</svg>
