<svg xmlns="http://www.w3.org/2000/svg" viewBox="0 0 16 16"><path d="M15.1,10.8a.736.736,0,0,1-.8.8H10.8a.7887.7887,0,0,1-.8-.8.736.736,0,0,1,.8-.8h3.5A.7887.7887,0,0,1,15.1,10.8Zm-.8-3.3H10.8A.7517.7517,0,1,0,10.7,9h3.5a.876.876,0,0,0,.9-.7A.7887.7887,0,0,0,14.3,7.5Zm-3.6-.9h3.5a.736.736,0,0,0,.8-.8.7133.7133,0,0,0-.7-.8H10.8a.8168.8168,0,0,0-.9.8A.7887.7887,0,0,0,10.7,6.6ZM9,8A4,4,0,1,1,5,4,4.0118,4.0118,0,0,1,9,8ZM4.5,6c0,.1.1.3.2.3a.4833.4833,0,0,0,.7,0A1.0073,1.0073,0,0,0,5.5,6a.6012.6012,0,0,0-.1-.4.4833.4833,0,0,0-.7,0A.7581.7581,0,0,0,4.5,6ZM6,10H5.5V7H4v.5h.5V10H4v.5H6Z"/></svg>