<svg xmlns="http://www.w3.org/2000/svg" viewBox="0 0 16 16"><path d="M0,14a1,1,0,0,0,1,1H15a1,1,0,0,0,1-1V5H0Z" fill="#f6d97a"/><path d="M16,4V5H0V2A1,1,0,0,1,1,1H5.1716a2,2,0,0,1,1.4142.5858L8,3h7A1,1,0,0,1,16,4ZM1,7H9V6H1ZM1,9H7V8H1Z" fill="#e7b93a"/><rect x="9.5" y="8.5" width="6" height="6" rx="1.0459" ry="1.0459" fill="#fff"/><rect x="10" y="9" width="5" height="5" rx="0.5456" ry="0.5456" fill="#52b041"/><path d="M13.1075,10.9642l.0048.0014-.4679.5634v.001l.4347.1252.2063.0593.9611-1.1583.0123-.0129.45.1185-.2508-.8161-1.3008.4008.4405.1235-.0369.0418Zm-1.0323,1.1633-.0049-.0014.4626-.557.0058-.007-.6414-.1842-.9707,1.17-.02-.0035-.4329-.114.2508.816,1.3008-.4008-.441-.1237.0376-.0417Zm1.99-.1263-.0209-.0051-.9829-.2831-.46-.1322-.0179.0215-.404.4929,1.39.4089.0471.0117-.2948.35,1.3009-.4008-.2521-.8158Zm-2.9491-.91.0215.0043,1.4185.4087.0241.0069.0126-.0152.4094-.4994-1.39-.4089-.0469-.0118.2946-.35-1.3008.4009.252.8158Z" fill="#006838"/><path d="M13.0144,10.8334l.0049.0014-.4679.5634v.0006l.4347.1252.2063.0593.9611-1.1583.0123-.0129.45.1185-.2508-.8161-1.3008.4009.4406.1234-.037.0418Zm-1.0323,1.1633-.0048-.0014.4626-.557.0057-.007-.6414-.1842-.9706,1.17-.02-.0035-.4329-.114.2508.816,1.3008-.4008-.441-.1237.0376-.0417Zm1.99-.1263-.0209-.0051-.9829-.2831-.46-.1321-.0178.0214-.4041.4929,1.39.4089.0472.0117-.2948.35,1.3008-.4008-.252-.8158Zm-2.9491-.91.0216.0043,1.4185.4087.024.0069.0126-.0152.4094-.4994-1.39-.4089-.0469-.0118.2946-.35-1.3008.4009.2521.8158Z" fill="#fff"/></svg>