
<!-- Generator: Adobe Illustrator 23.1.0, SVG Export Plug-In . SVG Version: 6.00 Build 0)  -->
<svg version="1.1" id="Layer_1" xmlns="http://www.w3.org/2000/svg" xmlns:xlink="http://www.w3.org/1999/xlink" x="0px" y="0px"
	 viewBox="0 0 32 32" style="enable-background:new 0 0 32 32;" xml:space="preserve">
<path d="M31.7,18.9c-0.5-0.9-1.8-1.3-2.8-0.8l-4.7,2.6c-0.14,2.63-2.3,2.6-2.4,2.6c-0.5,0-1-0.2-1.5-0.5l-4.6-3.7
	c-0.2-0.2-0.22-0.47-0.1-0.7c0.13-0.21,0.59-0.22,0.79-0.02L20.9,22c1.75,1.19,3.18-1.18,1.5-2.4L16.7,15c-0.1,0-1.81-1.62-4.5-0.2
	c-0.4077,0.2039-5.3753,2.8591-6.1033,3.2482L6.02,17.9115c-0.2304-0.4113-0.6086-0.7086-1.0651-0.8373
	c-0.457-0.1305-0.9343-0.0718-1.345,0.1581L1.1863,18.592c-0.8514,0.4775-1.1558,1.5588-0.6782,2.4102l4.7016,8.3849
	c0.3204,0.5712,0.9127,0.8964,1.5251,0.9041c0.3001,0.0038,0.6049-0.0696,0.885-0.2258l2.4236-1.3598
	c0.8514-0.4766,1.1558-1.5579,0.6787-2.4102l-0.1639-0.2922C10.9033,25.7932,11.7211,25.3,11.8,25.3c0,0,4.9,3.6,5.6,3.6
	c0.3,0,0.6-0.1,1-0.3l12.5-6.9c0.5-0.3,0.9-0.7,1-1.3C32.1,20,32,19.4,31.7,18.9z M9.6072,27.9284v-0.0009l-2.4236,1.3598
	c-0.4238,0.2334-0.9587,0.0848-1.1957-0.3372l-4.7016-8.3849c-0.237-0.4221-0.0858-0.9587,0.3363-1.1948l2.4236-1.3597
	c0.1351-0.0755,0.285-0.1131,0.4366-0.1112c0.0767,0.001,0.1542,0.0118,0.2307,0.0334c0.2267,0.0638,0.4142,0.2107,0.5283,0.415
	l4.7021,8.384C10.1805,27.1548,10.0293,27.6914,9.6072,27.9284z"/>
<circle cx="27" cy="11" r="3"/>
<circle cx="23" cy="5" r="3"/>
<circle cx="19" cy="11" r="3"/>
</svg>
