<svg id="Calque_1" data-name="Calque 1" xmlns="http://www.w3.org/2000/svg" viewBox="0 0 16 16"><path d="M14.0398,6.89412A3.11228,3.11228,0,0,1,11.3,2.67615a3.573,3.573,0,0,1,.273-.53667l.44254-.68729-.80969-.0377A4.02075,4.02075,0,0,0,7.23266,3.99424a3.75957,3.75957,0,0,0-.25423,1.09219v.00942A2.60142,2.60142,0,0,0,5.29314,6.48928a1.69578,1.69578,0,0,0-.64965-.13183,1.73791,1.73791,0,0,0-1.77,1.53468,2.38017,2.38017,0,0,0-1.71357,2.34436A2.50334,2.50334,0,0,0,3.66434,12.741h6.42114a2.50333,2.50333,0,0,0,2.50441-2.50447,2.41156,2.41156,0,0,0-.20711-.98858,4.00464,4.00464,0,0,0,2.03365-1.6288l.4237-.67792Zm-2.39143,3.34237a1.56507,1.56507,0,0,1-1.56289,1.563H3.66434a1.55907,1.55907,0,0,1-1.563-1.563,1.45368,1.45368,0,0,1,1.2993-1.497L3.80553,8.683V8.071a.78641.78641,0,0,1,.838-.77205.91545.91545,0,0,1,.57431.23538l.48019.35778.23538-.5461A2.02934,2.02934,0,0,1,7.00671,6.075a2.03808,2.03808,0,0,1,.84738-.15062h.09413a2.09051,2.09051,0,0,1,2.06193,2.27845v.64023l.43311.02827a1.24571,1.24571,0,0,1,.998.5931A1.47678,1.47678,0,0,1,11.64837,10.23649Zm.14125-1.78884a2.15154,2.15154,0,0,0-.84738-.44255A2.96268,2.96268,0,0,0,7.9388,4.98288a2.76009,2.76009,0,0,1,.16947-.64965,3.06941,3.06941,0,0,1,2.28787-1.93016,4.05933,4.05933,0,0,0,2.34442,5.169c.13177.04707.2636.09413.40485.13177A3.20538,3.20538,0,0,1,11.78962,8.44765Z"/><path d="M3.65848,13.26338a.42385.42385,0,0,0-.54685.236l-.76636,1.92417a.42177.42177,0,0,0,.236.54685A.4313.4313,0,0,0,2.73667,16a.42155.42155,0,0,0,.3914-.26561l.76642-1.92417A.4218.4218,0,0,0,3.65848,13.26338Z"/><path d="M5.86061,13.26338a.42414.42414,0,0,0-.54684.236l-.76555,1.92417a.42176.42176,0,0,0,.23595.54685A.4313.4313,0,0,0,4.93961,16a.42149.42149,0,0,0,.3914-.26561l.76556-1.92417A.42173.42173,0,0,0,5.86061,13.26338Z"/><path d="M8.06356,13.26338a.42414.42414,0,0,0-.54685.236L6.7503,15.42356a.42183.42183,0,0,0,.236.54685A.43106.43106,0,0,0,7.14175,16a.42155.42155,0,0,0,.3914-.26561l.76642-1.92417A.4218.4218,0,0,0,8.06356,13.26338Z"/><path d="M10.19082,13.26338a.42378.42378,0,0,0-.54679.236l-.76561,1.92417a.42184.42184,0,0,0,.236.54685A.43106.43106,0,0,0,9.26987,16a.42155.42155,0,0,0,.3914-.26561l.76556-1.92417A.42175.42175,0,0,0,10.19082,13.26338Z"/></svg>