<svg id="Calque_1" data-name="Calque 1" xmlns="http://www.w3.org/2000/svg" viewBox="0 0 16 16"><path d="M9.65129,1.82729a.316.316,0,0,0,.31506-.31506V.31506a.31507.31507,0,0,0-.63013,0V1.51223A.316.316,0,0,0,9.65129,1.82729Z"/><path d="M7.04294,2.69143a.31508.31508,0,0,0,.44559-.44558L6.642,1.39933a.31508.31508,0,1,0-.44559.44559Z"/><path d="M5.058,5.14681H6.25514a.31506.31506,0,1,0,0-.63012H5.058a.31506.31506,0,0,0,0,.63012Z"/><path d="M12.183,7.04875a.31508.31508,0,1,0-.44559.44559l.84657.84657a.31508.31508,0,0,0,.44559-.44559Z"/><path d="M14.168,4.59337H12.9708a.31507.31507,0,0,0,0,.63013H14.168a.31507.31507,0,1,0,0-.63013Z"/><path d="M12.23725,2.74562l.84651-.84657a.31506.31506,0,0,0-.44553-.44559L11.79166,2.3a.31508.31508,0,0,0,.44559.44559Z"/><path d="M12.00062,8.5531a2.122,2.122,0,0,0-.83574-.43646A3.53457,3.53457,0,0,0,10.942,7.03951l.00929-.00929a2.511,2.511,0,1,0-3.80716-2.145,2.6645,2.6645,0,0,0,.02783.39,2.54214,2.54214,0,0,0-1.5786,1.34646,1.67229,1.67229,0,0,0-.64066-.13A1.714,1.714,0,0,0,3.207,8.00521a2.34742,2.34742,0,0,0-1.69,2.31216,2.46894,2.46894,0,0,0,2.47,2.47006h6.33293a2.46889,2.46889,0,0,0,2.47-2.47006,2.37747,2.37747,0,0,0-.20426-.975A2,2,0,0,0,12.00062,8.5531ZM9.65134,3.2973a1.58519,1.58519,0,0,1,1.57855,1.5879,1.55979,1.55979,0,0,1-.73356,1.32786A2.81272,2.81272,0,0,0,8.20276,5.13593H8.09128a2.2884,2.2884,0,0,1-.01854-.25073A1.58523,1.58523,0,0,1,9.65134,3.2973Zm.66855,8.56155H3.987a1.53764,1.53764,0,0,1-1.54142-1.54148A1.43366,1.43366,0,0,1,3.727,8.841l.39928-.05571v-.6036a.77562.77562,0,0,1,.82646-.76145.903.903,0,0,1,.56642.23215l.47358.35286.23215-.53853A2.00116,2.00116,0,0,1,7.28342,6.21306a1.682,1.682,0,0,1,.195-.0743,2.64126,2.64126,0,0,1,.64072-.07425H8.212a3.48966,3.48966,0,0,1,.47358.05571,1.87683,1.87683,0,0,1,.715.325,1.82758,1.82758,0,0,1,.66855.91929,2.59267,2.59267,0,0,1,.17643.94717v.63143l.42717.02788a1.22829,1.22829,0,0,1,.98429.585,1.45554,1.45554,0,0,1,.20426.76138A1.54357,1.54357,0,0,1,10.31989,11.85885Z"/><path d="M3.9779,13.301a.418.418,0,0,0-.53933.23277l-.75589,1.89774a.416.416,0,0,0,.23277.53933A.42511.42511,0,0,0,3.06876,16a.41583.41583,0,0,0,.386-.262l.75583-1.89774A.416.416,0,0,0,3.9779,13.301Z"/><path d="M6.14972,13.301a.41826.41826,0,0,0-.53927.23277l-.75509,1.89774a.416.416,0,0,0,.23276.53933A.42519.42519,0,0,0,5.24143,16a.41575.41575,0,0,0,.386-.262l.755-1.89774A.416.416,0,0,0,6.14972,13.301Z"/><path d="M8.3224,13.301a.41826.41826,0,0,0-.53927.23277l-.75589,1.89774a.416.416,0,0,0,.23277.53933A.42515.42515,0,0,0,7.41332,16a.41583.41583,0,0,0,.386-.262l.75583-1.89774A.416.416,0,0,0,8.3224,13.301Z"/><path d="M10.42049,13.301a.418.418,0,0,0-.53933.23277l-.755,1.89774a.416.416,0,0,0,.23276.53933A.42519.42519,0,0,0,9.5122,16a.41581.41581,0,0,0,.386-.262l.755-1.89774A.416.416,0,0,0,10.42049,13.301Z"/></svg>