<svg viewBox="0 0 16 16" xmlns="http://www.w3.org/2000/svg"><path d="m7 3.375 2.77521 4.16284a4.98243 4.98243 0 0 0 -.56928.33716h-3.00482l-.35559-.48016-.80286-1.08384zm-4.27319 5.625h5.2937a4.99127 4.99127 0 0 1 .69714-.75h-6.71765zm4.304 2.44568c.017-.153.06378-.29663.09412-.44568h-3.37493l-2.75-2.75v-4.5l2.75-2.75h4.5l2.75 2.75v3.36273a4.95006 4.95006 0 0 1 .99756-.11273l.00244.00012v-6.25012a.75.75 0 0 0 -.75-.75h-10.5a.75.75 0 0 0 -.75.75v10.5a.75.75 0 0 0 .75.75h6.2652a5.01355 5.01355 0 0 1 .01556-.55432zm-5.03081-3.57068h3.33331l-1.66662-2.25zm14 4.111-.00226-.00226a3.99868 3.99868 0 0 1 -3.99847 3.99884h-.00141a4.00206 4.00206 0 0 1 -1.69686-.37758 4.5657 4.5657 0 0 1 -1.76226.3941l-.02189.0009a.25671.25671 0 0 1 -.2035-.413 3.268 3.268 0 0 0 .56342-1.09229 3.99891 3.99891 0 1 1 7.12323-2.50871zm-1 .014a3 3 0 1 0 -3 3 3 3 0 0 0 3-3zm-4.99862-.00068a.50017.50017 0 1 0 .50017-.49987.5.5 0 0 0 -.50017.49987zm1.50051 0a.50017.50017 0 1 0 .50017-.49987.5.5 0 0 0 -.50017.49987zm1.5005 0a.50017.50017 0 1 0 .50017-.49987.5.5 0 0 0 -.50017.49987z"/></svg>