<svg xmlns="http://www.w3.org/2000/svg" viewBox="0 0 16 16"><path d="M7.1,13H4a1,1,0,0,1-1-1V9A1,1,0,0,1,4,8H9a4.93,4.93,0,0,1,5-.58V0H0V12l2,2H7.42A5,5,0,0,1,7.1,13ZM2,6.5v-5A.5.5,0,0,1,2.5,1h9a.5.5,0,0,1,.5.5v5a.5.5,0,0,1-.5.5h-9A.5.5,0,0,1,2,6.5Z"/><path d="M5 9a1 1 0 0 1 1 1v1a1 1 0 1 1 -2 0V10A1 1 0 0 1 5 9"/><path d="M9.05,12.5H8V15l.75-.7A3.87,3.87,0,0,0,12,16,4,4,0,0,0,16,12.5H15A3,3,0,0,1,12,15a3,3,0,0,1-2.5-1.35l1.2-1.15Z"/><path d="M12 8a4 4 0 0 0 -3.95 3.5h1A3 3 0 0 1 12 9a2.86 2.86 0 0 1 2.55 1.45L13.5 11.5H16V9l-.7.7A4.16 4.16 0 0 0 12 8"/></svg>