<svg id="Calque_1" data-name="Calque 1" xmlns="http://www.w3.org/2000/svg" viewBox="0 0 16 16"><polygon class="cls-1" points="4.69 8 3 9.69 3 8 4.69 8"/><polygon class="cls-1" points="13 8 13 16 3 16 3 15.31 10.31 8 13 8"/><polygon points="3 2 10.69 2 6.69 6 3 6 3 2"/><polygon points="13 5.31 13 6 12.31 6 13 5.31"/><rect x="3" width="2" height="1"/><polygon points="0 2 1 2 1 1 2 1 2 0 0 0 0 2"/><polygon points="16 3 16 5 15 5 15 3.31 15.31 3 16 3"/><polygon points="5 7 5 7.69 4.69 8 3 8 3 7 5 7"/><polygon points="1 6 0 6 0 8 2 8 2 7 1 7 1 6"/><rect y="3" width="1" height="2"/><rect x="7" width="2" height="1"/><polygon points="13 7 13 8 11 8 11 7.31 11.31 7 13 7"/><polygon points="12.69 0 11.69 1 11 1 11 0 12.69 0"/><polygon points="15 7 14 7 14 8 16 8 16 6 15 6 15 7"/><rect x="0.15429" y="6.50688" width="15.69142" height="1.98625" transform="translate(-2.96016 7.85355) rotate(-45)"/></svg>