<svg viewBox="0 0 16 16" xmlns="http://www.w3.org/2000/svg"><path d="m4 6.25a1.46362 1.46362 0 0 1 .04388-.272l1.49964-.74982a1.32035 1.32035 0 0 1 .45648 1.02182 1.14617 1.14617 0 0 1 -1 1.25 1.14617 1.14617 0 0 1 -1-1.25zm7 1.25a1.14617 1.14617 0 0 0 1-1.25 1.46362 1.46362 0 0 0 -.04388-.272l-1.49964-.74982a1.32035 1.32035 0 0 0 -.45648 1.02182 1.14617 1.14617 0 0 0 1 1.25zm-3 1a4.94433 4.94433 0 0 0 -4.75391 3.34375.49967.49967 0 0 0 .94922.3125 3.94955 3.94955 0 0 1 3.80469-2.65625 3.94955 3.94955 0 0 1 3.80469 2.65625.49969.49969 0 0 0 .47461.34375.48458.48458 0 0 0 .15625-.02539.49911.49911 0 0 0 .31836-.63086 4.94433 4.94433 0 0 0 -4.75391-3.34375zm8-.5a8 8 0 1 1 -8-8 8 8 0 0 1 8 8zm-1 0a7 7 0 1 0 -7 7 7.00794 7.00794 0 0 0 7-7z"/></svg>