
<!-- Generator: Adobe Illustrator 23.0.0, SVG Export Plug-In . SVG Version: 6.00 Build 0)  -->
<svg version="1.1" id="Calque_1" xmlns="http://www.w3.org/2000/svg" xmlns:xlink="http://www.w3.org/1999/xlink" x="0px" y="0px"
	 viewBox="0 0 16 16" style="enable-background:new 0 0 16 16;" xml:space="preserve">
<path d="M8,0C3.58,0,0,3.58,0,8s3.58,8,8,8s8-3.58,8-8S12.42,0,8,0z M10.46,5.23l1.5,0.75c0.02,0.09,0.03,0.18,0.04,0.27
	c0.06,0.62-0.38,1.17-1,1.25c-0.62-0.08-1.06-0.63-1-1.25C9.99,5.86,10.16,5.48,10.46,5.23z M4.04,5.98l1.5-0.75
	C5.84,5.48,6.01,5.86,6,6.25C6.06,6.87,5.62,7.42,5,7.5C4.38,7.42,3.94,6.87,4,6.25C4.01,6.16,4.02,6.07,4.04,5.98z M12.44,12.47
	c-0.05,0.02-0.11,0.03-0.16,0.03c-0.22,0-0.41-0.14-0.48-0.34C11.25,10.54,9.71,9.47,8,9.5c-1.71-0.03-3.25,1.04-3.8,2.66
	c-0.09,0.26-0.37,0.4-0.63,0.31C3.3,12.39,3.16,12.11,3.25,11.84C3.94,9.82,5.86,8.47,8,8.5h0.07c2.11,0,4,1.34,4.68,3.34
	C12.84,12.11,12.7,12.39,12.44,12.47z"/>
</svg>
