
<!-- Generator: Adobe Illustrator 23.0.0, SVG Export Plug-In . SVG Version: 6.00 Build 0)  -->
<svg version="1.1" id="Calque_1" xmlns="http://www.w3.org/2000/svg" xmlns:xlink="http://www.w3.org/1999/xlink" x="0px" y="0px"
	 viewBox="0 0 16 16" style="enable-background:new 0 0 16 16;" xml:space="preserve">
<path d="M8,0C3.58,0,0,3.58,0,8s3.58,8,8,8s8-3.58,8-8S12.42,0,8,0z M5,5c0.62,0.08,1.06,0.63,1,1.25C6.06,6.87,5.62,7.42,5,7.5
	C4.38,7.42,3.94,6.87,4,6.25C3.94,5.63,4.38,5.08,5,5z M11.5,11h-7C4.22,11,4,10.78,4,10.5S4.22,10,4.5,10h7
	c0.28,0,0.5,0.22,0.5,0.5S11.78,11,11.5,11z M11,7.5c-0.62-0.08-1.06-0.63-1-1.25C9.94,5.63,10.38,5.08,11,5
	c0.62,0.08,1.06,0.63,1,1.25C12.06,6.87,11.62,7.42,11,7.5z"/>
</svg>
