<svg xmlns="http://www.w3.org/2000/svg" viewBox="0 0 16 16"><path d="M5,9a.9448.9448,0,0,1,1,1v3a.9448.9448,0,0,1-1,1H2a.9448.9448,0,0,1-1-1V10A.9448.9448,0,0,1,2,9H5M5,8H2a2.0059,2.0059,0,0,0-2,2v3a2.0059,2.0059,0,0,0,2,2H5a2.0059,2.0059,0,0,0,2-2V10A2.0059,2.0059,0,0,0,5,8Z"/><path d="M11.5,9a.4724.4724,0,0,1,.5.5v2a.4724.4724,0,0,1-.5.5h-2a.4724.4724,0,0,1-.5-.5v-2A.4724.4724,0,0,1,9.5,9h2m0-1h-2A1.538,1.538,0,0,0,8,9.5v2A1.538,1.538,0,0,0,9.5,13h2A1.538,1.538,0,0,0,13,11.5v-2A1.538,1.538,0,0,0,11.5,8Z"/><path d="M5.5,3a.4724.4724,0,0,1,.5.5v2a.4724.4724,0,0,1-.5.5h-2A.4724.4724,0,0,1,3,5.5v-2A.4724.4724,0,0,1,3.5,3h2m0-1h-2A1.538,1.538,0,0,0,2,3.5v2A1.538,1.538,0,0,0,3.5,7h2A1.538,1.538,0,0,0,7,5.5v-2A1.538,1.538,0,0,0,5.5,2Z"/><path d="M13,1a.9448.9448,0,0,1,1,1V5a.9448.9448,0,0,1-1,1H10A.9448.9448,0,0,1,9,5V2a.9448.9448,0,0,1,1-1h3m0-1H10A2.0059,2.0059,0,0,0,8,2V5a2.0059,2.0059,0,0,0,2,2h3a2.0059,2.0059,0,0,0,2-2V2A2.0059,2.0059,0,0,0,13,0Z"/></svg>