
<!-- Generator: Adobe Illustrator 24.2.0, SVG Export Plug-In . SVG Version: 6.00 Build 0)  -->
<svg version="1.1" id="Calque_1" xmlns="http://www.w3.org/2000/svg" xmlns:xlink="http://www.w3.org/1999/xlink" x="0px" y="0px"
	 viewBox="0 0 16 16" style="enable-background:new 0 0 16 16;" xml:space="preserve">
<path d="M8,6.9L0,9.2v3.4L8,16l8-3.4V9.2L8,6.9z M8,7.9l6.2,1.8L8,12.2L1.8,9.7L8,7.9z M1,10.4l6.5,2.6v1.6L1,11.9V10.4z M8.5,14.7
	v-1.6l6.5-2.6v1.4L8.5,14.7z M8,1l5.2,1.6L7.9,4.9L2.8,2.6L8,1 M8,0L0,2.5L7.9,6L16,2.5L8,0z"/>
</svg>
