<svg xmlns="http://www.w3.org/2000/svg" viewBox="0 0 16 16" enable-background="new 0 0 16 16"><path d="m15.7 7.3l-7-7c-.4-.4-1-.4-1.4 0l-7 7c-.4.4-.4 1 0 1.4l7 7c.4.4 1 .4 1.4 0l7-7c.4-.4.4-1 0-1.4m-11 1.7c-.4 0-.7-.3-.7-.7s.3-.7.7-.7c.3.1.6.4.6.7s-.3.7-.6.7m1.2 2c-.3 0-.6-.3-.6-.6 0-.3.3-.6.6-.6s.6.3.6.6c0 .3-.3.6-.6.6m-.1-4c-.5 0-.8-.3-.8-.7 0-.4.3-.7.7-.7.4 0 .7.3.7.7.1.4-.2.7-.6.7m2.2 5c-.3 0-.5-.2-.5-.5 0-.3.2-.5.5-.5s.5.2.5.5c0 .3-.2.5-.5.5m0-6c-.5 0-1-.4-1-1s.4-1 1-1 1 .4 1 1-.5 1-1 1m1.9 4.3c-.2 0-.4-.2-.4-.4 0-.2.2-.4.4-.4.2 0 .4.2.4.4 0 .2-.2.4-.4.4m.5-3.6c-.1 0-.2-.1-.2-.2s.1-.2.2-.2c.1 0 .2.1.2.2s-.1.2-.2.2m.6 2c-.2 0-.3-.1-.3-.3 0-.3.1-.4.3-.4.2 0 .3.1.3.3 0 .2-.1.4-.3.4"/></svg>