<svg xmlns="http://www.w3.org/2000/svg" viewBox="0 0 16 16"><path d="M0,.59a.6005.6005,0,0,1,.6062-.591H14.3974a.6005.6005,0,0,1,.6062.591V3.4034c0,.325-.1825.591-.4053.591a.88.88,0,0,1-.6495-.5408L13.4235,2.51a1.0129,1.0129,0,0,0-.85-.5408H9.59a.6005.6005,0,0,0-.6062.591V13.8287a.8482.8482,0,0,0,.5808.761l1.8655.372a.7625.7625,0,0,1,.5807.6044c0,.239-.2727.4347-.6061.4347H3.6c-.3334,0-.6061-.1957-.6061-.4347a.7625.7625,0,0,1,.5807-.6044l1.834-.372a.8482.8482,0,0,0,.5807-.761V2.56a.6005.6005,0,0,0-.6062-.591H2.4312a1.0133,1.0133,0,0,0-.8506.5411l-.5249.9438a.88.88,0,0,1-.65.5411c-.223,0-.4058-.266-.4058-.591V.59Z"/></svg>