<svg id="Calque_1" data-name="Calque 1" xmlns="http://www.w3.org/2000/svg" viewBox="0 0 16 16"><title>three-points-circular-arc</title><path d="M14.50665,13.00067,14.13,11.76l-.95.28.39081,1.30261a1.491,1.491,0,0,0-.55475.99793A9.9149,9.9149,0,0,1,4.855,12.13385a1.48385,1.48385,0,0,0-1.78491-2.06378L3.07,10.07A10.33259,10.33259,0,0,1,1.68988,2.9809a1.48791,1.48791,0,0,0,.9917-.5871L3.82,2.73l.27-.96-1.0954-.32349A1.49773,1.49773,0,1,0,.71,2.77026a11.46418,11.46418,0,0,0,1.538,7.90613A1.49413,1.49413,0,0,0,4.1413,12.85095,10.857,10.857,0,0,0,11.29,15.49a10.72049,10.72049,0,0,0,1.95-.18l.00055-.00012a1.49875,1.49875,0,1,0,1.26611-2.30921ZM1,1.5a.5.5,0,1,1,.5.5A.50057.50057,0,0,1,1,1.5ZM3.5,12a.5.5,0,1,1,.5-.5A.50057.50057,0,0,1,3.5,12Zm11,3a.5.5,0,1,1,.5-.5A.50057.50057,0,0,1,14.5,15Z"/><polygon points="6.45 2.46 5.33 2.13 5.06 3.09 6.18 3.42 6.45 2.46"/><polygon points="8.81 3.15 7.68 2.82 7.41 3.78 8.54 4.12 8.81 3.15"/><polygon points="11.38 6.11 12.34 5.83 11.8 4.03 10.04 3.51 9.77 4.48 11 4.84 11.38 6.11"/><polygon points="12.09 8.46 13.05 8.19 12.71 7.06 11.75 7.33 12.09 8.46"/><polygon points="12.8 10.81 13.76 10.53 13.42 9.41 12.47 9.69 12.8 10.81"/></svg>