
<!-- Generator: Adobe Illustrator 21.1.0, SVG Export Plug-In . SVG Version: 6.00 Build 0)  -->
<svg version="1.1" id="Layer_1" xmlns="http://www.w3.org/2000/svg" xmlns:xlink="http://www.w3.org/1999/xlink" x="0px" y="0px"
	 viewBox="0 0 16 16" style="enable-background:new 0 0 16 16;" xml:space="preserve">
<polygon points="8,7.4 10.4,10.5 5.6,10.5 "/>
<path d="M16,7.4c0,1.7-1.4,3.1-3.1,3.1h-1.4L8,5.9l-3.5,4.6H3.1C1.4,10.5,0,9.1,0,7.4c0-1.6,1.1-2.8,2.6-3V4.1c0-1.1,0.9-1.9,2-1.9
	c0.5,0,0.9,0.2,1.3,0.5c0.6-1.4,1.4-2.6,3.6-2.6c2.7,0,4,2,4,4.2v0.3C14.9,4.7,16,5.8,16,7.4z"/>
<g>
	<path d="M10.4,10.5L8,7.4l-2.4,3.1l-0.8,1h1.6v3.6h3.1v-3.6h1.6L10.4,10.5z"/>
</g>
<g>
	<path d="M10.4,10.5L8,7.4l-2.4,3.1l-0.8,1h1.6v3.6h3.1v-3.6h1.6L10.4,10.5z"/>
</g>
</svg>
