<svg xmlns="http://www.w3.org/2000/svg" viewBox="0 0 16 16"><path d="M15.95435,12.34247l-1.01386-2.24518a.43416.43416,0,0,0-.22534-.21906l-1.58942-.82147h-.11267a2.5633,2.5633,0,0,1-1.512.563,2.16044,2.16044,0,0,1-.68427-.12189l1.033,2.2873.01935.04278.0152.04444a1.74586,1.74586,0,0,1,.01477,1.12725h3.60473a.51727.51727,0,0,0,.45057-.219A.58457.58457,0,0,0,15.95435,12.34247Z"/><path d="M11.49218,8.78478a2.23541,2.23541,0,0,0,2.02787-2.39239C13.52005,4.56961,12.61881,4,11.49218,4s-2.02781.56961-2.02781,2.39239A2.23541,2.23541,0,0,0,11.49218,8.78478Z"/><path d="M10.93836,12.19677,9.69912,9.45255a.53048.53048,0,0,0-.27542-.26778l-1.94265-1.004H7.34331a3.13343,3.13343,0,0,1-1.84812.68811,3.19589,3.19589,0,0,1-1.86964-.68811H3.48782l-1.92777,1.004a.53052.53052,0,0,0-.27542.26778L.04539,12.19677a.71432.71432,0,0,0,0,.53553A.63226.63226,0,0,0,.59611,13h9.7915a.63233.63233,0,0,0,.55075-.2677A.71423.71423,0,0,0,10.93836,12.19677Z"/><path d="M5.48439,7.84828A2.73227,2.73227,0,0,0,7.963,4.92414C7.963,2.69621,6.86143,2,5.48439,2s-2.47852.69621-2.47852,2.92414A2.73226,2.73226,0,0,0,5.48439,7.84828Z"/></svg>