<svg xmlns="http://www.w3.org/2000/svg" viewBox="0 0 16 16"><path d="M12,1a1,1,0,0,0-1-1H1A1,1,0,0,0,0,1V12a1,1,0,0,0,1,1H2V12H1V1H11V2h1Z"/><path d="M5.5,5h7a.5.5,0,0,1,0,1h-7a.5.5,0,0,1,0-1Z"/><path d="M5.5,11h5a.5.5,0,0,1,0,1h-5a.5.5,0,0,1,0-1Z"/><path d="M5.5,9h7a.5.5,0,0,1,0,1h-7a.5.5,0,0,1,0-1Z"/><path d="M5.5,7h6a.5.5,0,0,1,0,1h-6a.5.5,0,0,1,0-1Z"/><path d="M5.5,13h6a.5.5,0,0,1,0,1h-6a.5.5,0,0,1,0-1Z"/><path d="M4,4V15H14V4ZM14,3a1,1,0,0,1,1,1V15a1,1,0,0,1-1,1H4a1,1,0,0,1-1-1V4A1,1,0,0,1,4,3Z"/></svg>