<svg xmlns="http://www.w3.org/2000/svg" viewBox="0 0 16 16"><path d="M12.5,11a2.49,2.49,0,0,0-1.8.77,4.67,4.67,0,0,0-.59-.38c-.33-.17-.53-.71-.89-1.39a4.49,4.49,0,0,0,.55-.69c.74-1.16,4.43-7.06,4.93-7.86S14.89.24,14.55,0c0,0-6.34,8.27-6.55,8C6.32,5.89,1.45,0,1.45,0,1.11.24.79.65,1.3,1.45s4.18,6.7,4.93,7.86a4.49,4.49,0,0,0,.55.69c-.36.68-.56,1.22-.89,1.39a4.67,4.67,0,0,0-.59.38,2.5,2.5,0,1,0,.4,2.89h0l0-.1.06-.12a17.51,17.51,0,0,1,1.51-2.7A4.59,4.59,0,0,1,8,11.06a4.54,4.54,0,0,1,.68.67,17.55,17.55,0,0,1,1.51,2.73v0l.07.15h0A2.5,2.5,0,1,0,12.5,11Zm-9,4A1.5,1.5,0,1,1,5,13.5,1.5,1.5,0,0,1,3.5,15Zm9,0A1.5,1.5,0,1,1,14,13.5,1.5,1.5,0,0,1,12.5,15Z"/></svg>