<svg xmlns="http://www.w3.org/2000/svg" viewBox="0 0 16 16"><path d="m7.8 7.804l-2.622.624 2.813 1.065 2.72-1.065"/><path d="M11,8.9357v3.3724L8,14V10Z"/><path d="m4.81 8.936v3.372l2.626 1.689v-4.03"/><path d="M4.231 8.6461a.6748 .6748 0 0 1 .5177 -.6547l1.822-.421c.045-.011.447-.112.493-.112 0-.263.001-.216.001-.436a6.2194 6.2194 0 0 1 -2.5295 .5381A6.2461 6.2461 0 0 1 2 7.0232v4.64c0 .302 1.204.557 2.231.642"/><path d="m4.532 4.989c1.398 0 2.532.378 2.532.844s-1.134.844-2.532.844-2.532-.378-2.532-.844 1.134-.844 2.532-.844"/><path d="M12,4V15H1V4H12m1-1H0V16H13V3Z"/><path d="m14 11.09l2-7.71-2-.553v1.038l.785.217-.785 3.02v3.984"/><path d="m4.287 2l.199-.766 2.771.766h3.753l-7.237-2-.519 2h1.033"/></svg>