<svg id="Calque_1" data-name="Calque 1" xmlns="http://www.w3.org/2000/svg" viewBox="0 0 16 16"><path d="M14.74,13.02l-1.5-8.23A1.453,1.453,0,0,0,14,3.5,1.498,1.498,0,0,0,12.5,2a1.453,1.453,0,0,0-1.29.76L2.98,1.26A1.49968,1.49968,0,1,0,1.5,3a1.453,1.453,0,0,0,1.29-.76l2.26.41h.01A7.426,7.426,0,0,0,7.2,8.8,7.43092,7.43092,0,0,0,12.49,11a8.43486,8.43486,0,0,0,.86-.05l.41,2.26A1.45308,1.45308,0,0,0,13,14.5a1.5,1.5,0,1,0,1.74-1.48ZM1.5,2A.5.5,0,1,1,2,1.5.49514.49514,0,0,1,1.5,2Zm11,1a.5.5,0,1,1-.5.5A.49511.49511,0,0,1,12.5,3Zm-.01,7A6.48145,6.48145,0,0,1,6.04,2.83l4.98.91a1.48538,1.48538,0,0,0,1.24,1.24l.91,4.98C12.94,9.98,12.72,10,12.49,10Zm2.01,5a.5.5,0,1,1,.5-.5A.49514.49514,0,0,1,14.5,15Z"/></svg>