<svg viewBox="0 0 16 16" xmlns="http://www.w3.org/2000/svg"><path d="m7 9h1.02264a4.95313 4.95313 0 0 1 5.97736-1.57788v-5.92212a1.5 1.5 0 0 0 -1.5-1.5h-11a1.5 1.5 0 0 0 -1.5 1.5v6a1.50007 1.50007 0 0 0 1.5 1.5h2.5v3zm-4.5-7h9a.5.5 0 0 1 0 1h-9a.5.5 0 0 1 0-1zm0 2h9a.5.5 0 0 1 0 1h-9a.5.5 0 0 1 0-1zm0 3a.5.5 0 0 1 0-1h4a.5.5 0 0 1 0 1zm12.48734 4.00375-.20253-.36045v-.05006c.4557-1.00125.40506-1.07134.35443-1.17146l-.60759-.5607a.17291.17291 0 0 0 -.10127-.05007c-.05063 0-.1519 0-1.01266.41052h-.05063l-.40506-.1602v-.06008c-.4557-1.00125-.50633-1.00125-.6076-1.00125h-.86076c-.10127 0-.1519 0-.557 1.07134v.05006l-.35443.10013a6.57475 6.57475 0 0 0 -1.01262-.41053s-.10127 0-.10127.05007l-.60759.61076c0 .10013-.10127.10013.35443 1.1214v.05006l-.20253.36045c-1.01266.41053-1.01266.46059-1.01266.56072v.87108c0 .10013 0 .15019 1.01266.5607l.1519.36046v.05006c-.4557 1.00125-.40507 1.07134-.35443 1.17146l.60759.5607a.17294.17294 0 0 0 .10128.05008 4.02348 4.02348 0 0 0 1.01266-.41052l.35443.10013v.05006c.40505 1.07133.45568 1.07133.55691 1.07133h.86076c.10126 0 .1519 0 .557-1.07134v-.05006l.35443-.15019h.05063a6.584 6.584 0 0 0 1.01266.41051c.05064 0 .10127 0 .10127-.05006l.60759-.61076c.10127-.10013.10127-.10013-.35443-1.1214v-.05007l.1519-.36045h.20253c1.01266-.41051 1.01266-.46057 1.01266-.5607v-.821c0-.10015 0-.15021-1.01266-.56073zm-3.038 2.51315a1.519 1.519 0 1 1 .02032 0q-.01014.0001-.02029 0z" fill-rule="evenodd"/></svg>