<svg viewBox="0 0 16 16" xmlns="http://www.w3.org/2000/svg"><path d="m7 9h2a2.00226 2.00226 0 0 1 2-2h2a1.97643 1.97643 0 0 1 1 .2782v-5.7782a1.5 1.5 0 0 0 -1.5-1.5h-11a1.5 1.5 0 0 0 -1.5 1.5v6a1.50007 1.50007 0 0 0 1.5 1.5h2.5v3zm-4.5-7h9a.5.5 0 0 1 0 1h-9a.5.5 0 0 1 0-1zm0 2h9a.5.5 0 0 1 0 1h-9a.5.5 0 0 1 0-1zm0 3a.5.5 0 0 1 0-1h4a.5.5 0 0 1 0 1zm12.5 3h-1v-1a1 1 0 0 0 -1-1h-2a1 1 0 0 0 -1 1v1h-1a1 1 0 0 0 -1 1v1h8v-1a1 1 0 0 0 -1-1zm-4-1h2v1h-2zm5 4v2a1 1 0 0 1 -1 1h-6a1 1 0 0 1 -1-1v-2h3v1h2v-1z" fill-rule="evenodd"/></svg>