<svg viewBox="0 0 16 16" xmlns="http://www.w3.org/2000/svg"><path d="m7 9h1.02264a4.95313 4.95313 0 0 1 5.97736-1.57788v-5.92212a1.5 1.5 0 0 0 -1.5-1.5h-11a1.5 1.5 0 0 0 -1.5 1.5v6a1.50007 1.50007 0 0 0 1.5 1.5h2.5v3zm-4.5-7h9a.5.5 0 0 1 0 1h-9a.5.5 0 0 1 0-1zm0 2h9a.5.5 0 0 1 0 1h-9a.5.5 0 0 1 0-1zm0 3a.5.5 0 0 1 0-1h4a.5.5 0 0 1 0 1zm9.5 1a4 4 0 1 0 4 4 4 4 0 0 0 -4-4zm.6 1.6a.46.46 0 0 1 .49832.41818l.00168.03182a.655.655 0 0 1 -.65.6.47.47 0 0 1 -.5-.5.615.615 0 0 1 .65-.55zm-1 4.8c-.25 0-.45-.15-.25-.85l.3-1.2c.05-.2.05-.25 0-.25a1.81237 1.81237 0 0 0 -.65.25l-.1-.25a3.24994 3.24994 0 0 1 1.65-.8c.25 0 .3.3.15.8l-.35 1.3c-.05.25-.05.3.05.3a1 1 0 0 0 .55-.3l.15.2a2.885 2.885 0 0 1 -1.5.8z" fill-rule="evenodd"/></svg>