<svg viewBox="0 0 16 16" xmlns="http://www.w3.org/2000/svg"><path d="m12 9a4.42471 4.42471 0 0 1 4 2.99432 5.062 5.062 0 0 1 -2.05 2.45534c-2.2 1.3175-4.85.17965-5.95-2.45534a4.42471 4.42471 0 0 1 4-2.99432m1.95 1.557c0 .23955.05.47909.05.77853a2.23133 2.23133 0 0 1 -2 2.39547 2.23133 2.23133 0 0 1 -2-2.39545 2.23635 2.23635 0 0 1 .15-.83841c-.05 0-.05.05988-.1.05988a3.86159 3.86159 0 0 0 -1.2 1.43728 3.78792 3.78792 0 0 0 1.25 1.3774 3.00493 3.00493 0 0 0 3.9 0 4.70222 4.70222 0 0 0 1.15-1.37738 3.86159 3.86159 0 0 0 -1.2-1.43728m-1.95.47909a.817.817 0 0 0 -.729-.8964l-.021-.00189a.913.913 0 0 0 0 1.79659.85569.85569 0 0 0 .75-.8983m-5-2.03613h2.04639a5.40936 5.40936 0 0 1 2.911-.99908l.04261-.00184.0426.00184a5.46257 5.46257 0 0 1 1.6922.34869 1.49143 1.49143 0 0 0 .2652-.84961v-6a1.5 1.5 0 0 0 -1.5-1.5h-11a1.5 1.5 0 0 0 -1.5 1.5v6a1.50007 1.50007 0 0 0 1.5 1.5h2.5v3zm-4.5-7h9a.5.5 0 0 1 0 1h-9a.5.5 0 0 1 0-1zm0 2h9a.5.5 0 0 1 0 1h-9a.5.5 0 0 1 0-1zm0 3a.5.5 0 0 1 0-1h4a.5.5 0 0 1 0 1z"/></svg>