
<!-- Generator: Adobe Illustrator 22.0.0, SVG Export Plug-In . SVG Version: 6.00 Build 0)  -->
<svg version="1.1" id="Layer_1" xmlns="http://www.w3.org/2000/svg" xmlns:xlink="http://www.w3.org/1999/xlink" x="0px" y="0px"
	 viewBox="0 0 16 16" style="enable-background:new 0 0 16 16;" xml:space="preserve">
<title>External apps v2</title>
<path d="M6.5,1.5h-4c-0.5523,0-1,0.4477-1,1v4c0,0.5523,0.4477,1,1,1h4c0.5523,0,1-0.4477,1-1v-4C7.5,1.9477,7.0523,1.5,6.5,1.5z"/>
<path d="M13.5,1.5h-4c-0.5523,0-1,0.4477-1,1v4c0,0.5523,0.4477,1,1,1h4c0.5523,0,1-0.4477,1-1v-4C14.5,1.9477,14.0523,1.5,13.5,1.5
	z"/>
<path d="M6.5,8.5h-4c-0.5523,0-1,0.4477-1,1v4c0,0.5523,0.4477,1,1,1h4c0.5523,0,1-0.4477,1-1v-4C7.5,8.9477,7.0523,8.5,6.5,8.5z"/>
<path d="M13.5,8.5h-4c-0.5523,0-1,0.4477-1,1v4c0,0.5523,0.4477,1,1,1h4c0.5523,0,1-0.4477,1-1v-4C14.5,8.9477,14.0523,8.5,13.5,8.5
	z"/>
</svg>
