<svg xmlns="http://www.w3.org/2000/svg" viewBox="0 0 16 16"><path d="M4.09,9.4913c1.0513,0,6.2315.3408,6.3334,1.5042.1637,1.8664-3.5384,2.3577-5.82,2.38-.82,0-2.8459-.2691-2.8459-1.2351,0-.4712.5636-.9653.8972-1.28Z" fill="#60bb46"/><path d="M12.84,0H16V1.1466A4.83,4.83,0,0,0,12.84,0Z" fill="#032a44"/><path d="M16,3.8858V16H.0051L0,14.5241a12.56681,12.56681,0,0,0,4.4481.8142c4.4168.1635,8.8808-1.2648,8.802-4.3994C13.196,8.7834,8.399,7.9233,5.4582,7.844L5.67,7.6156C10.6114,7.7382,14.6909,7.0289,16,3.8858Z" fill="#032a44"/><path d="M.0051,10.5415V0H8.8536A17.69422,17.69422,0,0,0,4.5842.8594,17.663,17.663,0,0,0,1.5186,2.1146C.8339,2.5331.0179,3.2279.1985,3.9794c.1745.7255,2.2384-.18,3.1217-.437a52.1844,52.1844,0,0,1,7.15-1.4138c2.9741-.1792,3.6924.6067,3.7181,1.1-.0615.7371-1.308,2.1328-7.1028,2.8288,2.1283-2.178,2.3077-2.47,2.4873-2.8512-2.5642,0-3.7483,1.4828-5.415,2.8974a6.67781,6.67781,0,0,0-3.1129.8811C.6963,7.2658.1985,7.529.4974,8.021c.2146.3547,1.1317.188,1.4443.2077C1.2312,9.049.4056,10.0468.0051,10.5415Z" fill="#032a44"/></svg>