<svg xmlns="http://www.w3.org/2000/svg" viewBox="0 0 16 16"><path d="M5.0014,7.0007a1,1,0,1,1-1,1A1,1,0,0,1,5.0014,7.0007Z" fill="#677480"/><path d="M8.0014,7.0007a1,1,0,1,1-1,1A1,1,0,0,1,8.0014,7.0007Z" fill="#677480"/><path d="M11.0014,7.0007a1,1,0,1,1-1,1A1,1,0,0,1,11.0014,7.0007Z" fill="#677480"/><path d="M14.1432,5.9349A6.49723,6.49723,0,0,1,14.49,7.7536V7.97a6.497,6.497,0,0,1-6.4949,6.4991H7.993a6.53991,6.53991,0,0,1-2.7565-.6136l-.6208-.2908-.6262.2792a7.63845,7.63845,0,0,1-1.0869.39,8.06411,8.06411,0,0,0,.289-.8162l.2214-.7505-.4889-.611A6.49651,6.49651,0,0,1,3.93767,2.92484L3.9386,2.9241A6.42567,6.42567,0,0,1,7.9924,1.5a6.52627,6.52627,0,0,1,2.0743.34,3.47,3.47,0,0,1,.6-1.3779A7.9944,7.9944,0,0,0,1.7529,12.9928,6.53919,6.53919,0,0,1,.6265,15.1779a.5135.5135,0,0,0,.4068.8262q.0217,0,.0437-.0018A9.12423,9.12423,0,0,0,4.6,15.2139a7.9988,7.9988,0,0,0,3.3928.7552h.0027a7.997,7.997,0,0,0,7.9943-7.9997V7.9691l.0045.0045a7.9963,7.9963,0,0,0-.4568-2.64A3.47,3.47,0,0,1,14.1432,5.9349Z" fill="#677480"/><circle cx="13.5" cy="2.5" r="2.5" fill="#c00"/></svg>