
<!-- Generator: Adobe Illustrator 21.1.0, SVG Export Plug-In . SVG Version: 6.00 Build 0)  -->
<svg version="1.1" id="Layer_1" xmlns="http://www.w3.org/2000/svg" xmlns:xlink="http://www.w3.org/1999/xlink" x="0px" y="0px"
	 viewBox="0 0 16 16" style="enable-background:new 0 0 16 16;" xml:space="preserve">
<path d="M5,7.1c0.6,0,1,0.4,1,1S5.6,9,5,9s-1-0.4-1-1S4.4,7.1,5,7.1"/>
<path d="M8,7.1c0.6,0,1,0.4,1,1S8.6,9,8,9s-1-0.4-1-1S7.4,7.1,8,7.1"/>
<path d="M11,7.1c0.6,0,1,0.4,1,1s-0.4,1-1,1s-1-0.4-1-1S10.4,7.1,11,7.1"/>
<path d="M8,1.6c3.5,0,6.4,2.8,6.5,6.2v0.3c0,3.6-2.9,6.5-6.5,6.5c-1,0-1.9-0.2-2.8-0.6l-0.6-0.3c0,0-0.8,0.5-1.7,0.6
	c0.4-0.6,0.5-1.6,0.5-1.6L2.9,12C0.7,9.2,1.1,5.2,3.9,3C5.1,2.1,6.5,1.6,8,1.6 M8,0.1c-4.4,0-8,3.6-8,8c0,1.8,0.6,3.6,1.8,5
	c-0.2,0.8-0.6,1.5-1.1,2.2C0.5,15.6,0.7,16,1,16c1,0.2,2.4-0.3,3.5-0.8C5.6,15.7,6.8,16,8,16c4.4,0,8-3.6,8-8S12.4,0.1,8,0.1z"/>
</svg>
