<svg viewBox="0 0 16 16" xmlns="http://www.w3.org/2000/svg"><path d="m16 7.01923a3.05745 3.05745 0 0 1 -3.1 2.98077h-1.06345l-2.45746-3.56732a1 1 0 0 0 -.81604-.43268h-.00751a1 1 0 0 0 -.81494.42047l-2.54541 3.57953h-2.09519a3.05745 3.05745 0 0 1 -3.1-2.98077 2.872 2.872 0 0 1 2.6-2.88459v-.28851a1.89085 1.89085 0 0 1 2-1.8269 2.1554 2.1554 0 0 1 1.3.48077 3.52923 3.52923 0 0 1 3.6-2.5 3.79417 3.79417 0 0 1 4 4.03845v.28845a2.61723 2.61723 0 0 1 2.5 2.69233zm-7.44444-.01923-3.55556 5h2v4h3v-4h2z"/></svg>