<svg id="Calque_1" data-name="Calque 1" xmlns="http://www.w3.org/2000/svg" viewBox="0 0 16 16"><path d="M11.58221,10.48a3.84011,3.84011,0,0,0-.15-.94995,3.2081,3.2081,0,1,0-4.89-2.73c0,.11.01.23.02.34a3.16294,3.16294,0,0,0-1.61,1.57,1.9638,1.9638,0,0,0-.8-.17,2.00619,2.00619,0,0,0-2.05,1.80005,2.79481,2.79481,0,0,0-2.03,2.75,2.92133,2.92133,0,0,0,2.92,2.91h7.62994a2.9192,2.9192,0,0,0,2.91-2.91A2.61185,2.61185,0,0,0,11.58221,10.48Zm-4.04-3.68a2.21,2.21,0,0,1,4.42,0,2.16853,2.16853,0,0,1-.91,1.77,3.35061,3.35061,0,0,0-3.08-1.67c-.15,0-.29.01-.42.02A.48607.48607,0,0,1,7.54224,6.8Zm3.08,8.2H2.99225a1.91838,1.91838,0,0,1-1.92-1.91,1.77883,1.77883,0,0,1,1.59-1.84l.44-.06v-.67a.99288.99288,0,0,1,1.05-.98,1.15762,1.15762,0,0,1,.72.29l.5.38.26-.59a2.61861,2.61861,0,0,1,1.2-1.5,2.33846,2.33846,0,0,1,1.02-.21.489.489,0,0,1,.12-.01,2.40409,2.40409,0,0,1,2.15,1.07,2.76618,2.76618,0,0,1,.37006.95,3.20369,3.20369,0,0,1,.09.75v.7l.47.04a1.59042,1.59042,0,0,1,1.48,1.68006A1.91625,1.91625,0,0,1,10.62219,15Z"/><path d="M9.74847,2.891a.40412.40412,0,0,0,.4029-.40289V.957a.40293.40293,0,1,0-.80585,0V2.4881A.40405.40405,0,0,0,9.74847,2.891Z"/><path d="M6.4126,3.99622a.403.403,0,0,0,.56988-.56995L5.89978,2.34369A.40292.40292,0,0,0,5.33,2.91351Z"/><path d="M3.874,7.13635H5.40509a.40292.40292,0,0,0,0-.80584H3.874a.40292.40292,0,0,0,0,.80584Z"/><path d="M12.98627,9.56879a.40293.40293,0,1,0-.56983.56982l1.08264,1.08264a.40293.40293,0,1,0,.56983-.56982Z"/><path d="M15.5249,6.42853H13.99377a.40293.40293,0,0,0,0,.80585H15.5249a.40293.40293,0,0,0,0-.80585Z"/><path d="M13.0556,4.06549l1.08264-1.0827a.40293.40293,0,1,0-.56982-.56983L12.48578,3.49561a.40294.40294,0,1,0,.56982.56988Z"/></svg>