<svg viewBox="0 0 16 16" xmlns="http://www.w3.org/2000/svg"><path d="m15.4375 10.5-1.9873-.4968a.97159.97159 0 0 1 -.6334-.9662l.5582-2.662a1.375 1.375 0 0 0 -2.75 0l.5582 2.662a.9714.9714 0 0 1 -.6334.9661l-1.9873.4969v.6875h6.875zm0 1.375h-6.875c0 3.4375-2.0625 4.125-2.0625 4.125h1.5538a2.04214 2.04214 0 0 0 .9556-1.2307 1.33756 1.33756 0 0 1 -.1788 1.2307h.9419l.4606-.99v.99h4.5168c1.3751-1.375.6876-4.125.6876-4.125zm-6.4975-11.875-8.94 3.25v4.06l4.06 4.07 5.98-2.31-.14-.68-5.6 2.03-.03.01-3.46-3.45v-3.16l7.92-2.88 3.07 3.07a.22018.22018 0 0 1 .08-.01 2.37663 2.37663 0 0 1 1.12.25v-.19zm-1.53525 3.39793.9576-1.1621.62677.51648-.9576 1.1621zm-4.87481.81231.9576-1.1621.62678.51647-.9576 1.16211zm5.06216 2.43757.95761-1.1621.62677.51648-.9576 1.1621zm-2.3108-1.77281a.4063.4063 0 1 1 -.4063.4063.4063.4063 0 0 1 .4063-.4063zm4.8487-.155a2.02622 2.02622 0 0 0 -.42.68.38871.38871 0 0 1 -.15-.31.40342.40342 0 0 1 .41-.4.45292.45292 0 0 1 .16.03zm-4.0362 3.405a.4063.4063 0 1 1 -.4063.4063.4063.4063 0 0 1 .4063-.4063z"/><path d="m.2787 3.2931v3.9374l4.0226 3.8915v-3.8063z" opacity=".66"/></svg>