
<!-- Generator: Adobe Illustrator 23.0.1, SVG Export Plug-In . SVG Version: 6.00 Build 0)  -->
<svg version="1.1" id="Calque_1" xmlns="http://www.w3.org/2000/svg" xmlns:xlink="http://www.w3.org/1999/xlink" x="0px" y="0px"
	 viewBox="0 0 16 16" style="enable-background:new 0 0 16 16;" xml:space="preserve">
<path d="M9,0v1.5H7.56c-1.27,0-2.31,1.04-2.31,2.31v4.38c0,1.23,0.98,2.24,2.19,2.31V12H0v-1.5h1.44c1.27,0,2.31-1.04,2.31-2.31
	V3.81c0-1.27-1.04-2.31-2.31-2.31H0V0H9z"/>
<g>
	<path d="M15.1031,10.5l-1.9873-0.4968c0,0-0.6334-0.1907-0.6334-0.9662l0.5582-2.662c0,0,0-1.375-1.375-1.375
		s-1.375,1.375-1.375,1.375l0.5582,2.662c0,0.7755-0.6334,0.9661-0.6334,0.9661L8.2281,10.5v0.6875h6.875V10.5z"/>
	<path d="M15.1031,11.875h-6.875c0,3.4375-2.0625,4.125-2.0625,4.125h1.5538c0.4675-0.3438,0.8594-0.6944,0.9556-1.2307
		C8.7713,15.2369,8.785,15.7112,8.4963,16h0.9419l0.4606-0.99V16c1.9318,0,4.5168,0,4.5168,0
		C15.7906,14.625,15.1031,11.875,15.1031,11.875z"/>
</g>
</svg>
