
<!-- Generator: Adobe Illustrator 23.1.0, SVG Export Plug-In . SVG Version: 6.00 Build 0)  -->
<svg version="1.1" id="Calque_1" xmlns="http://www.w3.org/2000/svg" xmlns:xlink="http://www.w3.org/1999/xlink" x="0px" y="0px"
	 viewBox="0 0 16 16" style="enable-background:new 0 0 16 16;" xml:space="preserve">
<path d="M16,16h-2v-1h1v-1h1V16z M13,15h-3v1h3V15z M7,15v1h2v-1H7z M6,15H3v1h3V15z M2,15H1v-1H0v2h2V15z M1,10H0v3h1V10z M1,7H0v2
	h1V7z M1,3H0v3h1V3z M1,1h1V0H0v2h1V1z M13,0h-3v0.9412h3V0z M7,0v1h2V0H7z M3,0v1h3V0H3z M16,0h-2v1h1v1h1V0z M16,10h-1v3h1V10z
	 M16,7h-1v2h1V7z M16,3h-1v3h1V3z"/>
<path d="M12,12L9,2H7L4,12H3v1.95716h10V12H12z M5.96257,10l0.39807-2h3.2025l0.42043,2H5.96257z"/>
</svg>
