
<!-- Generator: Adobe Illustrator 23.0.1, SVG Export Plug-In . SVG Version: 6.00 Build 0)  -->
<svg version="1.1" id="Calque_1" xmlns="http://www.w3.org/2000/svg" xmlns:xlink="http://www.w3.org/1999/xlink" x="0px" y="0px"
	 viewBox="0 0 16 16" style="enable-background:new 0 0 16 16;" xml:space="preserve">
<g>
	<path d="M16,1.976c0,0.208-0.052,0.364-0.208,0.52l-0.936,0.936l-2.236-2.34l0.936-0.884C13.712,0.052,13.868,0,14.076,0
		s0.364,0.052,0.52,0.208l1.3,1.3C15.948,1.612,16,1.82,16,1.976z"/>
	<path d="M12.256,1.456L7.68,6.032V8.32h2.288l4.576-4.576L12.256,1.456z M9.656,7.592H9.0805V6.864h-0.728V6.2885l0.52-0.52
		L10.176,7.072L9.656,7.592z M9.552,5.5606C9.4965,5.616,9.5035,5.616,9.448,5.616c-0.0555,0-0.104,0-0.104-0.104
		c0-0.0485,0.0485-0.104,0.0485-0.104L12.36,2.4475c0.0485-0.0555,0.0485-0.0555,0.104-0.0555c0.0554,0,0.104,0,0.104,0.104
		c0,0.0485-0.0485,0.104-0.0485,0.104L9.552,5.5606z"/>
</g>
<g>
	<path d="M0.8846,15.1381c-0.0693,0-0.1401-0.0146-0.2075-0.0449c-0.251-0.1152-0.3613-0.4121-0.2466-0.6631
		c0.4146-0.9082,1.541-0.8506,2.5317-0.8037c0.6431,0.0322,1.4414,0.0703,1.5737-0.2207c0.1328-0.291-0.4199-0.8691-0.8638-1.333
		c-0.687-0.7188-1.4653-1.5322-1.0503-2.4404C3.036,8.724,4.1605,8.7787,5.1532,8.8305c0.6406,0.0332,1.439,0.0723,1.5723-0.2188
		c0.1147-0.251,0.4121-0.3604,0.6621-0.2471C7.639,8.4799,7.7494,8.7768,7.6346,9.0278C7.2206,9.935,6.0965,9.8803,5.1034,9.8295
		c-0.6406-0.0322-1.439-0.0723-1.5723,0.2188c-0.1328,0.291,0.4199,0.8691,0.8638,1.333c0.687,0.7178,1.4653,1.5322,1.0503,2.4404
		s-1.5425,0.8496-2.5317,0.8037c-0.6431-0.0322-1.4404-0.0693-1.5737,0.2207C1.2557,15.0297,1.0746,15.1381,0.8846,15.1381z"/>
</g>
</svg>
