
<!-- Generator: Adobe Illustrator 23.0.1, SVG Export Plug-In . SVG Version: 6.00 Build 0)  -->
<svg version="1.1" id="Calque_1" xmlns="http://www.w3.org/2000/svg" xmlns:xlink="http://www.w3.org/1999/xlink" x="0px" y="0px"
	 viewBox="0 0 16 16" style="enable-background:new 0 0 16 16;" xml:space="preserve">
<g>
	<path d="M8.0043,0.7388l-3.733,1.8535v3.733l3.733,1.8709l3.7243-1.897V2.5922L8.0043,0.7388z M5.0458,5.9946
		C4.9239,6.012,4.7673,5.8727,4.689,5.6726C4.6107,5.4812,4.6455,5.3072,4.7673,5.2897C4.8892,5.2723,5.0458,5.4116,5.1241,5.603
		C5.2024,5.8032,5.1676,5.9772,5.0458,5.9946z M5.0458,4.4457C4.9239,4.4631,4.7673,4.3152,4.689,4.1237
		C4.6107,3.9236,4.6455,3.7495,4.7673,3.7322c0.1218-0.0174,0.2785,0.1305,0.3567,0.322C5.2024,4.2542,5.1676,4.4196,5.0458,4.4457z
		 M7.0559,7.0214C7.0297,7.0301,7.0037,7.0301,6.9775,7.0127L5.8637,6.4036c-0.087-0.0522-0.148-0.2175-0.1393-0.3742
		C5.7419,5.8727,5.8289,5.7858,5.916,5.838l1.1138,0.6091c0.087,0.0522,0.148,0.2175,0.1305,0.3742
		C7.1516,6.9257,7.1081,6.9953,7.0559,7.0214z M7.0559,5.4464C7.0297,5.4551,7.0037,5.4551,6.9775,5.4377L5.8637,4.8286
		c-0.087-0.0523-0.148-0.2175-0.1393-0.3742C5.7419,4.2977,5.8289,4.2107,5.916,4.2542l1.1138,0.6178
		c0.087,0.0435,0.148,0.2088,0.1305,0.3655C7.1516,5.3507,7.1081,5.4203,7.0559,5.4464z"/>
	<path d="M3.733,7.2386L0,9.0921v3.733l3.733,1.8709l3.7244-1.897V9.0921L3.733,7.2386z M0.7745,12.4944
		c-0.1218,0.0174-0.2785-0.1218-0.3568-0.322c-0.0783-0.1914-0.0435-0.3655,0.0783-0.3829
		c0.1218-0.0174,0.2785,0.1218,0.3567,0.3132C0.9311,12.303,0.8962,12.477,0.7745,12.4944z M0.7745,10.9455
		c-0.1218,0.0174-0.2785-0.1305-0.3568-0.322c-0.0783-0.2001-0.0435-0.3742,0.0783-0.3915c0.1218-0.0174,0.2785,0.1305,0.3567,0.322
		C0.9311,10.7541,0.8962,10.9194,0.7745,10.9455z M2.7846,13.5212c-0.0261,0.0087-0.0522,0.0087-0.0783-0.0087l-1.1138-0.6091
		c-0.087-0.0522-0.148-0.2175-0.1393-0.3742c0.0174-0.1566,0.1044-0.2436,0.1915-0.1914l1.1138,0.6091
		c0.087,0.0522,0.148,0.2175,0.1305,0.3742C2.8803,13.4255,2.8368,13.4951,2.7846,13.5212z M2.7846,11.9462
		c-0.0261,0.0087-0.0522,0.0087-0.0783-0.0087l-1.1138-0.6091c-0.087-0.0523-0.148-0.2175-0.1393-0.3742
		c0.0174-0.1566,0.1044-0.2436,0.1915-0.2001l1.1138,0.6178c0.087,0.0435,0.148,0.2088,0.1305,0.3655
		C2.8803,11.8505,2.8368,11.9201,2.7846,11.9462z"/>
	<path d="M12.2757,7.2386l-3.733,1.8535v3.733l3.733,1.8709L16,12.799V9.0921L12.2757,7.2386z M9.3171,12.4944
		c-0.1218,0.0174-0.2785-0.1218-0.3568-0.322c-0.0783-0.1914-0.0435-0.3655,0.0783-0.3829
		c0.1218-0.0174,0.2785,0.1218,0.3567,0.3132C9.4737,12.303,9.4389,12.477,9.3171,12.4944z M9.3171,10.9455
		c-0.1218,0.0174-0.2785-0.1305-0.3568-0.322c-0.0783-0.2001-0.0435-0.3742,0.0783-0.3915c0.1218-0.0174,0.2785,0.1305,0.3567,0.322
		C9.4737,10.7541,9.4389,10.9194,9.3171,10.9455z M11.3272,13.5212c-0.0261,0.0087-0.0522,0.0087-0.0783-0.0087l-1.1138-0.6091
		c-0.087-0.0522-0.148-0.2175-0.1393-0.3742c0.0174-0.1566,0.1044-0.2436,0.1915-0.1914l1.1138,0.6091
		c0.087,0.0522,0.148,0.2175,0.1305,0.3742C11.4229,13.4255,11.3794,13.4951,11.3272,13.5212z M11.3272,11.9462
		c-0.0261,0.0087-0.0522,0.0087-0.0783-0.0087l-1.1138-0.6091c-0.087-0.0523-0.148-0.2175-0.1393-0.3742
		c0.0174-0.1566,0.1044-0.2436,0.1915-0.2001l1.1138,0.6178c0.087,0.0435,0.148,0.2088,0.1305,0.3655
		C11.4229,11.8505,11.3794,11.9201,11.3272,11.9462z"/>
</g>
</svg>
