<svg viewBox="0 0 32 32" xmlns="http://www.w3.org/2000/svg"><path d="m2 10.23v7.77h8v-1.65a1.34736 1.34736 0 0 1 .37-.89 1.39427 1.39427 0 0 1 1.03-.46 1.46608 1.46608 0 0 1 .98.4l2.27 2.2599.34.3401h6.3717v-7.77z" opacity=".5"/><path d="m8.88.11-8.88 8.88v11.01h10v-2.34h-7.66v-7.02h18.72v7.02h-6.41l.34.34 2 2h5.72l8.88-8.88v-11.01zm-6.06 9.36 7.02-7.02h18.58l-7.02 7.02zm26.43.69-7.02 7.02v-6.88l7.02-7.02zm-18.08 16.67a.34017.34017 0 0 0 .36 0l2.52-1 1.65 3.94a.37012.37012 0 0 0 .36.23h.16l1.44-.59a.4.4 0 0 0 .22-.51l-1.65-3.97 2.52-1a.39.39 0 0 0 .13-.64l-7.21-7.18a.4.4 0 0 0 -.67.28v10.11a.41006.41006 0 0 0 .17.33z"/></svg>