<svg xmlns="http://www.w3.org/2000/svg" viewBox="0 0 16 16" enable-background="new 0 0 16 16"><path d="m15.8 10.7c-.2-.2-.4-.3-.6-.3-.4 0-.8.3-.9.7-.1.2-.1.2-.2.2-.4-.4-.7-.9-.8-1.4l-.4-2c.3-.4.6-.9 1-1.2.2-.1.4-.2.6-.2.3 0 .7 0 1-.2.3-.2.5-.4.5-.7 0-.3-.1-.5-.3-.7-.2-.2-.4-.3-.7-.3-.5 0-1 .3-1.4.6-.4.3-.7.6-1 1 0-.3-.1-.6-.3-.8-.1-.3-.4-.4-.7-.4h-.1l-4.1.1.2-.9c.1-.5.3-1 .6-1.4.1-.2.3-.4.4-.4.1 0 .3 0 .4.1.7.1.9.2 1 .2.3 0 .5-.1.7-.3.2-.2.3-.5.3-.8 0-.3-.2-.6-.4-.8-.3-.2-.6-.3-1-.3-.7 0-1.3.2-1.9.6-.5.4-1 .9-1.4 1.5-.4.8-.7 1.6-.9 2.5h-1.7l-.4 1.5h1.7l-1.3 5.3c-.1.5-.3 1-.5 1.4-.1.2-.5.2-.7.2-.3 0-.6 0-.9-.1h-.5c-.3 0-.6.1-.8.2-.2.2-.3.5-.3.8 0 .3.2.6.4.8.3.2.6.3 1 .3 1.1 0 2.1-.5 2.8-1.2.9-1 1.5-2.1 1.8-3.4l1-4.3 3.5.1.5 1.6-.8 1.1c-.2.3-.4.5-.6.8-.1.2-.2.2-.3.3-.3-.4-1-.5-1.4-.2 0 0-.1.1-.1.1-.4.4-.4 1 0 1.4 0 0 .1.1.1.1.3.1.6.2.9.2.4 0 .9-.2 1.2-.5.3-.3.8-.8 1.4-1.5.3.7.7 1.4 1.1 2 .4.5 1.1.7 1.7.7.4 0 .8-.1 1.2-.3.3-.2.6-.6.6-1 0-.2-.1-.5-.2-.8"/></svg>