
<!-- Generator: Adobe Illustrator 21.1.0, SVG Export Plug-In . SVG Version: 6.00 Build 0)  -->
<svg version="1.1" id="Layer_1" xmlns="http://www.w3.org/2000/svg" xmlns:xlink="http://www.w3.org/1999/xlink" x="0px" y="0px"
	 viewBox="0 0 16 16" style="enable-background:new 0 0 16 16;" xml:space="preserve">
<path d="M14.9,4c-0.7-1.2-1.7-2.2-2.9-2.9c-2.5-1.4-5.5-1.4-8,0C2.8,1.8,1.8,2.8,1.1,4c-1.4,2.5-1.4,5.5,0,8
	c0.7,1.2,1.7,2.2,2.9,2.9c2.5,1.4,5.5,1.4,8,0c1.2-0.7,2.2-1.7,2.9-2.9C16.4,9.5,16.4,6.5,14.9,4 M8.9,12.2c0,0,0-0.2,0-0.2l0,0
	l-0.3,0l-0.2-0.2v-0.2v-0.2l0,0c-0.2,0-0.4,0-0.6-0.1c-0.1-0.1-0.2-0.1-0.2-0.2C7.6,11.1,7.5,11,7.4,11H7.2H7.1H6.9l-0.2-0.1
	l-0.2-0.1H6.4H6.2H6.1c0,0,0-0.1,0-0.1c0-0.1,0-0.2,0-0.2c0-0.1,0-0.2,0-0.3C6,10.1,5.9,10,5.9,9.9C5.8,9.9,5.8,9.9,5.7,9.8
	c0,0,0,0,0-0.1L5.5,9.5L5.4,9.4L5.2,9.2L5.1,9c0-0.1,0-0.1,0-0.2v0.2c0,0.1,0,0.1,0,0.2l0.2,0.3C5.4,9.6,5.5,9.8,5.6,10l0,0
	c0,0,0-0.1,0-0.1V9.8c0-0.1-0.1-0.1-0.2-0.1c-0.1,0-0.1-0.1-0.2-0.1c0-0.1,0-0.2-0.1-0.2c0,0-0.1-0.2,0-0.2C5.1,9,5,9,5,8.9
	C5,8.4,4.5,8,4,8c0,0,0,0,0,0V7.9L3.8,7.8H3.7C3.5,7.5,3.4,7.4,3.5,7.3c0.1,0-0.2,0-0.2-0.2c0-0.1,0-0.2,0-0.4c0-0.1,0-0.2,0-0.2
	c0-0.1,0-0.2,0-0.4c0-0.1,0-0.2,0-0.2s0,0-0.1-0.1c0-0.1,0-0.1,0-0.2l0,0c0,0,0.1-0.1,0.1-0.2L3.1,5.3L2.6,5c0.1-0.1,0.1-0.1,0-0.2
	c0,0,0,0,0,0c0,0-0.1,0-0.1,0c0,0,0-0.1,0-0.1l0,0H2.4c0.6-1,1.4-1.9,2.4-2.5H5h0.2l0.2,0.1l0.1,0.1c0-0.1,0-0.1,0-0.2
	c0,0,0,0,0.2-0.1c0.1,0,0.2,0,0.3,0L5.8,1.8c0,0-0.2,0-0.4,0H5.3H5.1H5c0.3-0.2,0.6-0.3,1-0.4h0.1h0.1l0,0c0,0.1,0,0.1,0,0.2
	c0,0,0.1,0,0.1,0h0.5c0.2,0,0.3,0,0.3,0c0,0.1,0,0.1,0,0.2c0,0.1,0,0.1,0,0.2c0,0,0,0,0-0.1c0,0,0-0.1,0-0.1h0.1c0,0,0,0,0-0.1H7.1
	H7l0,0c0,0,0-0.1,0-0.1c0.1,0,0.1,0,0.2,0h0.2c0.2,0.1,0.2,0.2,0,0.3h0.3c0,0,0.1,0.1,0.1,0.2C7.8,1.9,8,2,8,2s0,0,0,0.1v0.1
	c0,0,0.1,0,0.2,0L8.5,2V1.9l0,0c0.1,0,0.2,0,0.3,0c0,0.1,0,0.2,0,0.2c0,0.1,0,0.1,0,0.2c0,0,0,0.1-0.2,0.1H8.5H8.3H8.2L8.1,2.6
	L8,2.8C7.8,2.9,7.6,2.9,7.4,2.9l0,0V3C7.4,3.1,7.3,3.2,7.3,3.3v0.1c0,0.1,0,0.1,0,0.2c0,0,0.1,0,0.2,0.1s0,0.1,0,0.2
	c0.2,0,0.4,0,0.6,0C8.4,3.9,8.5,4,8.5,4.1c0,0.1,0.1,0,0.3,0C9,4.1,9,4.3,9,4.5c0,0.1,0.1,0.2,0.1,0.3c0.1,0.1,0.2,0.1,0.2,0l0,0
	c0,0-0.1-0.1-0.1-0.2c0-0.1,0-0.1,0-0.2l0.2-0.1c0.1,0,0.1-0.1,0.2-0.2c0-0.1,0-0.2-0.1-0.2c0,0-0.1-0.1-0.1-0.2c0,0,0-0.1,0-0.1
	c0,0,0-0.1,0-0.1c0,0,0-0.1,0-0.1V3.2c0,0,0-0.1,0-0.1c0.1,0,0.2,0,0.3,0H10h0.1h0.2l0,0c0,0,0,0.1,0,0.1c0,0,0,0.1,0,0.1h0.2
	c0.1,0,0.1,0,0,0.1h0.1V3.3v0.1v0.1v0.2c0,0.1,0,0.1,0,0.2h0.2H11l0,0c0,0.1,0,0.1,0,0.2c0.1,0,0.1,0,0.2,0v0.2c-0.1,0-0.1,0-0.2,0
	h-0.2l-0.2,0.1c0,0-0.1,0.1,0,0.1c-0.1-0.1-0.4-0.2-0.5-0.1L9.6,4.6c-0.1,0-0.2,0.1-0.2,0.2v0.1c0,0,0.1,0,0.1,0
	C9.7,4.8,9.8,4.7,10,4.7c0.1,0,0.1,0.1,0,0.2H9.8h0.2l0,0c0.1,0,0.1,0.1,0,0.2C9.8,5.2,9.7,5.2,9.6,5.2l0,0L9.4,5.3H9.3H9.1
	c0,0,0,0.1,0,0.1c0,0,0,0.1,0,0.1l0,0c0,0,0,0-0.2,0c-0.1,0-0.2,0-0.2,0.1c0,0,0,0.1,0,0.2c0,0.1-0.1,0.1-0.2,0c0,0,0,0,0,0
	c0,0,0,0.1,0,0.1c0,0,0,0.1,0,0.1c0,0,0,0.1,0,0.2s0,0-0.1,0s0,0.2-0.2,0.4H8.1H7.9C7.8,6.6,7.8,6.7,7.7,6.8c0,0.1,0,0.1,0,0.2
	c0,0.1,0.1,0.1,0.2,0.1v0.5c0,0,0,0.1,0,0.1l0,0H7.8c0,0-0.1-0.2-0.2-0.5c0-0.1-0.1-0.2-0.1-0.2H7.3H7.2C7,7.1,6.9,7.1,6.9,7
	c0,0,0,0.1,0,0.1c0,0-0.1,0-0.2,0s-0.1,0-0.3,0c-0.1,0-0.2,0-0.3,0H5.9L5.8,7.3c0,0.1,0,0.2,0,0.3c0,0,0,0.1,0,0.3
	c0,0.1,0,0.2,0,0.3c0,0.1,0,0.3,0,0.4c0,0.1,0.1,0.2,0.2,0.3h0.3h0.3c0,0,0-0.1,0-0.1V8.5C7,8.1,7.6,8.1,8,8.6C8.4,9,8.4,9.6,8,10
	l0,0h0.2l0,0v0.1v0.2v0.1c0,0.1,0,0.2,0,0.2c0,0.1,0,0.1,0,0.2h0.2v-0.1c0.1,0,0.1,0,0.2,0c0,0,0.1,0,0.2,0l0.1,0.2
	c0.1,0.1,0.1,0.1,0.1,0.2v0.1c0,0,0,0.1,0,0.1c0,0,0,0-0.1,0l0,0c0.1,0.2,0.3,0.3,0.5,0.2c0,0,0,0,0.1,0c0,0.2,0,0.3-0.1,0.3
	C9,11.9,9.1,12.3,8.9,12.2 M9.1,14.6c0-0.1,0-0.1,0-0.2c0-0.1,0-0.1,0-0.2c0-0.1,0-0.1,0-0.2C9,14,8.9,13.9,9,13.7
	c0.1-0.2,0.2-0.3,0.3-0.4c0.1-0.1,0.2-0.3,0.1-0.5c0-0.1,0-0.3,0-0.4c0-0.1,0-0.2,0-0.4l0,0h0.1v-0.1v-0.1h0.1h0.1c0,0,0,0.1,0,0.2
	s0,0.1,0,0.2c0,0,0-0.1,0-0.1c0-0.1,0-0.1,0-0.2h0.1H10h0.1h0.1c0.1,0.1,0.3,0.1,0.4,0.2l0,0h0.3H11h0.1c0,0,0,0.1,0,0.1h0.2h0.1
	h0.1C11,13.2,10.2,14,9.1,14.6"/>
</svg>
