<svg xmlns="http://www.w3.org/2000/svg" viewBox="0 0 16 16"><path d="M5.082,10.22071c-.08254.22-4.35559-3.73387-5.05827-1.58321-.15523.47507.458.18037,1.6529,1.2826a14.4999,14.4999,0,0,1,1.7923,2.60528c.80186,1.14783,3.94186,5.07278,8.22028,2.75558,0,0,1.89815-1.12728,2.08544-5.81177.019-.47527,1.21369-5.44744,1.21369-5.44744s.1381-1.01566-.5354-1.21015a1.1432,1.1432,0,0,0-1.28986.78559c-.01045.013-.8605,4.11614-.88938,4.21153s-.22214.20742-.21707-.08417c.00777-.44.22444-5.45535.22444-5.45535S12.3845,1.07969,11.6884.999c-.68536-.07956-.8611.43388-.99055.91486s-.42816,4.88229-.42816,5.10033-.38833.511-.4182-.07014S9.732,1.09041,9.732,1.09041,9.732,0,8.73011,0a1.04851,1.04851,0,0,0-.89994,1.07277s.10953,5.55706.10953,5.711c0,.30121-.4182.6413-.59743.09018S6.5664,2.331,6.5664,2.331c-.11441-.43307-.53609-.97537-.98258-.92978-.45514.04639-.71761.6401-.68107,1.194,0,0,.61,5.496.61735,5.78171A4.306,4.306,0,0,1,5.082,10.22071Z"/></svg>