<svg xmlns="http://www.w3.org/2000/svg" viewBox="0 0 16 16"><path d="M8,.5A7.5,7.5,0,1,0,15.5,8,7.5,7.5,0,0,0,8,.5Zm0,11A3.5,3.5,0,1,1,11.5,8,3.5,3.5,0,0,1,8,11.5Z" fill-opacity="0.33"/><path d="M8,0a8,8,0,1,0,8,8A8,8,0,0,0,8,0Zm7,8a6.9539,6.9539,0,0,1-.3972,2.3027L11.8234,9.1112A3.944,3.944,0,0,0,12,8a3.94466,3.94466,0,0,0-.1758-1.1084L14.6038,5.7A6.95383,6.95383,0,0,1,15,8ZM8,11a3,3,0,1,1,3-3A3,3,0,0,1,8,11ZM1,8a6.95351,6.95351,0,0,1,.3961-2.3l2.78,1.1914A3.94511,3.94511,0,0,0,4,8a3.94555,3.94555,0,0,0,.1766,1.1111L1.3972,10.3026A6.95388,6.95388,0,0,1,1,8ZM14.2209,4.8051,11.4417,5.9965A4.00085,4.00085,0,0,0,10.005,4.5591l1.1908-2.78A7.03906,7.03906,0,0,1,14.2209,4.8051ZM10.2994,1.3959l-1.191,2.78A3.944,3.944,0,0,0,8,4a3.94525,3.94525,0,0,0-1.1088.1759L5.7,1.3961a6.87448,6.87448,0,0,1,4.5992,0ZM4.8036,1.78,5.9945,4.56A4.00132,4.00132,0,0,0,4.5583,5.9965L1.7791,4.8051A7.03918,7.03918,0,0,1,4.8036,1.78ZM1.78,11.197l2.7794-1.1914a4.002,4.002,0,0,0,1.4362,1.4357L4.8047,14.2207A7.03918,7.03918,0,0,1,1.78,11.197Zm3.9211,3.4073,1.191-2.78A3.94445,3.94445,0,0,0,8,12a3.94376,3.94376,0,0,0,1.1073-.1754l1.191,2.78a6.8744,6.8744,0,0,1-4.5971,0Zm5.4936-.3833-1.1908-2.78A4.00156,4.00156,0,0,0,11.44,10.0056l2.78,1.1914a7.03938,7.03938,0,0,1-3.0252,3.0239Z"/></svg>