<svg viewBox="0 0 16 16" xmlns="http://www.w3.org/2000/svg"><path d="m11.366 3.58753.88733.511 1.1308-1.23382a1.49818 1.49818 0 1 0 -.88413-1.36471 1.4841 1.4841 0 0 0 .16486.67041zm2.634-2.58753a.5.5 0 1 1 -.5.5.50057.50057 0 0 1 .5-.5zm0 12a1.48932 1.48932 0 0 0 -.61566.13513l-1.13147-1.23455-.88733.511 1.29938 1.41773a1.48419 1.48419 0 0 0 -.16492.67069 1.5 1.5 0 1 0 1.5-1.5zm0 2a.5.5 0 1 1 .5-.5.50057.50057 0 0 1 -.5.5zm-9.36548-2.5885-.88727-.51105-1.13159 1.23468a1.4982 1.4982 0 1 0 .88434 1.36487 1.48419 1.48419 0 0 0 -.16492-.67065zm-2.63452 2.5885a.5.5 0 1 1 .5-.5.50057.50057 0 0 1 -.5.5zm0-12a1.4895 1.4895 0 0 0 .61584-.13525l1.13074 1.23376.88733-.511-1.29877-1.4171a1.4841 1.4841 0 0 0 .16486-.67041 1.5 1.5 0 1 0 -1.5 1.5zm0-2a.5.5 0 1 1 -.5.5.50057.50057 0 0 1 .5-.5zm9.8819 4.03855-3.2215-1.85535a1.34074 1.34074 0 0 0 -1.3208 0l-3.2215 1.85535a1.23651 1.23651 0 0 0 -.6282 1.06685v3.788a1.25579 1.25579 0 0 0 .6282 1.06685l3.2215 1.85535a1.34074 1.34074 0 0 0 1.3208 0l3.2215-1.85535a1.23658 1.23658 0 0 0 .62815-1.06685v-3.8035a1.212 1.212 0 0 0 -.62815-1.05135zm-3.8819-.00205a.6631.6631 0 1 1 -.68455.66275.67391.67391 0 0 1 .68455-.66275zm1.9329 5.73215a.15493.15493 0 0 1 -.0787.134l-1.7557 1.0123a.16569.16569 0 0 1 -.1643.0003l-1.7879-1.02215a.155.155 0 0 1 -.0792-.1343v-.89875a.15509.15509 0 0 1 .0815-.13555.16547.16547 0 0 1 .162.00155l1.04515.6483v-2.2275l-.56565-.34885a.155.155 0 0 1 -.0787-.13405v-.90195a.155.155 0 0 1 .0816-.1356.16571.16571 0 0 1 .16215.0018l1.61075.8627a.15509.15509 0 0 1 .0784.13385v2.7496l1.04515-.6483a.16547.16547 0 0 1 .16195-.00155.15509.15509 0 0 1 .0815.13555z"/></svg>