<svg xmlns="http://www.w3.org/2000/svg" viewBox="0 0 16 16"><path d="M8 0a8 8 0 1 0 8 8A8 8 0 0 0 8 0m2.2007 14.1083a.969 .969 0 0 1 -.5364 -.1539 .6944 .6944 0 0 1 -.1746 -.5537 2.895 2.895 0 0 1 .0582 -.4984c.041-.235.064-.48.116-.665L10.363 9.912a3.7483 3.7483 0 0 0 .1164 -.72 4.032 4.032 0 0 0 0 -.5537 1.6157 1.6157 0 0 0 -.524 -1.2737 2.1794 2.1794 0 0 0 -1.5137 -.4984 3.9644 3.9644 0 0 0 -1.1644 .2216c-.397.126-.792.266-1.223.443H5.997l-.233.997.175-.111c.128-.048.292-.059.466-.111A1.6278 1.6278 0 0 1 6.87 8.1954a.9087 .9087 0 0 1 .64 .1661 .7594 .7594 0 0 1 .1747 .5536 2.9665 2.9665 0 0 1 -.0583 .5538c-.039.196-.117.387-.175.609l-.64 2.381a6.5711 6.5711 0 0 0 -.1165 .6645 3.9049 3.9049 0 0 0 -.0582 .5538 1.66 1.66 0 0 0 .1512 .7049 6.5086 6.5086 0 1 1 3.4126 -.2742"/><path d="M9.8972,2.6024a1.65,1.65,0,0,0-1.6884,1.606,1.4875,1.4875,0,0,0,.524,1.1075,1.7518,1.7518,0,0,0,2.3288,0,1.4406,1.4406,0,0,0,.4658-1.1075,1.5647,1.5647,0,0,0-.4658-1.1629A1.6192,1.6192,0,0,0,9.8972,2.6024Z"/></svg>