<svg xmlns="http://www.w3.org/2000/svg" viewBox="0 0 16 16"><path d="M8,1.0002a1.00417,1.00417,0,0,1,.51376.13829L13.52436,4.119A.95116.95116,0,0,1,14,4.93885v6.0975a1.00386,1.00386,0,0,1-.48626.85077l-5,2.9744a1.02347,1.02347,0,0,1-1.02748,0l-4.98453-2.965A1.03179,1.03179,0,0,1,2,11.03635V4.96365a1.004,1.004,0,0,1,.48624-.85086l5-2.97431A1.00414,1.00414,0,0,1,8,1.0002m0-1A2.00639,2.00639,0,0,0,6.975.27905l-5,2.9743A1.99392,1.99392,0,0,0,1,4.96365v6.0727a2.025,2.025,0,0,0,.975,1.7102l5,2.9744a2.02328,2.02328,0,0,0,2.05,0l5-2.9744A1.99375,1.99375,0,0,0,15,11.03635V4.93885a1.95339,1.95339,0,0,0-.975-1.6855l-5-2.9743A2.00639,2.00639,0,0,0,8,.0002Z" fill="#002a44"/><path d="M8,3.25005a1.0625,1.0625,0,1,1-1.0625,1.0625A1.0625,1.0625,0,0,1,8,3.25005Zm3,9.1894a.25006.25006,0,0,1-.1221.2148l-2.725,1.6229a.24973.24973,0,0,1-.255.0004L5.1229,12.639A.24993.24993,0,0,1,5,12.42365v-1.4408a.24991.24991,0,0,1,.3778-.2148L7,11.66667V8.23635l-.8778-.5593A.25.25,0,0,1,6,7.46215V6.01635a.25.25,0,0,1,.3783-.2146l2.5,1.3831A.24987.24987,0,0,1,9,7.39935v4.26732l1.6222-.89862a.25.25,0,0,1,.3778.2148Z" fill="#56aa1c"/></svg>