<svg xmlns="http://www.w3.org/2000/svg" viewBox="0 0 16 16"><path d="M15.92761,10.28772l-2.86767-1.6792a.17343.17343,0,0,0-.16083,0l-.44611.26337L10.74316,7.87012a.49179.49179,0,0,0-.14025-.04779l-.012-.00409a.87923.87923,0,0,0-.22076-.00049l-.01825.00616a.49674.49674,0,0,0-.137.04621L7.27112,9.59406,6.14117,8.93225l-.99.57971,1.13.66181L3.89648,11.57031a.496.496,0,0,0-.2409.46045l-.00141.02149.00141.02148a.496.496,0,0,0,.2409.46045L5.467,13.454l-.4046.23889A.12515.12515,0,0,0,5,13.792v.416a.14607.14607,0,0,0,.07788.10833l2.84174,1.66394a.17321.17321,0,0,0,.16076,0l1.83667-1.08441a.125.125,0,0,0,.06244-.09906v-.42993a.09757.09757,0,0,0-.05188-.0791l-2.86767-1.6792a.17343.17343,0,0,0-.16083,0l-.44611.26337-1.39947-.81964L7.27112,10.7536,8.467,11.454l-.4046.23889A.12515.12515,0,0,0,8,11.792v.416a.14607.14607,0,0,0,.07788.10833l2.84174,1.66394a.17321.17321,0,0,0,.16076,0l1.83667-1.08441a.125.125,0,0,0,.06244-.09906v-.42993a.09757.09757,0,0,0-.05188-.0791l-2.86767-1.6792a.17343.17343,0,0,0-.16083,0l-.44611.26337-1.192-.69806L10.47894,8.875l.98822.57892-.40472.23895A.12515.12515,0,0,0,11,9.792v.416a.14607.14607,0,0,0,.07788.10833l2.84174,1.66394a.17321.17321,0,0,0,.16076,0l1.83667-1.08441a.125.125,0,0,0,.06244-.09906v-.42993A.09757.09757,0,0,0,15.92761,10.28772ZM6.98126,13.72131l1.48523.86963-.46826.27649L6.51288,13.9978Zm3-2,1.48523.86963-.46826.27649L9.51288,11.9978Zm4.017-.85388L12.51288,9.9978l.46838-.27649,1.48523.86963ZM4,1a.1614.1614,0,0,1,.0804.01979L6.94809,2.699A.09761.09761,0,0,1,7,2.77806V6.208a.125.125,0,0,1-.06247.09908L4.08038,7.98022a.17319.17319,0,0,1-.16077,0L1.0779,6.3163A.146.146,0,0,1,1,6.208V2.792a.12505.12505,0,0,1,.06246-.09914L3.91962,1.01978A.16137.16137,0,0,1,4,1M4,0a1.16034,1.16034,0,0,0-.58572.15686L.55714,1.82994A1.1183,1.1183,0,0,0,0,2.792V6.208a1.13563,1.13563,0,0,0,.55714.962L3.41428,8.84314a1.172,1.172,0,0,0,1.17144,0L7.44286,7.17A1.11819,1.11819,0,0,0,8,6.208V2.77806a1.09584,1.09584,0,0,0-.55714-.94812L4.58572.15686A1.16034,1.16034,0,0,0,4,0Z" fill="#002a44"/><path d="M4,1.82809a.59774.59774,0,1,1-.60714.59767A.60246.60246,0,0,1,4,1.82809ZM5.71429,6.505a.14024.14024,0,0,1-.06978.12083l-1.55714.91291a.14463.14463,0,0,1-.14571.00022L2.35594,6.61724a.14017.14017,0,0,1-.07023-.1211V5.68567a.14028.14028,0,0,1,.07223-.12224.1447.1447,0,0,1,.14366.00141l.927.50548V4.633L2.927,4.31834a.1402.1402,0,0,1-.06983-.12089V3.38417a.14032.14032,0,0,1,.0724-.12235.14493.14493,0,0,1,.14377.00163l1.42858.778a.14013.14013,0,0,1,.06954.12066V6.07032l.927-.50548a.1447.1447,0,0,1,.14366-.00141.14028.14028,0,0,1,.07223.12224Z" fill="#56aa1c"/></svg>