<svg viewBox="0 0 16 16" xmlns="http://www.w3.org/2000/svg"><path d="m2.84137 10.4129-.99017 1.08033a1.31093 1.31093 0 1 0 .7738 1.19427 1.29861 1.29861 0 0 0 -.14429-.58685l1.137-1.2406zm-1.52887 2.7121a.4375.4375 0 1 1 .4375-.4375.438.438 0 0 1 -.4375.4375zm8.97168-9.53876.98944-1.07959a1.31091 1.31091 0 1 0 -.77362-1.19415 1.29856 1.29856 0 0 0 .14423.58661l-1.13648 1.24zm1.52832-2.71124a.4375.4375 0 1 1 -.4375.4375.438.438 0 0 1 .4375-.4375zm-10.5 1.75a1.30385 1.30385 0 0 0 .53888-.11835l.98938 1.07953.77643-.44718-1.13642-1.23989a1.29856 1.29856 0 0 0 .14423-.58661 1.3125 1.3125 0 1 0 -1.3125 1.3125zm0-1.75a.4375.4375 0 1 1 -.4375.4375.438.438 0 0 1 .4375-.4375zm5.68811 10.39563.00024-.81232a1.48918 1.48918 0 0 1 .03571-.25641l-.38788.22364a.145.145 0 0 1 -.14374.0003l-1.56445-.89441a.13554.13554 0 0 1 -.06927-.11749v-.78644a.13576.13576 0 0 1 .07128-.11859.14509.14509 0 0 1 .14173.00134l.91449.56726v-1.949l-.49487-.3053a.13558.13558 0 0 1 -.06885-.11734v-.78912a.13564.13564 0 0 1 .07135-.11865.145.145 0 0 1 .1419.00158l1.40943.75482a.13588.13588 0 0 1 .0686.11713v2.40588l.91449-.56726a.14509.14509 0 0 1 .14173-.00134.13576.13576 0 0 1 .07128.11859v.4054a1.61738 1.61738 0 0 1 .24622-.0329h1.94324a1.04157 1.04157 0 0 0 .06555-.34326v-3.32807a1.06055 1.06055 0 0 0 -.54962-.92l-2.81885-1.62339a1.1732 1.1732 0 0 0 -1.15564 0l-2.81885 1.62341a1.08208 1.08208 0 0 0 -.54968.93353v3.31452a1.09886 1.09886 0 0 0 .54968.93347l2.81885 1.62341a1.16658 1.16658 0 0 0 1.01593.05701zm-.43811-6.86371a.5802.5802 0 1 1 -.599.5799.58966.58966 0 0 1 .599-.5799zm8.4375 8.09308 1-.75v2.75a.5222.5222 0 0 1 -.5.5h-5.5v1l-2-1.5 2-1.5v1h5zm-6-1.5h5v1l2-1.5-2-1.5v1h-5.5a.5222.5222 0 0 0 -.5.5v2.75l1-.75z"/></svg>