<svg xmlns="http://www.w3.org/2000/svg" viewBox="0 0 16 16"><path d="M8.033 0A8.0283 8.0283 0 0 1 16 8.1007a7.9872 7.9872 0 0 1 -4.249 7.0881l.133-.57-.199.127a2.5237 2.5237 0 0 1 -.4647 .19 2.1578 2.1578 0 0 1 -.5975 .0632 1.1509 1.1509 0 0 1 -.73 -.19 .7949 .7949 0 0 1 -.1991 -.6329 3.3106 3.3106 0 0 1 .0664 -.57c.047-.269.073-.548.133-.759l.797-2.658a4.3014 4.3014 0 0 0 .1328 -.8228 4.6232 4.6232 0 0 0 0 -.6328 1.8487 1.8487 0 0 0 -.5975 -1.4556 2.4816 2.4816 0 0 0 -1.7261 -.57A4.5142 4.5142 0 0 0 7.17 6.9615c-.453.145-.903.305-1.394.506H5.709L5.444 8.607 5.643 8.48c.145-.055.333-.067.531-.127a1.8517 1.8517 0 0 1 .5311 -.1265 1.0355 1.0355 0 0 1 .73 .19 .87 .87 0 0 1 .1991 .6329 3.4031 3.4031 0 0 1 -.0664 .6329c-.044.224-.133.442-.199.696L6.639 13.1a7.5311 7.5311 0 0 0 -.1328 .7595 4.4723 4.4723 0 0 0 -.0664 .6328 1.89 1.89 0 0 0 .6639 1.4556c.021.018.045.046.066.063A7.978 7.978 0 0 1 0 8.1007 8.0843 8.0843 0 0 1 8.033 0m2.1244 1.8353A1.8835 1.8835 0 0 0 8.2321 3.6706 1.7018 1.7018 0 0 0 8.83 4.9364a1.8648 1.8648 0 0 0 1.3278 .5063 1.8582 1.8582 0 0 0 1.3277 -.5063 1.6484 1.6484 0 0 0 .5312 -1.2658 1.7905 1.7905 0 0 0 -.5312 -1.329A1.8439 1.8439 0 0 0 10.1574 1.8353"/></svg>