
<!-- Generator: Adobe Illustrator 23.0.0, SVG Export Plug-In . SVG Version: 6.00 Build 0)  -->
<svg version="1.1" id="Layer_1" xmlns="http://www.w3.org/2000/svg" xmlns:xlink="http://www.w3.org/1999/xlink" x="0px" y="0px"
	 viewBox="0 0 16 16" style="enable-background:new 0 0 16 16;" xml:space="preserve">
<g>
	<path d="M8,1.6c3.5,0,6.4,2.8,6.5,6.2v0.3c0,3.6-2.9,6.5-6.5,6.5c-1,0-1.9-0.2-2.8-0.6l-0.6-0.3c0,0-0.8,0.5-1.7,0.6
		c0.4-0.6,0.5-1.6,0.5-1.6L2.9,12c-2.2-2.8-1.8-6.8,1-9C5.1,2.1,6.5,1.6,8,1.6 M8,0.1c-4.4,0-8,3.6-8,8c0,1.8,0.6,3.6,1.8,5
		c-0.2,0.8-0.6,1.5-1.1,2.2C0.5,15.6,0.7,16,1,16c1,0.2,2.4-0.3,3.5-0.8C5.6,15.7,6.8,16,8,16c4.4,0,8-3.6,8-8S12.4,0.1,8,0.1z"/>
	<path d="M8.9942,12.1h-2v-2h2V12.1z M8.9942,9.1h-2v-5h2V9.1z"/>
</g>
</svg>
