<svg id="Calque_1" data-name="Calque 1" xmlns="http://www.w3.org/2000/svg" viewBox="0 0 16 16"><path d="M10.81,7.45c.32.18.33-.07.33-.07V6.21l-.73-.45V3.25L11.58,4c.32.18.32-.07.32-.07V2.73L10,1.56,9.91,1.5h0a.22.22,0,0,0-.18,0l0,0-.2.12-.38.23L8,2.53l-.31.2V3.9s0,.25.32.07l1.17-.72V6.44Z"/><path d="M8.42,9.94V9l.75.44a1.11,1.11,0,0,0,.27.12L9.87,9A.68.68,0,0,1,9.43,9l-1-.6v-2a1.23,1.23,0,0,0-.6-1l-1-.58L6.1,4.28V3a.72.72,0,0,1,.34-.61l2-1.15L9.28.71,9.43.62a.71.71,0,0,1,.72,0l3,1.77a.72.72,0,0,1,.34.57V6.05a3,3,0,0,1,.42,0H14V2.93a1.25,1.25,0,0,0-.6-1l-3-1.77a1.2,1.2,0,0,0-1.24,0L9,.26,8.12.79,6.18,1.94A1.23,1.23,0,0,0,5.58,3V4l-.75-.44a1.2,1.2,0,0,0-1.24,0L1.7,4.65l-.87.52L.6,5.3a1.23,1.23,0,0,0-.6,1V10a1.22,1.22,0,0,0,.6,1l3,1.78a1.2,1.2,0,0,0,1.24,0L5,12.68l.89-.53L7.82,11A1.23,1.23,0,0,0,8.42,9.94ZM4.22,5.26h0a.65.65,0,1,1-.65.65A.65.65,0,0,1,4.22,5.26ZM6,10.84,5.74,11l-.94.58-.32.2-.17.1,0,0a.29.29,0,0,1-.16,0h0L4,11.82l-1.6-1v-1s0-.22.28-.06l1,.6V8.27l-.61-.38v-1s0-.21.28-.06l1.38.85V10.4l1-.61c.27-.16.28.06.28.06Z"/><path d="M11.59,12a1,1,0,0,0,1.51,0l1.5-1.69a1.33,1.33,0,0,0,0-1.68,1,1,0,0,0-1.5,0l-.51.56A2.87,2.87,0,0,0,11.24,9l1.15-1.29a2,2,0,0,1,3,0,2.67,2.67,0,0,1,0,3.37l-1.5,1.68c-1.81,2-3.26-.28-3.36-.45l.7-.78.35.45m1.86-1.35a2.53,2.53,0,0,0-.35-.45,1.86,1.86,0,0,0-3,.06l-1.5,1.68a2.55,2.55,0,0,0,0,3.37,1.94,1.94,0,0,0,3,0L12.79,14a2.38,2.38,0,0,1-1.4-.12l-.55.62a1,1,0,0,1-1.5,0,1.33,1.33,0,0,1,0-1.68l1.5-1.68c.85-1,1.75.28,1.8.44l.81-.95"/></svg>