<svg id="Calque_1" data-name="Calque 1" xmlns="http://www.w3.org/2000/svg" viewBox="0 0 16 16"><path d="M14.5,2H1.5A1.5,1.5,0,0,0,0,3.5v8A1.5,1.5,0,0,0,1.5,13H11.82a1.45,1.45,0,0,0,1-.42l2.74-2.74a1.45,1.45,0,0,0,.42-1V3.5A1.5,1.5,0,0,0,14.5,2ZM15,9l-1.25,1.25-.5.49L12,12V9.5a.5.5,0,0,1,.5-.5H15Zm0-1H12.5A1.5,1.5,0,0,0,11,9.5V12H1.5a.5.5,0,0,1-.5-.5v-8A.5.5,0,0,1,1.5,3h13a.5.5,0,0,1,.5.5ZM12.5,7h-9a.5.5,0,0,1,0-1h9a.5.5,0,0,1,0,1ZM9.61,9H3.39A.45.45,0,0,1,3,8.5.45.45,0,0,1,3.39,8H9.61a.45.45,0,0,1,.39.5A.45.45,0,0,1,9.61,9Z"/></svg>