<svg viewBox="0 0 16 16" xmlns="http://www.w3.org/2000/svg"><path d="m14.12271 8.46364-2.118 2.12139-2.1179-2.12139-1.41196 1.41426 2.11794 2.12139-2.11794 2.12138 1.412 1.41426 2.11795-2.12139 2.118 2.12139 1.412-1.41426-2.118-2.12138 2.118-2.12139zm-6.35395 2.12151-.694-.69515-.37884.3813-1.90592-1.918.70218-.70662 1.8946 1.9066.382-.38263 1.412-1.41426.31754-.318-1.8996-1.91153.70228-.70668 1.90594 1.918-.31455.31653.70053.70165 1.17269 1.17454 4.15919-4.11073a.64729.64729 0 0 0 0-.60564l-4.11291-4.1388a.45307.45307 0 0 0 -.50154 0l-11.23515 11.20504a.461.461 0 0 0 0 .50473l4.1128 4.13882a.4534.4534 0 0 0 .5016 0l4.2329-4.1835zm3.34095-8.59146 1.90594 1.918-.60185.70661-1.90594-1.91795zm-1.40441 1.41325.90281.9085-.60185.80759-1.00318-1.00946zm-2.80876 2.82652.90282.90848-.60186.80761-1.00313-1.00947zm-3.00939 6.86435-1.90595-1.817.70217-.70661 1.90595 1.918zm.40121-2.32175-.90281-1.00948.70224-.70658.90281 1.00946z"/></svg>