
<!-- Generator: Adobe Illustrator 23.1.0, SVG Export Plug-In . SVG Version: 6.00 Build 0)  -->
<svg version="1.1" id="Calque_1" xmlns="http://www.w3.org/2000/svg" xmlns:xlink="http://www.w3.org/1999/xlink" x="0px" y="0px"
	 viewBox="0 0 16 16" style="enable-background:new 0 0 16 16;" xml:space="preserve">
<g>
	<path d="M0.33,9C0.15,9,0,9.15,0,9.33v5.34C0,14.85,0.15,15,0.33,15H6.6c-0.44-0.46-0.8199-0.99-1.11-1.57l-0.22-0.44l0.22-0.44
		c0.09-0.19,0.19-0.37,0.3-0.55H5v-2h1v1.68c0.29-0.42,0.63-0.8,1-1.13V10h0.73c0.88-0.58,1.91-0.93,3-1H0.33z M2,12H1v-2h1V12z
		 M4,13H3v-3h1V13z"/>
	<path d="M0,0v7h15V3L0,0z M14,6H1V1.22l13,2.6V6z"/>
</g>
<rect x="7.4399" y="12.5153" transform="matrix(0.7071 -0.7071 0.7071 0.7071 -5.9071 11.7201)" width="7.508" height="0.9504"/>
<path d="M8.01,14.9129l0.6608-0.6608c-0.515-0.2944-0.9326-0.7329-1.2015-1.2616c0.8072-1.2845,2.2079-2.0752,3.7247-2.1027
	c0.2419-0.0099,0.484,0.0103,0.7209,0.0601l0.781-0.781c-0.4911-0.1226-0.9957-0.1832-1.5019-0.1802
	c-2.047-0.0085-3.9167,1.1601-4.8061,3.0038C6.7582,13.7576,7.3161,14.4188,8.01,14.9129z"/>
<path d="M14.4381,11.068l-0.6608,0.6608c0.4832,0.3332,0.8923,0.7627,1.2015,1.2616c-0.8088,1.2828-2.2085,2.073-3.7247,2.1027
	c-0.2631-0.0194-0.5242-0.0595-0.781-0.1202l-0.781,0.781c1.2744,0.3811,2.6451,0.2741,3.8449-0.3004
	c1.0691-0.5284,1.9347-1.394,2.4631-2.4631C15.6322,12.2394,15.098,11.582,14.4381,11.068z"/>
</svg>
