<svg viewBox="0 0 16 16" xmlns="http://www.w3.org/2000/svg"><path d="m15.34073 6.06672a4.61112 4.61112 0 0 0 -1.30907-.58122 2.18656 2.18656 0 0 0 -2.23612.50472 3.15246 3.15246 0 0 1 -2.29489 1.00978 4.93974 4.93974 0 0 1 -2.69077-1.34981c-.06713-.07634-1.75632-1.95612-6.197.34134a.41919.41919 0 0 1 -.48969-.07653.42333.42333 0 0 1 .10466-.67374 13.17505 13.17505 0 0 1 1.743-.7573l-.22885-1.1121a.42037.42037 0 1 1 .82322-.17076l.21411 1.04076a7.86221 7.86221 0 0 1 .99974-.187l-.011-1.63a.42033.42033 0 1 1 .84063-.00563l.01069 1.59157a5.10057 5.10057 0 0 1 .9193.09615.42089.42089 0 0 1 .03416-.10372l.57515-1.16688a.42057.42057 0 1 1 .75328.37427l-.56155 1.13938a3.1275 3.1275 0 0 1 1.0592.696l.50607-1.02682a.42056.42056 0 1 1 .75327.37427l-.60193 1.22122a3.21626 3.21626 0 0 0 .92892.45362l.45974-1.40412a.42042.42042 0 1 1 .79845.26362l-.3952 1.20693a2.4019 2.4019 0 0 0 1.35292-.7413c.0584-.05864.11812-.11255.17842-.16426l-.4589-.91226a.42066.42066 0 1 1 .75037-.38048l.424.84289a2.9221 2.9221 0 0 1 1.01588-.23l-.006-.88979a.42023.42023 0 1 1 .84043-.00582l.00642.95276a4.93859 4.93859 0 0 1 1.86719.76631.42142.42142 0 0 1 -.4783.694zm-.34073 4.26653v5.33307a.33265.33265 0 0 1 -.33337.33344l-14.33326.00024a.33264.33264 0 0 1 -.33337-.33337v-5.33313a.33279.33279 0 0 1 .33337-.33338l14.33338-.00012a.33243.33243 0 0 1 .33325.33325zm-13 .66675h-1v2h1zm2 0h-1v3h1zm2 0h-1v2h1zm2 0h-1v3h1zm2 0h-1v2h1zm2 0h-1v3h1zm2 0h-1v2h1z"/></svg>