<svg id="Calque_1" data-name="Calque 1" xmlns="http://www.w3.org/2000/svg" viewBox="0 0 16 16"><path d="M7.34,10.21H0V9.43L1.57,7.86V5.5A4,4,0,0,1,4.48,1.34V.94A1,1,0,0,1,5.5,0a1.09,1.09,0,0,1,1,.94v.4A4,4,0,0,1,9.43,5.5V7.73A5.08,5.08,0,0,0,7.34,10.21ZM3.93,11a1.57,1.57,0,0,0,3.14,0ZM16,11.56v.88c0,.1,0,.15-1,.56l-.15.36v.05c.45,1,.4,1.07.35,1.17l-.61.56a.16.16,0,0,1-.1,0,4.2,4.2,0,0,1-1-.41l-.36.1v0C12.71,16,12.66,16,12.56,16H11.44c-.1,0-.15,0-.55-1.07v0l-.36-.1a4.2,4.2,0,0,1-1,.41.16.16,0,0,1-.1,0l-.61-.56c-.05-.1-.1-.17.35-1.17v-.05L9,13c-1-.41-1-.46-1-.56v-.88c0-.1,0-.15,1-.56l.21-.36v-.05c-.46-1-.36-1-.36-1.12l.61-.61s.1,0,.1,0a6.89,6.89,0,0,1,1,.41l.36-.1v0C11.34,8,11.39,8,11.49,8h1c.1,0,.15,0,.55,1.07v0l.36.1a6.89,6.89,0,0,1,1-.41s.1,0,.1,0l.61.61c0,.1.1.1-.36,1.12v.05L15,11C16,11.41,16,11.46,16,11.56ZM13.56,12A1.52,1.52,0,0,0,12,10.48H12a1.52,1.52,0,0,0,0,3h.1A1.52,1.52,0,0,0,13.56,12Z"/></svg>