
<!-- Generator: Adobe Illustrator 23.0.1, SVG Export Plug-In . SVG Version: 6.00 Build 0)  -->
<svg version="1.1" id="Calque_1" xmlns="http://www.w3.org/2000/svg" xmlns:xlink="http://www.w3.org/1999/xlink" x="0px" y="0px"
	 viewBox="0 0 16 16" style="enable-background:new 0 0 16 16;" xml:space="preserve">
<g>
	<path d="M10.4844,7.2773c0,0-0.9214-0.2773-0.9214-1.4053L10.375,2c0,0,0-2-2-2s-2,2-2,2l0.812,3.8721
		C7.187,7,6.2656,7.2773,6.2656,7.2773L3.375,8v1h10V8L10.4844,7.2773z"/>
	<path d="M13.375,10c0,0,1,4-1,6c0,0-3.76,0-6.57,0v-1.44L5.135,16h-1.37c0.42-0.42,0.4-1.11,0.26-1.79
		c-0.14,0.78-0.71,1.29-1.39,1.79h-2.26c0,0,3-1,3-6H13.375z"/>
</g>
</svg>
