
<!-- Generator: Adobe Illustrator 23.0.1, SVG Export Plug-In . SVG Version: 6.00 Build 0)  -->
<svg version="1.1" id="Palette_1_" xmlns="http://www.w3.org/2000/svg" xmlns:xlink="http://www.w3.org/1999/xlink" x="0px" y="0px"
	 viewBox="0 0 32 32" enable-background="new 0 0 32 32" xml:space="preserve">
<path id="Palette" d="M31.2851,5.3801C27.0147-0.4533,16.875-0.3125,8.8522,5.3115C0.6491,11.0619-2.221,20.669,1.926,26.6859
	c4.1365,6.0016,14.199,5.4391,22.4345,0.0667c4.383-2.8592,4.8141-4.4653,4.5211-6.0613c-0.3551-1.9427-2.2223-1.9674-2.6162-4.6087
	c-0.4502-3.0031,1.6635-3.599,4.2723-5.7377C31.8782,9.2515,32.5625,7.125,31.2851,5.3801z M7,26c-1.6568,0-3-1.1193-3-2.5
	S5.3432,21,7,21c1.6569,0,3,1.1193,3,2.5S8.6569,26,7,26z M7,18c-1.6568,0-3-1.1193-3-2.5S5.3432,13,7,13c1.6569,0,3,1.1193,3,2.5
	S8.6569,18,7,18z M13,12.0078c-1.6569,0-3-1.121-3-2.5039S11.3431,7,13,7s3,1.121,3,2.5039S14.6569,12.0078,13,12.0078z M18,6.5
	C18,5.1193,19.3437,4,21.0013,4s3.0013,1.1193,3.0013,2.5S22.6589,9,21.0013,9S18,7.8807,18,6.5z M22.0172,24
	c-1.6576,0-3.0013-1.1193-3.0013-2.5s1.3438-2.5,3.0013-2.5c1.6576,0,3.0013,1.1193,3.0013,2.5S23.6748,24,22.0172,24z"/>
</svg>
