
<!-- Generator: Adobe Illustrator 23.0.1, SVG Export Plug-In . SVG Version: 6.00 Build 0)  -->
<svg version="1.1" id="Calque_1" xmlns="http://www.w3.org/2000/svg" xmlns:xlink="http://www.w3.org/1999/xlink" x="0px" y="0px"
	 viewBox="0 0 32 32" style="enable-background:new 0 0 32 32;" xml:space="preserve">
<path d="M22.5,4.5l-22,5l3,18l28-9L22.5,4.5z M3.5068,15.3754l6.2817-1.7947l1.0333,3.6169l-6.6864,1.95L3.5068,15.3754z
	 M10.7504,13.3058l6.2795-1.7941l1.7474,3.3656l-6.995,2.04L10.7504,13.3058z M10.4756,12.3439l-0.821-2.8735l5.649-1.2839
	l1.2559,2.419L10.4756,12.3439z M18.0111,11.2314l5.4395-1.5541l2.0773,3.2314l-5.7722,1.6834L18.0111,11.2314z M19.2471,15.7822
	l2.0269,3.904l-7.9688,2.5613l-1.248-4.3681L19.2471,15.7822z M20.2253,15.4968l5.8663-1.7112l2.3186,3.6067l-6.1712,1.9836
	L20.2253,15.4968z M22.8854,8.7982l-5.3447,1.5271l-1.2291-2.3678l5.2643-1.1964L22.8854,8.7982z M8.6777,9.6924l0.8361,2.9263
	l-6.1724,1.7636L2.783,11.0322L8.6777,9.6924z M4.3012,20.1418l6.7956-1.9822l1.2554,4.3943l-7.2601,2.3336L4.3012,20.1418z"/>
</svg>
