<svg viewBox="0 0 16 16" xmlns="http://www.w3.org/2000/svg"><path d="m14.98734 11.00375-.20253-.36045v-.05006c.4557-1.00125.40506-1.07134.35443-1.17146l-.60759-.5607a.17291.17291 0 0 0 -.10127-.05007c-.05063 0-.1519 0-1.01266.41052h-.05063l-.40506-.1602v-.06008c-.4557-1.00125-.50633-1.00125-.6076-1.00125h-.86076c-.10127 0-.1519 0-.557 1.07134v.05006l-.35443.10013a6.57475 6.57475 0 0 0 -1.01262-.41053s-.10127 0-.10127.05007l-.60759.61076c0 .10013-.10127.10013.35443 1.1214v.05006l-.20253.36045c-1.01266.41053-1.01266.46059-1.01266.56072v.87108c0 .10013 0 .15019 1.01266.5607l.1519.36046v.05006c-.4557 1.00125-.40507 1.07134-.35443 1.17146l.60759.5607a.17294.17294 0 0 0 .10128.05008 4.02348 4.02348 0 0 0 1.01266-.41052l.35443.10013v.05006c.40505 1.07133.45568 1.07133.55691 1.07133h.86076c.10126 0 .1519 0 .557-1.07134v-.05006l.35443-.15019h.05063a6.584 6.584 0 0 0 1.01266.41051c.05064 0 .10127 0 .10127-.05006l.60759-.61076c.10127-.10013.10127-.10013-.35443-1.1214v-.05007l.1519-.36045h.20253c1.01266-.41051 1.01266-.46057 1.01266-.5607v-.821c0-.10015 0-.15021-1.01266-.56073zm-3.038 2.51315a1.519 1.519 0 1 1 .02032 0q-.01014.0001-.02029 0zm-8.44934-10.8919h-.875v-1.75a.82666.82666 0 0 1 .875-.875h7a.82666.82666 0 0 1 .875.875v1.75h-.875v-1.75h-7zm.875 6.125h3.85388a4.97541 4.97541 0 0 0 -.60321.875h-3.25067zm2.763 4.375h-3.638v-5.25h5.679a4.97049 4.97049 0 0 1 4.821-.45288v-3.04712a.82666.82666 0 0 0 -.875-.875h-12.25a.82666.82666 0 0 0 -.875.875v5.25a.82669.82669 0 0 0 .875.875h1.75v2.625a.82669.82669 0 0 0 .875.875h3.92212a4.96174 4.96174 0 0 1 -.28412-.875zm5.112-8.75a.82666.82666 0 0 1 .875.875.875.875 0 0 1 -1.75 0 .82666.82666 0 0 1 .875-.875zm-4.99561 6.125a4.94435 4.94435 0 0 0 -.1914.875h-2.68799v-.875z"/></svg>