
<!-- Generator: Adobe Illustrator 21.1.0, SVG Export Plug-In . SVG Version: 6.00 Build 0)  -->
<svg version="1.1" id="Layer_1" xmlns="http://www.w3.org/2000/svg" xmlns:xlink="http://www.w3.org/1999/xlink" x="0px" y="0px"
	 viewBox="0 0 16 16" style="enable-background:new 0 0 16 16;" xml:space="preserve">
<path d="M6.8,3.5L6.6,3.1v0C7.1,2.1,7,2.1,7,2L6.4,1.4c0,0,0,0-0.1,0c0,0-0.1,0-1,0.4h0L4.9,1.6v0c-0.4-1-0.5-1-0.6-1H3.5
	c-0.1,0-0.1,0-0.5,1v0L2.6,1.7h0C2,1.5,1.6,1.3,1.5,1.3c0,0-0.1,0-0.1,0L0.8,2c0,0.1-0.1,0.1,0.3,1.1v0L1.1,3.5h0C0,3.9,0,3.9,0,4
	v0.8C0,5,0,5.1,1,5.5h0l0.1,0.3v0c-0.4,1-0.4,1-0.3,1.1l0.6,0.6c0,0,0,0,0.1,0s0.1,0,1-0.4h0L3,7.3v0c0.4,1,0.4,1,0.5,1h0.8
	c0.1,0,0.1,0,0.5-1v0l0.3-0.1h0c0.6,0.2,0.9,0.4,1,0.4c0,0,0.1,0,0.1,0L7,6.9c0.1-0.1,0.1-0.1-0.3-1.1v0l0.1-0.3h0
	c1-0.4,1-0.5,1-0.6V4C7.9,3.9,7.9,3.9,6.8,3.5 M3.9,5.9c-0.8,0-1.5-0.6-1.5-1.5S3.1,3,3.9,3s1.5,0.6,1.5,1.5S4.8,5.9,3.9,5.9"/>
<path d="M10.7,6.5l-0.5,0.1l-0.1,0c-1.1-1-1.2-1-1.3-1l-1,0.5c0,0-0.1,0-0.1,0.1c0,0.1-0.1,0.2,0.1,1.5l0,0.1L7.4,8.1l-0.1,0
	C5.8,8.2,5.8,8.2,5.8,8.4L5.4,9.5c0,0.1-0.1,0.2,1.1,1.2l0.1,0l0,0.5l0,0.1c-0.6,0.7-0.9,1-1,1.2c0,0.1,0,0.1,0,0.2l0.6,1.1
	c0.1,0.1,0.1,0.2,1.6,0l0.1,0l0.4,0.3l0,0.1c0,1.5,0.1,1.5,0.2,1.6L9.4,16c0.2,0.1,0.3,0.1,1.2-1.1l0-0.1l0.5,0l0.1,0
	c1.1,1,1.2,1,1.3,1l1-0.5c0,0,0.1,0,0.1-0.1c0-0.1,0.1-0.2-0.1-1.5l0-0.1l0.3-0.4l0.1,0c1.5,0,1.5-0.1,1.6-0.2L16,12
	c0-0.1,0.1-0.2-1.1-1.2l-0.1,0l0-0.5l0-0.1c0.6-0.7,0.9-1,1-1.2c0-0.1,0-0.1,0-0.2l-0.5-1c-0.1-0.2-0.1-0.2-1.6,0l-0.1,0l-0.4-0.3
	l0-0.1c-0.1-1.5-0.2-1.6-0.3-1.6l-1.1-0.4C11.8,5.3,11.7,5.3,10.7,6.5 M12.6,11.4c-0.4,1.1-1.5,1.6-2.6,1.2S8.4,11.1,8.8,10
	s1.5-1.6,2.6-1.2C12.5,9.1,13,10.3,12.6,11.4"/>
</svg>
