<svg xmlns="http://www.w3.org/2000/svg" viewBox="0 0 16 16"><path d="M10,.0024a1.533,1.533,0,0,1,1.6608,1.3937q.0046.053.0056.106a2.1831,2.1831,0,0,1-2.1663,2A1.5665,1.5665,0,0,1,7.8334,1.8354,2.05,2.05,0,0,1,10,.0024ZM6.6669,16c-.8332,0-1.5-.5-.8332-2.8329l1-3.9994c.1666-.6666.1666-.8332,0-.8332a6.0375,6.0375,0,0,0-2.1663.8332l-.3333-.8332A10.8315,10.8315,0,0,1,9.8331,5.6682c.8332,0,1,1,.5,2.6663L9.1665,12.6672c-.1666.8332-.1666,1,.1666,1a3.3327,3.3327,0,0,0,1.8331-1l.5.6665A9.6153,9.6153,0,0,1,6.6669,16Z"/></svg>