<svg xmlns="http://www.w3.org/2000/svg" xmlns:xlink="http://www.w3.org/1999/xlink" viewBox="0 0 16 16"><defs><clipPath id="a"><rect x="10" y="9" width="5" height="5" rx="0.5456" ry="0.5456" fill="none"/></clipPath></defs><path d="M0,14a1,1,0,0,0,1,1H15a1,1,0,0,0,1-1V5H0Z" fill="#f6d97a"/><rect x="9.5" y="8.5" width="6" height="6" rx="1.0459" ry="1.0459" fill="#fff"/><g clip-path="url(#a)"><rect x="10" y="9" width="5" height="5" rx="0.5456" ry="0.5456" fill="#005398"/><path d="M13.64,10.7228c-.1087-.6444.347-1.2588,1.1754-1.7361H12.9526a1.7779,1.7779,0,0,0-.9438,1.6823c.2435,1.4432,2.98,2.4783,6.1111,2.3118a11.7321,11.7321,0,0,0,1.4961-.1744q-.1947.0171-.3945.0278C16.3614,12.9863,13.8625,12.041,13.64,10.7228Z" fill="#003571"/><path d="M11.6575,10.6718a1.7973,1.7973,0,0,1,.88-1.6851H10.4807A1.8031,1.8031,0,0,0,9.7828,10.61c.28,1.6586,3.6183,2.5813,7.2172,2.39a11.9714,11.9714,0,0,0,1.5252.0662q-.2238.02-.4533.0322C14.7849,13.2732,11.9131,12.1867,11.6575,10.6718Z" fill="#003571"/><path d="M13.4719,10.617c-.1065-.6315.34-1.2336,1.1519-1.7014H12.7982a1.7424,1.7424,0,0,0-.9249,1.6486c.2386,1.4144,2.92,2.4287,5.9886,2.2655a11.4964,11.4964,0,0,0,1.4661-.1709q-.1908.0168-.3866.0273C16.1386,12.8351,13.69,11.9087,13.4719,10.617Z" fill="#fff"/><path d="M11.4735,10.567a1.7613,1.7613,0,0,1,.8629-1.6514H10.32a1.7666,1.7666,0,0,0-.6839,1.5907c.2742,1.6254,3.3555,2.791,6.8823,2.6036a13.2254,13.2254,0,0,0,1.6849-.1965q-.2195.0193-.4443.0315C14.5382,13.1162,11.7239,12.0515,11.4735,10.567Z" fill="#62ba46"/></g><path d="M16,4V5H0V2A1,1,0,0,1,1,1H5.1716a2,2,0,0,1,1.4142.5858L8,3h7A1,1,0,0,1,16,4ZM1,7H9V6H1ZM1,9H7V8H1Z" fill="#e7b93a"/></svg>