<svg id="Calque_1" data-name="Calque 1" xmlns="http://www.w3.org/2000/svg" viewBox="0 0 16 16"><path d="M13.98587,6.28824a3.56358,3.56358,0,0,0-3.6894-3.68939A3.9461,3.9461,0,0,0,9.073,2.77767,2.74961,2.74961,0,0,0,6.21174.17059,2.49173,2.49173,0,0,0,3.8306,1.55415a1.571,1.571,0,0,0-.58353-.11293A1.64015,1.64015,0,0,0,1.58117,2.8624,2.23789,2.23789,0,0,0,0,5.0553,2.34985,2.34985,0,0,0,2.34352,7.39888h.25414a2.91841,2.91841,0,0,0-.42354,1.54349A2.97039,2.97039,0,0,0,5.13879,11.9071h7.89648A2.97041,2.97041,0,0,0,16,8.94237,2.6496,2.6496,0,0,0,13.98587,6.28824Zm-.9506,4.67768H5.13879a2.02644,2.02644,0,0,1-2.0235-2.02355A1.88978,1.88978,0,0,1,4.8,6.99412l.41412-.05646V6.28824A1.08114,1.08114,0,0,1,6.35294,5.22477a1.25526,1.25526,0,0,1,.76235.31054l.48.35765.2353-.54589A3.09877,3.09877,0,0,1,8.87529,3.88825a2.404,2.404,0,0,1,1.15763-.33881A2.37782,2.37782,0,0,1,10.29647,3.54a2.66324,2.66324,0,0,1,2.74822,2.90826V7.1259l.433.03769a1.693,1.693,0,0,1,1.58117,1.77878A2.02648,2.02648,0,0,1,13.03527,10.96592Z"/><path d="M4.06408,16a.51131.51131,0,0,1-.18457-.03516.50088.50088,0,0,1-.28027-.64941l.91015-2.28516a.50015.50015,0,0,1,.92969.36914l-.91016,2.28516A.50063.50063,0,0,1,4.06408,16Z"/><path d="M6.68029,16a.51131.51131,0,0,1-.18457-.03516.50088.50088,0,0,1-.28027-.64941l.90918-2.28516a.50014.50014,0,1,1,.92968.36914l-.90918,2.28516A.50063.50063,0,0,1,6.68029,16Z"/><path d="M9.29552,16a.51131.51131,0,0,1-.18457-.03516.50089.50089,0,0,1-.28027-.64941l.91016-2.28516a.50014.50014,0,0,1,.92968.36914l-.91015,2.28516A.50064.50064,0,0,1,9.29552,16Z"/><path d="M9.29552,16a.51131.51131,0,0,1-.18457-.03516.50089.50089,0,0,1-.28027-.64941l.91016-2.28516a.50014.50014,0,0,1,.92968.36914l-.91015,2.28516A.50064.50064,0,0,1,9.29552,16Z"/><path d="M11.82287,16a.51123.51123,0,0,1-.18457-.03516.50089.50089,0,0,1-.28028-.64941l.90918-2.28516a.50015.50015,0,0,1,.92969.36914l-.90918,2.28516A.50063.50063,0,0,1,11.82287,16Z"/></svg>