<svg xmlns="http://www.w3.org/2000/svg"
	 viewBox="0 0 16 16">
<g>
	<path d="M15.10999,7.10999H14.13C13.73999,4.39001,11.60999,2.26001,8.89001,1.87V0.89001C8.89001,0.40002,8.48999,0,8,0
		S7.10999,0.40002,7.10999,0.89001V1.87C4.39001,2.26001,2.26001,4.39001,1.87,7.10999H0.89001C0.40002,7.10999,0,7.51001,0,8
		s0.40002,0.89001,0.89001,0.89001H1.87c0.39001,2.71997,2.52002,4.84998,5.23999,5.23999v0.97998C7.10999,15.59998,7.51001,16,8,16
		s0.89001-0.40002,0.89001-0.89001V14.13c2.71997-0.39001,4.84998-2.52002,5.23999-5.23999h0.97998
		C15.59998,8.89001,16,8.48999,16,8S15.59998,7.10999,15.10999,7.10999z M8,12.52002C5.5,12.52002,3.47998,10.5,3.47998,8
		S5.5,3.47998,8,3.47998S12.52002,5.5,12.52002,8S10.5,12.52002,8,12.52002z"/>
	<circle cx="8" cy="8" r="2"/>
</g>
</svg>
