
<!-- Generator: Adobe Illustrator 21.1.0, SVG Export Plug-In . SVG Version: 6.00 Build 0)  -->
<svg version="1.1" id="Layer_1" xmlns="http://www.w3.org/2000/svg" xmlns:xlink="http://www.w3.org/1999/xlink" x="0px" y="0px"
	 viewBox="0 0 16 16" style="enable-background:new 0 0 16 16;" xml:space="preserve">
<path d="M15.8,2.9l-2.5-2.5C13,0.1,12.7,0,12.3,0c-0.4,0-0.7,0.1-1,0.4L9.5,2.1l4.3,4.5l1.8-1.8c0.3-0.3,0.4-0.6,0.4-1
	C16,3.5,15.9,3.1,15.8,2.9z M6,8.3l-2.4,2.4c-0.1,0.1-0.1,0.1-0.2,0.1c-0.1,0-0.2,0-0.2-0.2c0-0.1,0.1-0.2,0.1-0.2L5.7,8L4.6,7
	L0,11.6V16h4.4L9,11.4L6,8.3z M3.8,14.6H2.7v-1.4H1.3v-1.1l1-1l2.5,2.5L3.8,14.6z M8.8,2.8L7,4.6L8,5.7l0.9-1
	c0.1-0.1,0.1-0.1,0.2-0.1c0.1,0,0.2,0,0.2,0.2C9.4,4.9,9.3,5,9.3,5l-1,1L11.4,9l1.8-1.8L8.8,2.8z"/>
<rect x="7.2" y="-2.3" transform="matrix(0.7071 -0.7071 0.7071 0.7071 -3.3137 8)" width="1.5" height="20.5"/>
</svg>
