
<!-- Generator: Adobe Illustrator 23.1.0, SVG Export Plug-In . SVG Version: 6.00 Build 0)  -->
<svg version="1.1" id="Layer_1" xmlns="http://www.w3.org/2000/svg" xmlns:xlink="http://www.w3.org/1999/xlink" x="0px" y="0px"
	 viewBox="0 0 32 32" style="enable-background:new 0 0 32 32;" xml:space="preserve">
<path d="M26.52112,5.84863L29,4l-7-1l2,7l1.58124-2.9765c2.56384,1.77075,3.92328,4.26331,3.67169,6.9057
	C28.91602,17.48242,26.50684,20.64037,23,21.47826V23c4.13184-0.98633,7.34863-4.73633,7.74707-8.9292
	C31.04309,10.94714,29.45074,7.92682,26.52112,5.84863z"/>
<path d="M5.36673,26.15137L2.82635,28L10,29l-2.04961-7l-1.62046,2.9765c-2.62744-1.77075-4.0206-4.26331-3.76277-6.9057
	c0.34527-3.55322,2.81422-6.71117,6.40804-7.54906V9c-4.23433,0.98633-7.53093,4.73633-7.93925,8.9292
	C0.73258,21.05286,2.36443,24.07318,5.36673,26.15137z"/>
<polygon points="19,4.32278 17.67722,3 16,4.67722 14.32278,3 13,4.32278 14.67722,6 13,7.67722 14.32278,9 16,7.32278 17.67722,9 
	19,7.67722 17.32278,6 "/>
<polygon points="19,14.32278 17.67722,13 16,14.67722 14.32278,13 13,14.32278 14.67722,16 13,17.67722 14.32278,19 16,17.32278 
	17.67722,19 19,17.67722 17.32278,16 "/>
<polygon points="19,24.32278 17.67722,23 16,24.67722 14.32278,23 13,24.32278 14.67722,26 13,27.67722 14.32278,29 16,27.32278 
	17.67722,29 19,27.67722 17.32278,26 "/>
</svg>
