<svg xmlns="http://www.w3.org/2000/svg" viewBox="0 0 16 16" enable-background="new 0 0 16 16"><g><path d="m.4 13.4c-.6.6-.6 1.5 0 2.1.3.4.7.5 1.1.5.4 0 .8-.1 1.1-.4l4.9-4.9-2.1-2.2-5 4.9"/><path d="m12.7 4.3l2.1-1.1 1.2-2.2-1-1-2.2 1.1-1.1 2.1-2.6 2.7 1.1 1.1 2.5-2.7"/><path d="m13.2 10h-.2c-.4 0-.7.1-1 .2l-6.2-6.2c.1-.3.2-.6.2-1v-.2c-.1-1.6-1.4-2.8-3-2.8-.4 0-.9.1-1.3.3l2 2c.1.1.2.2.2.4.2.3.1.7-.2 1-.2.2-.4.3-.7.3-.1 0-.2 0-.3-.1-.1 0-.3-.1-.4-.2l-2-2c-.2.4-.3.8-.3 1.3 0 1.6 1.2 2.9 2.8 3h.2c.4 0 .7-.1 1-.2l6.2 6.2c-.1.3-.2.7-.2 1v.2c.1 1.6 1.4 2.8 3 2.8.5 0 .9-.1 1.3-.3l-2-2c-.1-.1-.2-.2-.2-.4-.1-.4-.1-.8.2-1.1.2-.2.4-.3.7-.3.1 0 .2 0 .3.1.1 0 .3.1.4.2l2 2c.2-.4.3-.8.3-1.3 0-1.5-1.2-2.8-2.8-2.9"/></g></svg>