
<!-- Generator: Adobe Illustrator 22.0.0, SVG Export Plug-In . SVG Version: 6.00 Build 0)  -->
<svg version="1.1" id="Layer_1" xmlns="http://www.w3.org/2000/svg" xmlns:xlink="http://www.w3.org/1999/xlink" x="0px" y="0px"
	 viewBox="0 0 16 16" style="enable-background:new 0 0 16 16;" xml:space="preserve">
<path d="M11.1,1.5V1.3c0-0.1,0-0.1-0.1-0.1l0,0H9.4V0h-3v1.2H4.8c-0.1,0-0.1,0-0.1,0.1l0,0v0.2H2V16h12V1.5H11.1 M13,15H3V2h1.7v0.6
	c0,0.1,0,0.1,0.1,0.1l0,0H11c0.1,0,0.1,0,0.1-0.1l0,0V2H13V15"/>
<rect x="4" y="11" width="8" height="1"/>
<rect x="4" y="9" width="6" height="1"/>
<rect x="4" y="13" width="7" height="1"/>
<g>
	<path d="M11,5v2H5V5H11 M12,4H4v4h8V4L12,4z"/>
</g>
</svg>
