<svg xmlns="http://www.w3.org/2000/svg" viewBox="0 0 16 16"><path d="M7,13.8v-.41l.29-.29L7.39,13H4a1,1,0,0,1-1-1V9A1,1,0,0,1,4,8h6a1,1,0,0,1,1,1v.39L11.35,9l0,0,.72-.68L12.4,8h0l.53-.5A1.61,1.61,0,0,1,14,7V0H0V12l2,2H7ZM2,6.5v-5A.5.5,0,0,1,2.5,1h9a.5.5,0,0,1,.5.5v5a.5.5,0,0,1-.5.5h-9A.5.5,0,0,1,2,6.5Z"/><path d="M5 9a1 1 0 0 1 1 1v1a1 1 0 1 1 -2 0V10A1 1 0 0 1 5 9"/><path d="m12.4 9.4l2.2 2.2-4.4 4.4h-2.2v-2.2m1.9 1.5l.5-.5-1.25-1.25-.5.5v.55h.7v.7m3.35-4.9c0-.1-.05-.1-.1-.1s-.05 0-.1 0l-2.85 2.9a.17 .17 0 0 0 0 .1c0 .1 0 .1.1.1s0 0 .1-.05l2.85-2.85a.17 .17 0 0 0 0 -.1m3.3-.5a.64 .64 0 0 1 -.2 .5l-.9.9-2.15-2.25.9-.85a.72 .72 0 0 1 1 0l1.25 1.25a1.19 1.19 0 0 1 .1 .45"/></svg>