<svg viewBox="0 0 16 16" xmlns="http://www.w3.org/2000/svg"><path d="m7 3.375 3 4.5h-3.79883l-.35565-.48016-.80286-1.08384zm-5 4.5h3.33337l-1.66668-2.25zm.72681 1.125h4.49792a1.86625 1.86625 0 0 1 .72357-.75h-5.9483zm4.27319 2h-3.25l-2.75-2.75v-4.5l2.75-2.75h4.5l2.75 2.75v4.25h1v-7.25a.75.75 0 0 0 -.75-.75h-10.5a.75.75 0 0 0 -.75.75v10.5a.75.75 0 0 0 .75.75h6.25zm9-1.125v3.20833a1.034 1.034 0 0 1 -1 .91667h-3l-2 2v-2h-1a1.034 1.034 0 0 1 -1-.91667v-3.20833a.86623.86623 0 0 1 .85714-.875h6.28572a.8662.8662 0 0 1 .85714.875zm-4 2.625c0-.27612-.13425-.5-.3-.5h-2.4c-.16564 0-.3.22388-.3.5s.13436.5.3.5h2.4c.16575 0 .3-.22394.3-.5zm3-2c0-.27612-.13433-.5-.3-.5h-5.4c-.16564 0-.3.22388-.3.5s.13436.5.3.5h5.4c.16567 0 .3-.22382.3-.5z"/></svg>