<svg xmlns="http://www.w3.org/2000/svg" viewBox="0 0 16 16"><path d="M8.05,13.67A1.81,1.81,0,0,1,7.16,13H4a1,1,0,0,1-1-1V9A1,1,0,0,1,4,8H8.91a1.11,1.11,0,0,1,.64-.19,2,2,0,0,1,.78.21c.28-.65.57-1,1.22-1h.85c.63,0,.92.35,1.24,1L14,7.88V0H0V12l2,2H7.94C8,13.89,8,13.79,8.05,13.67ZM2,6.5v-5A.5.5,0,0,1,2.5,1h9a.5.5,0,0,1,.5.5v5a.5.5,0,0,1-.5.5h-9A.5.5,0,0,1,2,6.5Z"/><path d="M5 9a1 1 0 0 1 1 1v1a1 1 0 1 1 -2 0V10A1 1 0 0 1 5 9"/><path d="M15,11h0l-.2-.36v-.05c.45-1,.4-1.07.35-1.17l-.6-.56a.17.17,0,0,0-.1-.05c-.05,0-.15,0-1,.41h-.05L13,9.06V9c-.45-1-.5-1-.6-1h-.85c-.1,0-.15,0-.55,1.07v.05l-.35.1h0a6.45,6.45,0,0,0-1-.41s-.1,0-.1.05l-.6.61c0,.1-.1.1.35,1.12v.05L9.1,11h0c-1,.41-1,.46-1,.56v.87c0,.1,0,.15,1,.56h0l.15.36v.05c-.45,1-.4,1.07-.35,1.17l.6.56a.17.17,0,0,0,.1.05s.15,0,1-.41h0l.35.1v.05c.4,1.07.45,1.07.55,1.07h.85c.1,0,.15,0,.55-1.07v-.05l.35-.15h.05a6.46,6.46,0,0,0,1,.41c.05,0,.1,0,.1-.05l.6-.61c.1-.1.1-.1-.35-1.12V13.3l.15-.36H15c1-.41,1-.46,1-.56v-.82c0-.1,0-.15-1-.56ZM12,13.51A1.5,1.5,0,1,1,13.51,12,1.5,1.5,0,0,1,12,13.51Z"/></svg>