<svg viewBox="0 0 16 16" xmlns="http://www.w3.org/2000/svg"><path d="m12 8a4 4 0 1 0 4 4 4 4 0 0 0 -4-4zm-.675 6-1.825-1.705.7-.65 1.18 1.1 2.415-2.245.705.645zm-3.10363-5.24084h-6.01507c.36047-2.72394.82294-6.19379.96149-7.125.23721-1.59339 1.26471-1.63416 1.26471-1.63416h8.69488c-.98816.04077-1.10669 1.96094-1.10669 1.96094s-.34466 2.654-.66986 5.10449a4.9575 4.9575 0 0 0 -3.12946 1.69373zm4.59571-6.14582c.20227-2.14034.73669-1.99127.73669-1.99127a7.239 7.239 0 0 1 .44623 1.99127zm-5.79187 9.63666h-5.72162c-.93689 0-1.30359-2.61469-1.30359-2.61469h7.62006a4.94426 4.94426 0 0 0 -.62006 2.36469c0 .08563.02094.16541.02521.25z"/></svg>