<svg viewBox="0 0 16 16" xmlns="http://www.w3.org/2000/svg"><path d="m12.77637 14.6709.89453-.44727-1.6709-3.34179v-8.88184h-8v8.88184l-1.6709 3.34179.89453.44727 1.33545-2.6709h6.88184zm-7.77637-11.6709h6v8h-6z" opacity=".5"/><path d="m12 2h-8l-2 2v11h12v-11zm-7.58575 1h7.1715l1.00007 1h-9.17164zm8.58575 11h-10v-9h10z"/><path d="m13.625.3125h-11.25l-1.875 1.875v6.5h15v-6.5z" opacity=".5"/><path d="m13.58578 1 1.41422 1.41422v5.58578h-14v-5.58578l1.41422-1.41422zm.41422-1h-12l-2 2v7h16v-7z"/></svg>