<svg id="Calque_1" data-name="Calque 1" xmlns="http://www.w3.org/2000/svg" viewBox="0 0 16 16"><path class="cls-1" d="M13,8V9.23a6.45249,6.45249,0,0,0-1.83-.22,6.3272,6.3272,0,0,0-5.68,3.57l-.21.43A5.46022,5.46022,0,0,0,7.78,16H3V8Z"/><rect x="3" y="2" width="10" height="4"/><rect x="3" width="2" height="1"/><polygon points="0 2 1 2 1 1 2 1 2 0 0 0 0 2"/><rect x="15" y="3" width="1" height="2"/><rect x="3" y="7" width="2" height="1"/><polygon points="1 6 0 6 0 8 2 8 2 7 1 7 1 6"/><rect y="3" width="1" height="2"/><rect x="7" width="2" height="1"/><rect x="11" y="7" width="2" height="1"/><rect x="7" y="7" width="2" height="1"/><polygon points="14 0 14 1 15 1 15 2 16 2 16 0 14 0"/><rect x="11" width="2" height="1"/><polygon points="15 7 14 7 14 8 16 8 16 6 15 6 15 7"/><path d="M11.194,9.99021A5.3115,5.3115,0,0,0,6.3879,12.994a5.3438,5.3438,0,0,0,7.14373,2.46567l.00527-.00257A5.43276,5.43276,0,0,0,16,12.994a5.31111,5.31111,0,0,0-4.806-3.00381m2.343,1.562A4.14169,4.14169,0,0,1,14.9788,12.994a5.042,5.042,0,0,1-1.3817,1.3817,4.168,4.168,0,0,1-4.686,0A4.15313,4.15313,0,0,1,7.4092,12.994,4.14177,4.14177,0,0,1,8.851,11.55221c.0601,0,.0601-.06009.1202-.06009a1.91814,1.91814,0,0,0-.1802.8411,2.403,2.403,0,0,0,4.806,0c.0001-.30041-.06-.5407-.06-.781m-2.343.4806a.9011.9011,0,1,1-.9011-.9011.8846.8846,0,0,1,.9011.86778q.00031.01667,0,.03332"/></svg>