<svg id="Calque_1" data-name="Calque 1" xmlns="http://www.w3.org/2000/svg" viewBox="0 0 16 16"><path class="cls-1" d="M13,8V9.23a6.45249,6.45249,0,0,0-1.83-.22,6.3272,6.3272,0,0,0-5.68,3.57l-.21.43A5.46022,5.46022,0,0,0,7.78,16H3V8Z"/><rect x="3" y="2" width="10" height="4"/><rect x="3" width="2" height="1"/><polygon points="0 2 1 2 1 1 2 1 2 0 0 0 0 2"/><rect x="15" y="3" width="1" height="2"/><rect x="3" y="7" width="2" height="1"/><polygon points="1 6 0 6 0 8 2 8 2 7 1 7 1 6"/><rect y="3" width="1" height="2"/><rect x="7" width="2" height="1"/><rect x="11" y="7" width="2" height="1"/><rect x="7" y="7" width="2" height="1"/><polygon points="14 0 14 1 15 1 15 2 16 2 16 0 14 0"/><rect x="11" width="2" height="1"/><polygon points="15 7 14 7 14 8 16 8 16 6 15 6 15 7"/><rect x="7.43963" y="12.53434" width="7.50793" height="0.95039" transform="translate(-5.9206 11.72547) rotate(-45)"/><path d="M8.0099,14.932l.6608-.6608a3.04129,3.04129,0,0,1-1.2015-1.2616,4.49537,4.49537,0,0,1,3.7247-2.1027,2.92252,2.92252,0,0,1,.7209.0601l.781-.781a6.05313,6.05313,0,0,0-1.5019-.1802,5.31165,5.31165,0,0,0-4.8061,3.0038A5.0607,5.0607,0,0,0,8.0099,14.932Z"/><path d="M14.438,11.08706l-.6608.6608a4.25582,4.25582,0,0,1,1.2015,1.2616,4.50772,4.50772,0,0,1-3.7247,2.1027,4.9901,4.9901,0,0,1-.781-.1202l-.781.781a5.3522,5.3522,0,0,0,3.8449-.3004A5.43271,5.43271,0,0,0,16,13.00946,5.50866,5.50866,0,0,0,14.438,11.08706Z"/></svg>