<svg viewBox="0 0 16 16" xmlns="http://www.w3.org/2000/svg"><path d="m15 7h-1.0922a6.0081 6.0081 0 0 0 -4.9078-4.9078v-1.0922a1 1 0 0 0 -2 0v1.0922a6.0081 6.0081 0 0 0 -4.9078 4.9078h-1.0922a1 1 0 0 0 0 2h1.0923a6.008 6.008 0 0 0 4.9077 4.9078v1.0922a1 1 0 0 0 2 0v-1.0922a6.008 6.008 0 0 0 4.9077-4.9078h1.0923a1 1 0 0 0 0-2zm-2.4769 1.923a4.6245 4.6245 0 0 1 -3.6 3.6 4.6572 4.6572 0 0 1 -1.8462 0 4.6245 4.6245 0 0 1 -3.6-3.6 4.6617 4.6617 0 0 1 0-1.8461 4.6243 4.6243 0 0 1 3.6-3.6 4.6622 4.6622 0 0 1 1.8462 0 4.6243 4.6243 0 0 1 3.6 3.6 4.6617 4.6617 0 0 1 0 1.8461z"/></svg>