
<!-- Generator: Adobe Illustrator 23.0.0, SVG Export Plug-In . SVG Version: 6.00 Build 0)  -->
<svg version="1.1" id="Calque_1" xmlns="http://www.w3.org/2000/svg" xmlns:xlink="http://www.w3.org/1999/xlink" x="0px" y="0px"
	 viewBox="0 0 16 16" style="enable-background:new 0 0 16 16;" xml:space="preserve">
<path d="M8,0C3.58,0,0,3.58,0,8s3.58,8,8,8s8-3.58,8-8S12.42,0,8,0z M11,5c0.62,0.08,1.06,0.63,1,1.25c0.06,0.62-0.38,1.17-1,1.25
	c-0.62-0.08-1.06-0.63-1-1.25C9.94,5.63,10.38,5.08,11,5z M5,5c0.62,0.08,1.06,0.63,1,1.25C6.06,6.87,5.62,7.42,5,7.5
	C4.38,7.42,3.94,6.87,4,6.25C3.94,5.63,4.38,5.08,5,5z M8,13.5C5.38,13.63,3.15,11.62,3,9c0-0.28,0.22-0.5,0.5-0.5S4,8.72,4,9
	c0.15,2.07,1.93,3.63,4,3.5c2.07,0.13,3.85-1.43,4-3.5c0-0.28,0.22-0.5,0.5-0.5S13,8.72,13,9C12.85,11.62,10.62,13.63,8,13.5z"/>
</svg>
