<svg viewBox="0 0 16 16" xmlns="http://www.w3.org/2000/svg"><path d="m8 12.5a5.18916 5.18916 0 0 1 -3.87158-1.666.49961.49961 0 1 1 .74316-.668 4.191 4.191 0 0 0 3.12842 1.334 4.191 4.191 0 0 0 3.12842-1.334.49961.49961 0 1 1 .74316.668 5.18916 5.18916 0 0 1 -3.87158 1.666zm3-7.5a1.14615 1.14615 0 0 1 1 1.25 1.14615 1.14615 0 0 1 -1 1.25 1.14615 1.14615 0 0 1 -1-1.25 1.14615 1.14615 0 0 1 1-1.25zm-6 0a1.14615 1.14615 0 0 1 1 1.25 1.14615 1.14615 0 0 1 -1 1.25 1.14615 1.14615 0 0 1 -1-1.25 1.14615 1.14615 0 0 1 1-1.25zm3-4a7 7 0 1 1 -7 7 7.00793 7.00793 0 0 1 7-7m0-1a8 8 0 1 0 8 8 8 8 0 0 0 -8-8z"/></svg>