
<!-- Generator: Adobe Illustrator 23.0.0, SVG Export Plug-In . SVG Version: 6.00 Build 0)  -->
<svg version="1.1" id="Calque_1" xmlns="http://www.w3.org/2000/svg" xmlns:xlink="http://www.w3.org/1999/xlink" x="0px" y="0px"
	 viewBox="0 0 16 16" style="enable-background:new 0 0 16 16;" xml:space="preserve">
<path d="M11.5,12.5c-0.142,0.0003-0.2774-0.0601-0.3721-0.166C10.3208,11.467,9.1844,10.9824,8,11
	c-1.1844-0.0176-2.3208,0.467-3.1279,1.334c-0.1833,0.2065-0.4993,0.2253-0.7059,0.042c-0.2065-0.1833-0.2253-0.4993-0.042-0.7059
	c0.0012-0.0014,0.0025-0.0028,0.0037-0.0042C5.1248,10.5879,6.5317,9.9825,8,10c1.4683-0.0175,2.8752,0.5879,3.8721,1.666
	c0.1845,0.2055,0.1674,0.5216-0.0381,0.7061C11.7422,12.4544,11.6233,12.5,11.5,12.5z M11,5c0.6173,0.0763,1.0611,0.631,1,1.25
	c0.0611,0.619-0.3827,1.1737-1,1.25c-0.6173-0.0763-1.0611-0.631-1-1.25C9.9389,5.631,10.3827,5.0763,11,5z M5,5
	c0.6173,0.0763,1.0611,0.631,1,1.25C6.0611,6.869,5.6173,7.4237,5,7.5C4.3827,7.4237,3.9389,6.869,4,6.25
	C3.9389,5.631,4.3827,5.0763,5,5z M8,0C3.5817,0,0,3.5817,0,8s3.5817,8,8,8s8-3.5817,8-8S12.4183,0,8,0z"/>
</svg>
