
<!-- Generator: Adobe Illustrator 23.0.0, SVG Export Plug-In . SVG Version: 6.00 Build 0)  -->
<svg version="1.1" id="Calque_1" xmlns="http://www.w3.org/2000/svg" xmlns:xlink="http://www.w3.org/1999/xlink" x="0px" y="0px"
	 viewBox="0 0 16 16" style="enable-background:new 0 0 16 16;" xml:space="preserve">
<path d="M8,12.5c-1.4681,0.0174-2.8749-0.588-3.8716-1.666c-0.1845-0.2052-0.1676-0.5211,0.0376-0.7056
	C4.3712,9.944,4.6871,9.9608,4.8716,10.166C5.679,11.0328,6.8155,11.5174,8,11.5c1.1845,0.0174,2.321-0.4672,3.1284-1.334
	c0.1845-0.2052,0.5004-0.222,0.7056-0.0376c0.2052,0.1845,0.222,0.5004,0.0376,0.7056C10.8749,11.912,9.4681,12.5174,8,12.5z M11,5
	c0.6173,0.0763,1.0611,0.631,1,1.25c0.0611,0.619-0.3827,1.1737-1,1.25c-0.6173-0.0763-1.0611-0.631-1-1.25
	C9.9389,5.631,10.3827,5.0763,11,5z M5,5c0.6173,0.0763,1.0611,0.631,1,1.25C6.0611,6.869,5.6173,7.4237,5,7.5
	C4.3827,7.4237,3.9389,6.869,4,6.25C3.9389,5.631,4.3827,5.0763,5,5z M8,0C3.5817,0,0,3.5817,0,8s3.5817,8,8,8s8-3.5817,8-8
	S12.4183,0,8,0z"/>
</svg>
