<svg viewBox="0 0 16 16" xmlns="http://www.w3.org/2000/svg"><path d="m11.5 12.5a.49742.49742 0 0 1 -.37207-.166 4.18839 4.18839 0 0 0 -3.12793-1.334 4.18839 4.18839 0 0 0 -3.12793 1.334.5.5 0 1 1 -.74414-.668 5.18945 5.18945 0 0 1 3.87207-1.666 5.18945 5.18945 0 0 1 3.87207 1.666.5.5 0 0 1 -.37207.834zm-.5-7.5a1.14615 1.14615 0 0 1 1 1.25 1.14615 1.14615 0 0 1 -1 1.25 1.14615 1.14615 0 0 1 -1-1.25 1.14615 1.14615 0 0 1 1-1.25zm-6 0a1.14615 1.14615 0 0 1 1 1.25 1.14615 1.14615 0 0 1 -1 1.25 1.14615 1.14615 0 0 1 -1-1.25 1.14615 1.14615 0 0 1 1-1.25zm3-4a7 7 0 1 1 -7 7 7.00793 7.00793 0 0 1 7-7m0-1a8 8 0 1 0 8 8 8 8 0 0 0 -8-8z"/></svg>