<svg xmlns="http://www.w3.org/2000/svg" viewBox="0 0 16 16"><path d="M7.5,6A1.5,1.5,0,1,0,9,7.5,1.5,1.5,0,0,0,7.5,6Zm0,2A.5.5,0,1,1,8,7.5.50057.50057,0,0,1,7.5,8ZM14,12.09192V2.9082A1.49647,1.49647,0,1,0,12.09186,1H2.90814A1.49645,1.49645,0,1,0,1,2.9082v9.18372A1.49643,1.49643,0,1,0,2.9082,14h9.1836A1.49646,1.49646,0,1,0,14,12.09192Zm-12,0V2.9082A1.49479,1.49479,0,0,0,2.9082,2h9.1836A1.49479,1.49479,0,0,0,13,2.9082v9.18372A1.49477,1.49477,0,0,0,12.0918,13H2.9082A1.49462,1.49462,0,0,0,2,12.09192ZM13.5,1a.5.5,0,1,1-.5.50012A.50064.50064,0,0,1,13.5,1ZM1.5,1a.5.5,0,1,1-.5.50012A.50064.50064,0,0,1,1.5,1Zm0,13a.49994.49994,0,1,1,.5-.5A.50057.50057,0,0,1,1.5,14Zm12,0a.49994.49994,0,1,1,.5-.5A.50057.50057,0,0,1,13.5,14Z" fill-rule="evenodd"/></svg>