<svg xmlns="http://www.w3.org/2000/svg" viewBox="0 0 16 16"><path d="M6,7.5A1.5,1.5,0,1,0,7.5,6,1.5,1.5,0,0,0,6,7.5Zm2,0A.5.5,0,1,1,7.5,7,.50057.50057,0,0,1,8,7.5ZM9,13H2.9082A1.49462,1.49462,0,0,0,2,12.09192V2.9082A1.49479,1.49479,0,0,0,2.9082,2h9.1836A1.49479,1.49479,0,0,0,13,2.9082V11h1V2.9082A1.49647,1.49647,0,1,0,12.09186,1H2.90814A1.49645,1.49645,0,1,0,1,2.9082v9.18372A1.49643,1.49643,0,1,0,2.9082,14H9ZM13.5,1a.5.5,0,1,1-.5.50012A.50064.50064,0,0,1,13.5,1ZM1.5,1a.5.5,0,1,1-.5.50012A.50064.50064,0,0,1,1.5,1Zm0,13a.49994.49994,0,1,1,.5-.5A.50057.50057,0,0,1,1.5,14ZM12,12.0001h1V15H12Zm2,0h1V15H14Zm-4,0h1V15H10Z"/></svg>