<svg id="Calque_1" data-name="Calque 1" xmlns="http://www.w3.org/2000/svg" viewBox="0 0 16 16"><path d="M13.68045,5.27789a4.14277,4.14277,0,0,0-4.29-4.26,3.67041,3.67041,0,0,0-3.59,2.16,2.14642,2.14642,0,0,0-.95-.21,2.37323,2.37323,0,0,0-2.43,2.15,3.29169,3.29169,0,0,0-2.42,3.26,3.4648,3.4648,0,0,0,3.07,3.44v-1.21a2.25835,2.25835,0,0,1-1.88-2.23,2.12478,2.12478,0,0,1,1.89-2.19l.51-.07v-.8a1.19211,1.19211,0,0,1,1.26-1.16,1.39006,1.39006,0,0,1,.85.34l.6.45.3-.69c.57-1.33,1.18-2.05,2.79-2.05a3.0281,3.0281,0,0,1,3.11,3.30005v.83l.55.04a1.88622,1.88622,0,0,1,1.76,2,2.2942,2.2942,0,0,1-1.59,2.17v1.22a3.45644,3.45644,0,0,0,2.78-3.39A3.09919,3.09919,0,0,0,13.68045,5.27789Z"/><path d="M11.20694,12.13672l-.96313.6297-1.51709-.86688,1.51257-.86432.96082.65716a.37831.37831,0,0,0,.21191.06543.375.375,0,0,0,.21191-.68457l-.66088-.4516.42651-.24371a.37489.37489,0,1,0-.373-.65039l-.43054.246L10.5419,9.207a.35107.35107,0,0,0-.39551-.35254A.37406.37406,0,0,0,9.79386,9.25l.06433,1.13947-1.51258.86431V9.54224l1.06055-.509a.37477.37477,0,1,0-.32422-.67578l-.73633.35291V8.17676a.375.375,0,0,0-.75,0v.52136l-.66992-.33777a.37515.37515,0,0,0-.33789.66992l1.00781.50782v1.71514l-1.47619-.84356.08752-1.15283a.37508.37508,0,0,0-.3457-.40235.35551.35551,0,0,0-.40235.34571l-.061.79718-.47223-.26984a.37489.37489,0,1,0-.37305.65039l.47315.27039-.64209.421a.37491.37491,0,0,0,.20508.68847.37.37,0,0,0,.20508-.06152l.9635-.62994,1.45813.83319L5.70786,12.761l-.90717-.62042a.37516.37516,0,0,0-.42383.61914l.60718.41491-.43432.24817a.37489.37489,0,1,0,.373.65039l.48834-.279.04779.83081a.37469.37469,0,0,0,.374.35352l.02148-.001a.37406.37406,0,0,0,.35254-.39551L6.139,13.3783l1.45666-.8324v1.77276l-1.001.48114a.37493.37493,0,0,0,.16211.7129.36764.36764,0,0,0,.16211-.03711l.67675-.325V15.625a.375.375,0,0,0,.75,0v-.52081l.7295.36847a.37516.37516,0,0,0,.33789-.66993L8.34561,14.2641V12.54535l1.53577.87756L9.79386,14.5752a.37508.37508,0,0,0,.3457.40234l.02832.001a.37493.37493,0,0,0,.374-.34668l.061-.79663.41656.238a.37489.37489,0,0,0,.37305-.65039l-.41712-.23834.64173-.42084a.3746.3746,0,1,0-.41016-.62695Z"/></svg>