<svg xmlns="http://www.w3.org/2000/svg" viewBox="0 0 16 16"><path d="M8,2.8253,9.3463,5.6461l.3449.7227.7924.1156,3.0308.442L11.3548,9.0241l-.5636.5475.1292.775.5034,3.02L8.6832,11.9646,8,11.6151l-.6832.35-2.6992,1.381.5567-2.9692.1484-.7917-.5781-.561-2.1738-2.11,2.9456-.43.7924-.1156.3449-.7227L8,2.8253M7.9948.1867A.6437.6437,0,0,0,7.4.6L5.3,5,.5,5.7c-.6.1-.6.7-.2,1.1l3.4,3.3-.9,4.8c-.0709.4963.21.691.5222.691A.86.86,0,0,0,3.7,15.5L8,13.3l4.3,2.2a.7911.7911,0,0,0,.3533.0915A.5631.5631,0,0,0,13.2,14.9l-.8-4.8,3.5-3.4a.6689.6689,0,0,0-.4-1L10.7,5,8.6.6A.6788.6788,0,0,0,7.9948.1867Z"/></svg>