<svg xmlns="http://www.w3.org/2000/svg" viewBox="0 0 16 16"><path d="M12.5,11h1a.5.5,0,0,1,0,1h-1a.5.5,0,0,1,0-1Z"/><path d="M12.5,9h1a.5.5,0,0,1,0,1h-1a.5.5,0,0,1,0-1Z"/><path d="M12.5,7h1a.5.5,0,0,1,0,1h-1a.5.5,0,0,1,0-1Z"/><path d="M7.5,11h1a.5.5,0,0,1,0,1h-1a.5.5,0,0,1,0-1Z"/><path d="M7.5,9h1a.5.5,0,0,1,0,1h-1a.5.5,0,0,1,0-1Z"/><path d="M7.5,7h1a.5.5,0,0,1,0,1h-1a.5.5,0,0,1,0-1Z"/><path d="M2.5,11h1a.5.5,0,0,1,0,1h-1a.5.5,0,0,1,0-1Z"/><path d="M2.5,9h1a.5.5,0,0,1,0,1h-1a.5.5,0,0,1,0-1Z"/><path d="M2.5,7h1a.5.5,0,0,1,0,1h-1a.5.5,0,0,1,0-1Z"/><path d="M15,2H1A1,1,0,0,0,0,3V13a1,1,0,0,0,1,1H15a1,1,0,0,0,1-1V3A1,1,0,0,0,15,2ZM10,3V5H6V3ZM1,3H5V5H1ZM1,13V6H5v7Zm5,0V6h4v7Zm9,0H11V6h4Zm0-8H11V3h4Z"/></svg>