<svg xmlns="http://www.w3.org/2000/svg" viewBox="0 0 16 16"><path d="M2.999 2.4427a.4264 .4264 0 0 1 .4041 -.4433H12.597a.4264 .4264 0 0 1 .4042 .4433v2.11c0 .244-.122.443-.27.443s-.344-.183-.433-.406l-.35-.708a.6742 .6742 0 0 0 -.567 -.4056H9.474A.5655 .5655 0 0 0 9.0012 4v8c0 .244.242.872.455.942l1.162.279a.55 .55 0 0 1 .3871 .4533 .3725 .3725 0 0 1 -.4041 .326H5.399a.3725 .3725 0 0 1 -.4041 -.326 .55 .55 0 0 1 .3871 -.4533l1.141-.279c.213-.07.478-.698.478-.942V4a.5875 .5875 0 0 0 -.4951 -.5235H4.62a.6744 .6744 0 0 0 -.5669 .4058l-.35.708c-.09.223-.285.406-.433.406s-.271-.199-.271-.443v-2.11"/></svg>