<svg xmlns="http://www.w3.org/2000/svg" viewBox="0 0 16 16"><path d="M4 4.2951A.29 .29 0 0 1 4.283 4h6.436a.29 .29 0 0 1 .2829 .2955V5.702c0 .163-.085.296-.189.296s-.24-.122-.303-.27l-.245-.472a.4716 .4716 0 0 0 -.397 -.27H8.225a.29 .29 0 0 0 -.2829 .2955v5.634a.4211 .4211 0 0 0 .271 .38l1.121.186a.3719 .3719 0 0 1 .271 .3022A.2575 .2575 0 0 1 9.322 12H5.68a.2575 .2575 0 0 1 -.2829 -.2173 .3719 .3719 0 0 1 .271 -.3022l1.043-.186a.421 .421 0 0 0 .271 -.38V5.28A.29 .29 0 0 0 6.7 4.9844H5.135a.4717 .4717 0 0 0 -.397 .2706l-.245.472c-.063.149-.199.271-.303.271S4 5.864 4 5.702V4.295"/></svg>