<svg id="Calque_1" data-name="Calque 1" xmlns="http://www.w3.org/2000/svg" viewBox="0 0 16 16"><path d="M13.68045,4.36116a4.14277,4.14277,0,0,0-4.29-4.26,3.67041,3.67041,0,0,0-3.59,2.16,2.14642,2.14642,0,0,0-.95-.21,2.37323,2.37323,0,0,0-2.43,2.15,3.29169,3.29169,0,0,0-2.42,3.26,3.4648,3.4648,0,0,0,3.07,3.44v-1.21a2.25835,2.25835,0,0,1-1.88-2.23,2.12478,2.12478,0,0,1,1.89-2.19l.51-.07v-.8a1.19211,1.19211,0,0,1,1.26-1.16,1.39006,1.39006,0,0,1,.85.34l.6.45.3-.69c.57-1.33,1.18-2.05,2.79-2.05a3.02809,3.02809,0,0,1,3.11,3.3v.83l.55.04a1.88622,1.88622,0,0,1,1.76,2,2.2942,2.2942,0,0,1-1.59,2.17v1.22a3.45644,3.45644,0,0,0,2.78-3.39A3.09919,3.09919,0,0,0,13.68045,4.36116Z"/><path d="M11.30481,10.20691v-.0061a.36684.36684,0,0,0-.32315-.189H9.02438l.9512-3.317a.34844.34844,0,0,0-.189-.41462.36784.36784,0,0,0-.439.09148L4.744,11.63981a.36037.36037,0,0,0-.04878.40242.36765.36765,0,0,0,.32314.19514H6.97562l-.9573,3.31091a.36029.36029,0,0,0,.21344.42072.25557.25557,0,0,0,.122.03049H6.372a.34818.34818,0,0,0,.28045-.12806l4.60361-5.2682A.352.352,0,0,0,11.30481,10.20691Z"/></svg>