<svg xmlns="http://www.w3.org/2000/svg" viewBox="0 0 16 16" enable-background="new 0 0 16 16"><path d="m14.9 3.6l1.1-2.9-.7-.7-2.8 1.1-.5 1.5-5.6 5.6c-.7-.4-1.5-.2-2 .3l-3.9 3.9c-.7.7-.7 1.7 0 2.4l.7.7c.7.7 1.7.7 2.4 0l3.9-3.9c.5-.5.6-1.4.3-2l5.6-5.6"/><path d="m3.5 7.9l.2-.2c.5-.4 1.1-.7 1.9-.7.2 0 .4 0 .6.1l1.6-1.6c.8-2-.2-4.3-2.2-5.2-.8-.3-1.7-.4-2.5-.2l2.9 2.9-3 3-2.9-2.9c-.5 2.1.8 4.3 2.9 4.8.2 0 .4 0 .5 0"/><path d="m10.5 8.3l-1.6 1.6c.1.4.1.9 0 1.3l4.5 4.5c.5.5 1.4.5 1.9 0l.4-.4c.5-.5.5-1.4 0-1.9"/></svg>