
<!-- Generator: Adobe Illustrator 23.0.1, SVG Export Plug-In . SVG Version: 6.00 Build 0)  -->
<svg version="1.1" id="Calque_1" xmlns="http://www.w3.org/2000/svg" xmlns:xlink="http://www.w3.org/1999/xlink" x="0px" y="0px"
	 viewBox="0 0 16 16" style="enable-background:new 0 0 16 16;" xml:space="preserve">
<path d="M7,10v3.5H0.73c-0.26,0.01-0.52-0.11-0.67-0.33c-0.09-0.21-0.09-0.45,0-0.66l1.52-3.36C1.65,9,1.77,8.88,1.92,8.82
	l2.36-1.23h0.17C5.11,8.1,5.91,8.4,6.75,8.43C7.57,8.4,8.37,8.1,9.01,7.59h0.17L10,8.01V10H7z M3.6902,3.5886
	C3.6902,0.8544,5.0419,0,6.7319,0s3.0418,0.8544,3.0418,3.5886c0,1.9652-1.3519,3.5886-3.0418,3.5886
	C5.042,7.1771,3.6902,5.5537,3.6902,3.5886z M13,8v3h3v2h-3v3h-2v-3H8v-2h3V8H13z"/>
</svg>
