<svg xmlns="http://www.w3.org/2000/svg" viewBox="0 0 16 16"><path d="M8,3v7.9a4.0117,4.0117,0,0,0,4-4,6.75,6.75,0,0,0-.2-1.4l.1.1A6.8944,6.8944,0,0,1,14.3,8,8.3914,8.3914,0,0,1,12,10.3a6.8941,6.8941,0,0,1-3.9,1.2c-.0334,0-.0665-.0068-.1-.0072V13a8.9069,8.9069,0,0,0,8-5A8.9069,8.9069,0,0,0,8,3Z"/><path d="M6.5 7.9A1.5379 1.5379 0 0 0 8 6.4 1.4727 1.4727 0 0 0 6.5 4.9 1.538 1.538 0 0 0 5 6.4 1.5379 1.5379 0 0 0 6.5 7.9"/><path d="M4.1,5.6A6.8944,6.8944,0,0,0,1.7,8a6.9732,6.9732,0,0,0,2.5,2.3A6.6409,6.6409,0,0,0,8,11.4928V10.9a4.0117,4.0117,0,0,1-4-4,3.1936,3.1936,0,0,1,.3-1.4C4.2,5.5,4.2,5.6,4.1,5.6Z"/><path d="M0,8v8H8V13A8.9069,8.9069,0,0,1,0,8Z"/><path d="M8,3V0H0V8A8.9069,8.9069,0,0,1,8,3Z"/></svg>