<svg xmlns="http://www.w3.org/2000/svg" viewBox="0 0 16 16"><path d="M7.2929,9.6435l-.7071-.7071.5085-.5085A6.4276,6.4276,0,0,1,4.2,7.3,6.9732,6.9732,0,0,1,1.7,5,6.8944,6.8944,0,0,1,4.1,2.6c.1,0,.1-.1.2-.1A3.1936,3.1936,0,0,0,4,3.9,4,4,0,0,0,7.6571,7.8651l.5722-.5723.7071-.7071.7071.7071L9.8,7.45A3.9971,3.9971,0,0,0,12,3.9a6.75,6.75,0,0,0-.2-1.4l.1.1A6.8944,6.8944,0,0,1,14.3,5,8.3914,8.3914,0,0,1,12,7.3a7.2286,7.2286,0,0,1-1.5693.78l1.16,1.16a8.8689,8.8689,0,0,0,2.7607-1.942l.0052-.0052.2777-.2777A9.27,9.27,0,0,0,16,5,8.9,8.9,0,0,0,0,5,8.902,8.902,0,0,0,7.6225,9.9731ZM6.5,1.9A1.4727,1.4727,0,0,1,8,3.4,1.5379,1.5379,0,0,1,6.5,4.9,1.5379,1.5379,0,0,1,5,3.4,1.538,1.538,0,0,1,6.5,1.9Z"/><path d="M16 8.936 15.06 8 12 11.06 8.936 8 8 8.936 11.06 12 8 15.06 8.936 16 12 12.936 15.06 16 16 15.06 12.936 12 16 8.936z"/></svg>