<svg xmlns="http://www.w3.org/2000/svg" viewBox="0 0 16 16"><path d="M8.00891,6.77838a5.94469,5.94469,0,0,0-4.5293,2.08386A.31128.31128,0,0,1,3.23,8.988H3.2121a.35087.35087,0,0,1-.2497-.10779l-.517-.521a.34334.34334,0,0,1-.01788-.485A7.36691,7.36691,0,0,1,13.445,7.72577l-.03211.0321-.987.987A5.97326,5.97326,0,0,0,9.923,7.09583l-.045-.04505-.0235.0235A5.9531,5.9531,0,0,0,8.00891,6.77838Zm6.86536-.25152a.47425.47425,0,0,0,.24969.12579.35073.35073,0,0,0,.24964-.10779l.51709-.52093a.36613.36613,0,0,0,.01788-.50306A10.7302,10.7302,0,0,0,8.00891,2,10.76913,10.76913,0,0,0,.09143,5.52087a.36613.36613,0,0,0,.01788.50306l.51722.50293a.35042.35042,0,0,0,.24963.10778A.28857.28857,0,0,0,1.12579,6.509a9.31882,9.31882,0,0,1,6.8653-3.07184A9.30942,9.30942,0,0,1,14.87427,6.52686ZM7.40045,13.77032l.35645-.35644,1.0191-1.0191a.9712.9712,0,0,0-.76721-.39167.99475.99475,0,0,0-.99109.99848A.98333.98333,0,0,0,7.40045,13.77032ZM7.0498,9.879l.7071-.70709.73138-.73139a4.33023,4.33023,0,0,0-3.90307,1.64325.36319.36319,0,0,0,.03564.485l.51715.52093a.35068.35068,0,0,0,.24963.10785h.01783a.33795.33795,0,0,0,.26751-.14374,2.86459,2.86459,0,0,1,1.50214-1.04956Zm8.4842,0L13.413,12l2.121,2.121L14.12,15.535l-2.121-2.121L9.878,15.535,8.464,14.121,10.585,12,8.464,9.879,9.878,8.465l2.121,2.121L14.12,8.465Z"/></svg>