<svg xmlns="http://www.w3.org/2000/svg" viewBox="0 0 16 16"><path d="M8.00879,12.00313a.99846.99846,0,1,1-.99109.99849A.99483.99483,0,0,1,8.00879,12.00313Zm.0001-3.59a4.34921,4.34921,0,0,0-3.42371,1.67064.36318.36318,0,0,0,.03566.485l.51718.521a.35054.35054,0,0,0,.24964.10781h.01778a.338.338,0,0,0,.26753-.14372,2.89408,2.89408,0,0,1,4.67194,0,.314.314,0,0,0,.26753.14372h.01778a.35058.35058,0,0,0,.24965-.10781l.51717-.521a.38277.38277,0,0,0,.03566-.485A4.37537,4.37537,0,0,0,8.00889,8.41313Zm0-3.08975A7.40742,7.40742,0,0,0,2.42748,7.87419a.3433.3433,0,0,0,.01788.485l.51707.52094a.35071.35071,0,0,0,.24965.10781H3.23a.31144.31144,0,0,0,.24965-.12571,5.96424,5.96424,0,0,1,9.05867,0,.37366.37366,0,0,0,.24964.12571h.01778a.35076.35076,0,0,0,.24975-.10781l.51707-.52094a.36078.36078,0,0,0,.01788-.485A7.46431,7.46431,0,0,0,8.00889,5.32338Zm7.89965.19751A10.73014,10.73014,0,0,0,8.00889,2,10.769,10.769,0,0,0,.09146,5.52089a.36607.36607,0,0,0,.01788.50305l.51717.50294a.35058.35058,0,0,0,.24965.10781h0A.2886.2886,0,0,0,1.1258,6.509,9.31888,9.31888,0,0,1,7.99111,3.43712,9.30951,9.30951,0,0,1,14.8743,6.52688a.474.474,0,0,0,.24964.12581h0a.35075.35075,0,0,0,.24965-.10781l.51707-.52094A.36607.36607,0,0,0,15.90854,5.52089Z"/></svg>