<svg xmlns="http://www.w3.org/2000/svg" viewBox="0 0 16 16"><path d="M6.6973 7.2461A4.88857 4.88857 0 0 1 5.897 4.6666 4.50963 4.50963 0 0 1 10.3987 .0037a4.56386 4.56386 0 1 1 0 9.1274 4.48449 4.48449 0 0 1 -2.601 -.7937L4.096 12.01 2.996 10.917 6.697 7.246m3.8014.3968a3.10392 3.10392 0 0 0 3.1012 -3.0755 3.10126 3.10126 0 0 0 -6.2023 0 3.04087 3.04087 0 0 0 3.1011 3.0755M5 0H6V1H5M3 0H4V1H3M1 0H2V1H1M0 1H1V2H0M0 3H1V4H0M0 5H1V6H0M0 7H1V8H0M0 9H1v1H0m0 1H1v1H0m0 1H1v1H0m1 0H2v1H1m2-1H4v1H3m2-1H6v1H5m2-1H8v1H7m2-1h1v1H9m2-1h1v1H11m2-1h1v1H13m1-2h1v1H14m0-3h1v1H14m0-3h1v1H14"/></svg>